# MagicaVoxel @ Ephtracy

# group
o 

# material
mtllib Scream.mtl
usemtl palette

# normals
vn -1 0 0
vn 1 0 0
vn 0 0 1
vn 0 0 -1
vn 0 -1 0
vn 0 1 0

# texcoords
vt 0.380859 0.5
vt 0.388672 0.5
vt 0.623047 0.5
vt 0.736328 0.5
vt 0.865234 0.5
vt 0.958984 0.5
vt 0.994141 0.5

# verts
v -0.7 0.7 0.3
v -0.7 0.7 -0.1
v -0.7 0.9 0.3
v -0.7 0.9 0.2
v -0.7 1 0.2
v -0.7 1 -0.1
v -0.6 1 0.2
v -0.6 1 -0.1
v -0.6 1.1 0.2
v -0.6 1.1 -0.1
v -0.5 0 0.2
v -0.5 0 -0.1
v -0.5 0.4 0.2
v -0.5 0.4 -0.1
v -0.5 0.7 0.2
v -0.5 0.7 -0.1
v -0.5 1.1 0.2
v -0.5 1.1 -0.1
v -0.5 1.2 0.2
v -0.5 1.2 -0.1
v -0.4 1.3 0.4
v -0.4 1.3 -0.3
v -0.4 1.9 0.4
v -0.4 1.9 -0.3
v -0.2 1.2 0.2
v -0.2 1.2 -0.1
v -0.2 1.3 0.2
v -0.2 1.3 -0.1
v -0.2 1.5 -0.3
v -0.2 1.5 -0.4
v -0.2 1.6 -0.4
v -0.2 1.6 -0.5
v -0.2 1.8 0.5
v -0.2 1.8 0.4
v -0.2 1.9 0.4
v -0.2 1.9 -0.3
v -0.2 2.1 0.5
v -0.2 2.1 0.4
v -0.2 2.2 0.4
v -0.2 2.2 0.3
v -0.2 2.2 -0.4
v -0.2 2.2 -0.5
v -0.2 2.3 0.3
v -0.2 2.3 -0.4
v -0.1 1.4 -0.3
v -0.1 1.4 -0.4
v -0.1 1.5 -0.3
v -0.1 1.5 -0.4
v -0.1 1.5 -0.5
v -0.1 1.6 -0.4
v -0.1 1.6 -0.5
v -0.1 1.6 -0.6
v -0.1 2.1 0.5
v -0.1 2.1 0.4
v -0.1 2.2 0.5
v -0.1 2.2 0.4
v -0.1 2.2 0.3
v -0.1 2.2 -0.4
v -0.1 2.2 -0.5
v -0.1 2.3 0.4
v -0.1 2.3 0.3
v -0.1 2.3 -0.4
v -0.1 2.3 -0.5
v -0.1 2.3 -0.6
v -0.1 2.4 0.3
v -0.1 2.4 -0.5
v 0.1 0 0.2
v 0.1 0 -0.1
v 0.1 0.3 0.2
v 0.1 0.3 -0.1
v 0.4 0.7 0.3
v 0.4 0.7 0.2
v 0.4 0.9 0.3
v 0.4 0.9 0.2
v -0.5 0.7 0.3
v -0.5 0.7 0.2
v -0.5 0.9 0.3
v -0.5 0.9 0.2
v -0.2 0 0.2
v -0.2 0 -0.1
v -0.2 0.3 0.2
v -0.2 0.3 -0.1
v 5.96046e-08 1.4 -0.3
v 5.96046e-08 1.4 -0.4
v 5.96046e-08 1.5 -0.3
v 5.96046e-08 1.5 -0.4
v 5.96046e-08 1.5 -0.5
v 5.96046e-08 1.6 -0.4
v 5.96046e-08 1.6 -0.5
v 5.96046e-08 1.6 -0.6
v 5.96046e-08 2.1 0.5
v 5.96046e-08 2.1 0.4
v 5.96046e-08 2.2 0.5
v 5.96046e-08 2.2 0.4
v 5.96046e-08 2.2 0.3
v 5.96046e-08 2.2 -0.4
v 5.96046e-08 2.2 -0.5
v 5.96046e-08 2.3 0.4
v 5.96046e-08 2.3 0.3
v 5.96046e-08 2.3 -0.4
v 5.96046e-08 2.3 -0.5
v 5.96046e-08 2.3 -0.6
v 5.96046e-08 2.4 0.3
v 5.96046e-08 2.4 -0.5
v 0.1 1.2 0.2
v 0.1 1.2 -0.1
v 0.1 1.3 0.2
v 0.1 1.3 -0.1
v 0.1 1.5 -0.3
v 0.1 1.5 -0.4
v 0.1 1.6 -0.4
v 0.1 1.6 -0.5
v 0.1 1.8 0.5
v 0.1 1.8 0.4
v 0.1 1.9 0.4
v 0.1 1.9 -0.3
v 0.1 2.1 0.5
v 0.1 2.1 0.4
v 0.1 2.2 0.4
v 0.1 2.2 0.3
v 0.1 2.2 -0.4
v 0.1 2.2 -0.5
v 0.1 2.3 0.3
v 0.1 2.3 -0.4
v 0.3 1.3 0.4
v 0.3 1.3 -0.3
v 0.3 1.9 0.4
v 0.3 1.9 -0.3
v 0.4 0 0.2
v 0.4 0 -0.1
v 0.4 0.4 0.2
v 0.4 0.4 -0.1
v 0.4 0.7 0.2
v 0.4 0.7 -0.1
v 0.4 1.1 0.2
v 0.4 1.1 -0.1
v 0.4 1.2 0.2
v 0.4 1.2 -0.1
v 0.5 1 0.2
v 0.5 1 -0.1
v 0.5 1.1 0.2
v 0.5 1.1 -0.1
v 0.6 0.7 0.3
v 0.6 0.7 -0.1
v 0.6 0.9 0.3
v 0.6 0.9 0.2
v 0.6 1 0.2
v 0.6 1 -0.1
v -0.2 1.8 0.5
v -0.2 2.1 0.5
v -0.1 2.1 0.5
v -0.1 2.2 0.5
v 5.96046e-08 2.1 0.5
v 5.96046e-08 2.2 0.5
v 0.1 1.8 0.5
v 0.1 2.1 0.5
v -0.4 1.3 0.4
v -0.4 1.9 0.4
v -0.3 1.6 0.4
v -0.3 1.7 0.4
v -0.2 1.3 0.4
v -0.2 1.5 0.4
v -0.2 1.6 0.4
v -0.2 1.7 0.4
v -0.2 1.8 0.4
v -0.2 1.9 0.4
v -0.2 2.1 0.4
v -0.2 2.2 0.4
v -0.1 1.5 0.4
v -0.1 1.6 0.4
v -0.1 2.1 0.4
v -0.1 2.2 0.4
v -0.1 2.3 0.4
v 5.96046e-08 1.5 0.4
v 5.96046e-08 1.6 0.4
v 5.96046e-08 2.1 0.4
v 5.96046e-08 2.2 0.4
v 5.96046e-08 2.3 0.4
v 0.1 1.3 0.4
v 0.1 1.5 0.4
v 0.1 1.6 0.4
v 0.1 1.7 0.4
v 0.1 1.8 0.4
v 0.1 1.9 0.4
v 0.1 2.1 0.4
v 0.1 2.2 0.4
v 0.2 1.6 0.4
v 0.2 1.7 0.4
v 0.3 1.3 0.4
v 0.3 1.9 0.4
v -0.7 0.7 0.3
v -0.7 0.9 0.3
v -0.5 0.7 0.3
v -0.5 0.9 0.3
v -0.2 2.2 0.3
v -0.2 2.3 0.3
v -0.1 2.2 0.3
v -0.1 2.3 0.3
v -0.1 2.4 0.3
v 5.96046e-08 2.2 0.3
v 5.96046e-08 2.3 0.3
v 5.96046e-08 2.4 0.3
v 0.1 2.2 0.3
v 0.1 2.3 0.3
v 0.4 0.7 0.3
v 0.4 0.9 0.3
v 0.6 0.7 0.3
v 0.6 0.9 0.3
v -0.7 0.9 0.2
v -0.7 1 0.2
v -0.6 0.9 0.2
v -0.6 1 0.2
v -0.6 1.1 0.2
v -0.5 0 0.2
v -0.5 0.4 0.2
v -0.5 0.7 0.2
v -0.5 0.9 0.2
v -0.5 1.1 0.2
v -0.5 1.2 0.2
v -0.2 0 0.2
v -0.2 0.3 0.2
v -0.2 0.4 0.2
v -0.2 0.5 0.2
v -0.2 0.8 0.2
v -0.2 1 0.2
v -0.2 1.2 0.2
v -0.2 1.3 0.2
v -0.1 0.4 0.2
v -0.1 0.5 0.2
v -0.1 0.7 0.2
v -0.1 0.8 0.2
v 5.96046e-08 0.4 0.2
v 5.96046e-08 0.5 0.2
v 5.96046e-08 0.7 0.2
v 5.96046e-08 0.8 0.2
v 0.1 0 0.2
v 0.1 0.3 0.2
v 0.1 0.4 0.2
v 0.1 0.5 0.2
v 0.1 0.8 0.2
v 0.1 1 0.2
v 0.1 1.2 0.2
v 0.1 1.3 0.2
v 0.4 0 0.2
v 0.4 0.4 0.2
v 0.4 0.7 0.2
v 0.4 0.9 0.2
v 0.4 1.1 0.2
v 0.4 1.2 0.2
v 0.5 0.9 0.2
v 0.5 1 0.2
v 0.5 1.1 0.2
v 0.6 0.9 0.2
v 0.6 1 0.2
v -0.7 0.7 -0.1
v -0.7 1 -0.1
v -0.6 0.9 -0.1
v -0.6 1 -0.1
v -0.6 1.1 -0.1
v -0.5 0 -0.1
v -0.5 0.4 -0.1
v -0.5 0.7 -0.1
v -0.5 0.9 -0.1
v -0.5 1.1 -0.1
v -0.5 1.2 -0.1
v -0.2 0 -0.1
v -0.2 0.3 -0.1
v -0.2 0.8 -0.1
v -0.2 1 -0.1
v -0.2 1.2 -0.1
v -0.2 1.3 -0.1
v -0.1 0.7 -0.1
v -0.1 0.8 -0.1
v 5.96046e-08 0.7 -0.1
v 5.96046e-08 0.8 -0.1
v 0.1 0 -0.1
v 0.1 0.3 -0.1
v 0.1 0.8 -0.1
v 0.1 1 -0.1
v 0.1 1.2 -0.1
v 0.1 1.3 -0.1
v 0.4 0 -0.1
v 0.4 0.4 -0.1
v 0.4 0.7 -0.1
v 0.4 0.9 -0.1
v 0.4 1.1 -0.1
v 0.4 1.2 -0.1
v 0.5 0.9 -0.1
v 0.5 1 -0.1
v 0.5 1.1 -0.1
v 0.6 0.7 -0.1
v 0.6 1 -0.1
v -0.4 1.3 -0.3
v -0.4 1.9 -0.3
v -0.2 1.5 -0.3
v -0.2 1.9 -0.3
v -0.1 1.4 -0.3
v -0.1 1.5 -0.3
v 5.96046e-08 1.4 -0.3
v 5.96046e-08 1.5 -0.3
v 0.1 1.5 -0.3
v 0.1 1.9 -0.3
v 0.3 1.3 -0.3
v 0.3 1.9 -0.3
v -0.2 1.5 -0.4
v -0.2 1.6 -0.4
v -0.2 2.2 -0.4
v -0.2 2.3 -0.4
v -0.1 1.4 -0.4
v -0.1 1.5 -0.4
v -0.1 1.6 -0.4
v -0.1 2.2 -0.4
v -0.1 2.3 -0.4
v 5.96046e-08 1.4 -0.4
v 5.96046e-08 1.5 -0.4
v 5.96046e-08 1.6 -0.4
v 5.96046e-08 2.2 -0.4
v 5.96046e-08 2.3 -0.4
v 0.1 1.5 -0.4
v 0.1 1.6 -0.4
v 0.1 2.2 -0.4
v 0.1 2.3 -0.4
v -0.2 1.6 -0.5
v -0.2 2.2 -0.5
v -0.1 1.5 -0.5
v -0.1 1.6 -0.5
v -0.1 2.2 -0.5
v -0.1 2.3 -0.5
v -0.1 2.4 -0.5
v 5.96046e-08 1.5 -0.5
v 5.96046e-08 1.6 -0.5
v 5.96046e-08 2.2 -0.5
v 5.96046e-08 2.3 -0.5
v 5.96046e-08 2.4 -0.5
v 0.1 1.6 -0.5
v 0.1 2.2 -0.5
v -0.1 1.6 -0.6
v -0.1 2.3 -0.6
v 5.96046e-08 1.6 -0.6
v 5.96046e-08 2.3 -0.6
v -0.5 0 0.2
v -0.2 0 0.2
v 0.1 0 0.2
v 0.4 0 0.2
v -0.5 0 -0.1
v -0.2 0 -0.1
v 0.1 0 -0.1
v 0.4 0 -0.1
v -0.2 0.3 0.2
v 0.1 0.3 0.2
v -0.2 0.3 -0.1
v 0.1 0.3 -0.1
v -0.7 0.7 0.3
v -0.5 0.7 0.3
v 0.4 0.7 0.3
v 0.6 0.7 0.3
v -0.5 0.7 0.2
v 0.4 0.7 0.2
v -0.7 0.7 -0.1
v -0.5 0.7 -0.1
v 0.4 0.7 -0.1
v 0.6 0.7 -0.1
v -0.4 1.3 0.4
v -0.2 1.3 0.4
v 0.1 1.3 0.4
v 0.3 1.3 0.4
v -0.2 1.3 0.3
v 0.1 1.3 0.3
v -0.2 1.3 0.2
v 0.1 1.3 0.2
v -0.2 1.3 -0.1
v 0.1 1.3 -0.1
v -0.4 1.3 -0.3
v 0.3 1.3 -0.3
v -0.1 1.4 -0.3
v 5.96046e-08 1.4 -0.3
v -0.1 1.4 -0.4
v 5.96046e-08 1.4 -0.4
v -0.2 1.5 -0.3
v -0.1 1.5 -0.3
v 5.96046e-08 1.5 -0.3
v 0.1 1.5 -0.3
v -0.2 1.5 -0.4
v -0.1 1.5 -0.4
v 5.96046e-08 1.5 -0.4
v 0.1 1.5 -0.4
v -0.1 1.5 -0.5
v 5.96046e-08 1.5 -0.5
v -0.2 1.6 -0.4
v -0.1 1.6 -0.4
v 5.96046e-08 1.6 -0.4
v 0.1 1.6 -0.4
v -0.2 1.6 -0.5
v -0.1 1.6 -0.5
v 5.96046e-08 1.6 -0.5
v 0.1 1.6 -0.5
v -0.1 1.6 -0.6
v 5.96046e-08 1.6 -0.6
v -0.2 1.8 0.5
v 0.1 1.8 0.5
v -0.2 1.8 0.4
v 0.1 1.8 0.4
v -0.7 0.9 0.3
v -0.5 0.9 0.3
v 0.4 0.9 0.3
v 0.6 0.9 0.3
v -0.7 0.9 0.2
v -0.6 0.9 0.2
v -0.5 0.9 0.2
v 0.4 0.9 0.2
v 0.5 0.9 0.2
v 0.6 0.9 0.2
v -0.7 1 0.2
v -0.6 1 0.2
v 0.5 1 0.2
v 0.6 1 0.2
v -0.7 1 -0.1
v -0.6 1 -0.1
v 0.5 1 -0.1
v 0.6 1 -0.1
v -0.6 1.1 0.2
v -0.5 1.1 0.2
v 0.4 1.1 0.2
v 0.5 1.1 0.2
v -0.6 1.1 -0.1
v -0.5 1.1 -0.1
v 0.4 1.1 -0.1
v 0.5 1.1 -0.1
v -0.5 1.2 0.2
v -0.2 1.2 0.2
v 0.1 1.2 0.2
v 0.4 1.2 0.2
v -0.5 1.2 -0.1
v -0.2 1.2 -0.1
v 0.1 1.2 -0.1
v 0.4 1.2 -0.1
v -0.4 1.9 0.4
v -0.2 1.9 0.4
v 0.1 1.9 0.4
v 0.3 1.9 0.4
v -0.4 1.9 -0.3
v -0.2 1.9 -0.3
v 0.1 1.9 -0.3
v 0.3 1.9 -0.3
v -0.2 2.1 0.5
v -0.1 2.1 0.5
v 5.96046e-08 2.1 0.5
v 0.1 2.1 0.5
v -0.2 2.1 0.4
v -0.1 2.1 0.4
v 5.96046e-08 2.1 0.4
v 0.1 2.1 0.4
v -0.1 2.2 0.5
v 5.96046e-08 2.2 0.5
v -0.2 2.2 0.4
v -0.1 2.2 0.4
v 5.96046e-08 2.2 0.4
v 0.1 2.2 0.4
v -0.2 2.2 0.3
v -0.1 2.2 0.3
v 5.96046e-08 2.2 0.3
v 0.1 2.2 0.3
v -0.2 2.2 -0.4
v -0.1 2.2 -0.4
v 5.96046e-08 2.2 -0.4
v 0.1 2.2 -0.4
v -0.2 2.2 -0.5
v -0.1 2.2 -0.5
v 5.96046e-08 2.2 -0.5
v 0.1 2.2 -0.5
v -0.1 2.3 0.4
v 5.96046e-08 2.3 0.4
v -0.2 2.3 0.3
v -0.1 2.3 0.3
v 5.96046e-08 2.3 0.3
v 0.1 2.3 0.3
v -0.2 2.3 -0.4
v -0.1 2.3 -0.4
v 5.96046e-08 2.3 -0.4
v 0.1 2.3 -0.4
v -0.1 2.3 -0.5
v 5.96046e-08 2.3 -0.5
v -0.1 2.3 -0.6
v 5.96046e-08 2.3 -0.6
v -0.1 2.4 0.3
v 5.96046e-08 2.4 0.3
v -0.1 2.4 -0.5
v 5.96046e-08 2.4 -0.5

# faces
f 3/3/1 2/3/1 1/3/1
f 4/3/1 2/3/1 3/3/1
f 5/3/1 2/3/1 4/3/1
f 6/3/1 2/3/1 5/3/1
f 9/7/1 8/7/1 7/7/1
f 10/7/1 8/7/1 9/7/1
f 13/4/1 12/4/1 11/4/1
f 14/4/1 12/4/1 13/4/1
f 15/7/1 14/7/1 13/7/1
f 16/7/1 14/7/1 15/7/1
f 19/7/1 18/7/1 17/7/1
f 20/7/1 18/7/1 19/7/1
f 23/3/1 22/3/1 21/3/1
f 24/3/1 22/3/1 23/3/1
f 27/3/1 26/3/1 25/3/1
f 28/3/1 26/3/1 27/3/1
f 31/5/1 30/5/1 29/5/1
f 35/5/1 34/5/1 33/5/1
f 36/5/1 31/5/1 29/5/1
f 36/5/1 32/5/1 31/5/1
f 37/5/1 35/5/1 33/5/1
f 37/5/1 36/5/1 35/5/1
f 38/5/1 36/5/1 37/5/1
f 39/5/1 36/5/1 38/5/1
f 40/5/1 36/5/1 39/5/1
f 41/5/1 32/5/1 36/5/1
f 41/5/1 36/5/1 40/5/1
f 42/5/1 32/5/1 41/5/1
f 43/5/1 41/5/1 40/5/1
f 44/5/1 41/5/1 43/5/1
f 47/5/1 46/5/1 45/5/1
f 48/5/1 46/5/1 47/5/1
f 50/5/1 49/5/1 48/5/1
f 51/5/1 49/5/1 50/5/1
f 55/5/1 54/5/1 53/5/1
f 56/5/1 54/5/1 55/5/1
f 59/5/1 52/5/1 51/5/1
f 60/5/1 57/5/1 56/5/1
f 61/5/1 57/5/1 60/5/1
f 62/5/1 59/5/1 58/5/1
f 63/5/1 52/5/1 59/5/1
f 63/5/1 59/5/1 62/5/1
f 64/5/1 52/5/1 63/5/1
f 65/5/1 62/5/1 61/5/1
f 65/5/1 63/5/1 62/5/1
f 66/5/1 63/5/1 65/5/1
f 69/4/1 68/4/1 67/4/1
f 70/4/1 68/4/1 69/4/1
f 73/3/1 72/3/1 71/3/1
f 74/3/1 72/3/1 73/3/1
f 75/3/2 76/3/2 77/3/2
f 77/3/2 76/3/2 78/3/2
f 79/4/2 80/4/2 81/4/2
f 81/4/2 80/4/2 82/4/2
f 83/5/2 84/5/2 85/5/2
f 85/5/2 84/5/2 86/5/2
f 86/5/2 87/5/2 88/5/2
f 88/5/2 87/5/2 89/5/2
f 91/5/2 92/5/2 93/5/2
f 93/5/2 92/5/2 94/5/2
f 89/5/2 90/5/2 97/5/2
f 94/5/2 95/5/2 98/5/2
f 98/5/2 95/5/2 99/5/2
f 96/5/2 97/5/2 100/5/2
f 97/5/2 90/5/2 101/5/2
f 100/5/2 97/5/2 101/5/2
f 101/5/2 90/5/2 102/5/2
f 99/5/2 100/5/2 103/5/2
f 100/5/2 101/5/2 103/5/2
f 103/5/2 101/5/2 104/5/2
f 105/3/2 106/3/2 107/3/2
f 107/3/2 106/3/2 108/3/2
f 109/5/2 110/5/2 111/5/2
f 113/5/2 114/5/2 115/5/2
f 109/5/2 111/5/2 116/5/2
f 111/5/2 112/5/2 116/5/2
f 113/5/2 115/5/2 117/5/2
f 115/5/2 116/5/2 117/5/2
f 117/5/2 116/5/2 118/5/2
f 118/5/2 116/5/2 119/5/2
f 119/5/2 116/5/2 120/5/2
f 116/5/2 112/5/2 121/5/2
f 120/5/2 116/5/2 121/5/2
f 121/5/2 112/5/2 122/5/2
f 120/5/2 121/5/2 123/5/2
f 123/5/2 121/5/2 124/5/2
f 125/3/2 126/3/2 127/3/2
f 127/3/2 126/3/2 128/3/2
f 129/4/2 130/4/2 131/4/2
f 131/4/2 130/4/2 132/4/2
f 131/7/2 132/7/2 133/7/2
f 133/7/2 132/7/2 134/7/2
f 135/7/2 136/7/2 137/7/2
f 137/7/2 136/7/2 138/7/2
f 139/7/2 140/7/2 141/7/2
f 141/7/2 140/7/2 142/7/2
f 143/3/2 144/3/2 145/3/2
f 145/3/2 144/3/2 146/3/2
f 146/3/2 144/3/2 147/3/2
f 147/3/2 144/3/2 148/3/2
f 151/5/3 150/5/3 149/5/3
f 153/5/3 151/5/3 149/5/3
f 153/5/3 152/5/3 151/5/3
f 154/5/3 152/5/3 153/5/3
f 155/5/3 153/5/3 149/5/3
f 156/5/3 153/5/3 155/5/3
f 159/3/3 158/3/3 157/3/3
f 160/3/3 158/3/3 159/3/3
f 161/3/3 159/3/3 157/3/3
f 162/3/3 159/3/3 161/3/3
f 163/5/3 160/5/3 159/5/3
f 163/3/3 159/3/3 162/3/3
f 164/3/3 158/3/3 160/3/3
f 164/5/3 160/5/3 163/5/3
f 165/3/3 158/3/3 164/3/3
f 166/3/3 158/3/3 165/3/3
f 169/3/3 163/3/3 162/3/3
f 169/5/3 162/5/3 161/5/3
f 169/3/3 165/3/3 164/3/3
f 169/3/3 164/3/3 163/3/3
f 170/3/3 165/3/3 169/3/3
f 171/5/3 168/5/3 167/5/3
f 172/5/3 168/5/3 171/5/3
f 174/5/3 169/5/3 161/5/3
f 174/5/3 170/5/3 169/5/3
f 175/3/3 165/3/3 170/3/3
f 175/5/3 170/5/3 174/5/3
f 177/5/3 173/5/3 172/5/3
f 178/5/3 173/5/3 177/5/3
f 179/5/3 174/5/3 161/5/3
f 180/3/3 175/3/3 174/3/3
f 180/5/3 174/5/3 179/5/3
f 181/3/3 165/3/3 175/3/3
f 181/3/3 175/3/3 180/3/3
f 182/3/3 165/3/3 181/3/3
f 183/3/3 165/3/3 182/3/3
f 185/5/3 177/5/3 176/5/3
f 186/5/3 177/5/3 185/5/3
f 187/3/3 180/3/3 179/3/3
f 187/3/3 181/3/3 180/3/3
f 187/5/3 182/5/3 181/5/3
f 188/3/3 184/3/3 183/3/3
f 188/5/3 182/5/3 187/5/3
f 188/3/3 183/3/3 182/3/3
f 189/3/3 187/3/3 179/3/3
f 189/3/3 188/3/3 187/3/3
f 190/3/3 184/3/3 188/3/3
f 190/3/3 188/3/3 189/3/3
f 193/3/3 192/3/3 191/3/3
f 194/3/3 192/3/3 193/3/3
f 197/5/3 196/5/3 195/5/3
f 198/5/3 196/5/3 197/5/3
f 201/5/3 199/5/3 198/5/3
f 202/5/3 199/5/3 201/5/3
f 203/5/3 201/5/3 200/5/3
f 204/5/3 201/5/3 203/5/3
f 207/3/3 206/3/3 205/3/3
f 208/3/3 206/3/3 207/3/3
f 211/3/3 210/3/3 209/3/3
f 212/3/3 210/3/3 211/3/3
f 217/7/3 212/7/3 211/7/3
f 217/7/3 213/7/3 212/7/3
f 218/7/3 213/7/3 217/7/3
f 220/4/3 215/4/3 214/4/3
f 221/4/3 215/4/3 220/4/3
f 222/7/3 216/7/3 215/7/3
f 222/4/3 215/4/3 221/4/3
f 222/7/3 219/7/3 218/7/3
f 222/7/3 217/7/3 216/7/3
f 222/7/3 218/7/3 217/7/3
f 223/7/3 219/7/3 222/7/3
f 224/7/3 219/7/3 223/7/3
f 225/7/3 219/7/3 224/7/3
f 226/7/3 219/7/3 225/7/3
f 228/4/3 222/4/3 221/4/3
f 228/1/3 223/1/3 222/1/3
f 229/7/3 224/7/3 223/7/3
f 229/1/3 223/1/3 228/1/3
f 230/7/3 224/7/3 229/7/3
f 231/6/3 225/6/3 224/6/3
f 231/7/3 224/7/3 230/7/3
f 232/4/3 228/4/3 221/4/3
f 232/2/3 229/2/3 228/2/3
f 233/7/3 230/7/3 229/7/3
f 233/2/3 229/2/3 232/2/3
f 234/6/3 231/6/3 230/6/3
f 234/7/3 230/7/3 233/7/3
f 235/6/3 225/6/3 231/6/3
f 235/6/3 231/6/3 234/6/3
f 237/4/3 232/4/3 221/4/3
f 238/1/3 233/1/3 232/1/3
f 238/4/3 232/4/3 237/4/3
f 239/7/3 234/7/3 233/7/3
f 239/1/3 233/1/3 238/1/3
f 239/7/3 235/7/3 234/7/3
f 240/6/3 225/6/3 235/6/3
f 240/7/3 235/7/3 239/7/3
f 241/7/3 226/7/3 225/7/3
f 241/6/3 225/6/3 240/6/3
f 242/3/3 227/3/3 226/3/3
f 242/7/3 226/7/3 241/7/3
f 243/3/3 227/3/3 242/3/3
f 244/4/3 238/4/3 237/4/3
f 244/4/3 237/4/3 236/4/3
f 245/7/3 241/7/3 240/7/3
f 245/4/3 238/4/3 244/4/3
f 245/7/3 240/7/3 239/7/3
f 245/7/3 239/7/3 238/7/3
f 245/7/3 242/7/3 241/7/3
f 246/7/3 242/7/3 245/7/3
f 247/7/3 242/7/3 246/7/3
f 248/7/3 242/7/3 247/7/3
f 249/7/3 242/7/3 248/7/3
f 250/7/3 248/7/3 247/7/3
f 251/7/3 248/7/3 250/7/3
f 252/7/3 248/7/3 251/7/3
f 253/3/3 251/3/3 250/3/3
f 254/3/3 251/3/3 253/3/3
f 255/3/4 256/3/4 257/3/4
f 257/3/4 256/3/4 258/3/4
f 255/3/4 257/3/4 262/3/4
f 257/7/4 258/7/4 263/7/4
f 258/7/4 259/7/4 263/7/4
f 262/3/4 257/3/4 263/3/4
f 263/7/4 259/7/4 264/7/4
f 260/4/4 261/4/4 266/4/4
f 266/4/4 261/4/4 267/4/4
f 264/7/4 265/7/4 268/7/4
f 261/7/4 262/7/4 268/7/4
f 262/7/4 263/7/4 268/7/4
f 263/7/4 264/7/4 268/7/4
f 268/7/4 265/7/4 269/7/4
f 269/7/4 265/7/4 270/7/4
f 261/7/4 268/7/4 272/7/4
f 268/6/4 269/6/4 273/6/4
f 272/7/4 268/7/4 273/7/4
f 261/7/4 272/7/4 274/7/4
f 272/6/4 273/6/4 274/6/4
f 273/6/4 269/6/4 275/6/4
f 274/6/4 273/6/4 275/6/4
f 267/4/4 261/4/4 277/4/4
f 275/6/4 269/6/4 278/6/4
f 274/7/4 275/7/4 278/7/4
f 269/7/4 270/7/4 279/7/4
f 278/6/4 269/6/4 279/6/4
f 270/3/4 271/3/4 280/3/4
f 279/7/4 270/7/4 280/7/4
f 280/3/4 271/3/4 281/3/4
f 276/4/4 277/4/4 282/4/4
f 278/7/4 279/7/4 283/7/4
f 282/4/4 277/4/4 283/4/4
f 274/7/4 278/7/4 283/7/4
f 279/7/4 280/7/4 283/7/4
f 261/7/4 274/7/4 283/7/4
f 277/4/4 261/4/4 283/4/4
f 283/7/4 280/7/4 284/7/4
f 284/7/4 280/7/4 285/7/4
f 285/7/4 280/7/4 286/7/4
f 286/7/4 280/7/4 287/7/4
f 285/7/4 286/7/4 288/7/4
f 284/3/4 285/3/4 288/3/4
f 288/7/4 286/7/4 289/7/4
f 289/7/4 286/7/4 290/7/4
f 284/3/4 288/3/4 291/3/4
f 288/3/4 289/3/4 291/3/4
f 291/3/4 289/3/4 292/3/4
f 293/3/4 294/3/4 295/3/4
f 295/3/4 294/3/4 296/3/4
f 293/3/4 295/3/4 297/3/4
f 297/3/4 295/3/4 298/3/4
f 293/3/4 297/3/4 299/3/4
f 299/3/4 300/3/4 301/3/4
f 299/3/4 301/3/4 303/3/4
f 301/3/4 302/3/4 303/3/4
f 293/3/4 299/3/4 303/3/4
f 303/3/4 302/3/4 304/3/4
f 305/5/4 306/5/4 310/5/4
f 310/5/4 306/5/4 311/5/4
f 307/5/4 308/5/4 312/5/4
f 312/5/4 308/5/4 313/5/4
f 309/5/4 310/5/4 314/5/4
f 314/5/4 310/5/4 315/5/4
f 315/5/4 316/5/4 319/5/4
f 319/5/4 316/5/4 320/5/4
f 317/5/4 318/5/4 321/5/4
f 321/5/4 318/5/4 322/5/4
f 323/5/4 324/5/4 326/5/4
f 326/5/4 324/5/4 327/5/4
f 325/5/4 326/5/4 330/5/4
f 330/5/4 326/5/4 331/5/4
f 328/5/4 329/5/4 333/5/4
f 333/5/4 329/5/4 334/5/4
f 331/5/4 332/5/4 335/5/4
f 335/5/4 332/5/4 336/5/4
f 337/5/4 338/5/4 339/5/4
f 339/5/4 338/5/4 340/5/4
f 345/4/5 342/4/5 341/4/5
f 346/4/5 342/4/5 345/4/5
f 347/4/5 344/4/5 343/4/5
f 348/4/5 344/4/5 347/4/5
f 351/4/5 350/4/5 349/4/5
f 352/4/5 350/4/5 351/4/5
f 357/3/5 354/3/5 353/3/5
f 358/3/5 356/3/5 355/3/5
f 359/3/5 357/3/5 353/3/5
f 360/3/5 357/3/5 359/3/5
f 361/3/5 356/3/5 358/3/5
f 362/3/5 356/3/5 361/3/5
f 367/3/5 364/3/5 363/3/5
f 367/5/5 365/5/5 364/5/5
f 368/3/5 366/3/5 365/3/5
f 368/5/5 365/5/5 367/5/5
f 369/3/5 367/3/5 363/3/5
f 369/3/5 368/3/5 367/3/5
f 370/3/5 366/3/5 368/3/5
f 370/3/5 368/3/5 369/3/5
f 371/3/5 369/3/5 363/3/5
f 372/3/5 366/3/5 370/3/5
f 373/3/5 371/3/5 363/3/5
f 373/3/5 372/3/5 371/3/5
f 374/3/5 366/3/5 372/3/5
f 374/3/5 372/3/5 373/3/5
f 377/5/5 376/5/5 375/5/5
f 378/5/5 376/5/5 377/5/5
f 383/5/5 380/5/5 379/5/5
f 384/5/5 380/5/5 383/5/5
f 385/5/5 382/5/5 381/5/5
f 386/5/5 382/5/5 385/5/5
f 387/5/5 385/5/5 384/5/5
f 388/5/5 385/5/5 387/5/5
f 393/5/5 390/5/5 389/5/5
f 394/5/5 390/5/5 393/5/5
f 395/5/5 392/5/5 391/5/5
f 396/5/5 392/5/5 395/5/5
f 397/5/5 395/5/5 394/5/5
f 398/5/5 395/5/5 397/5/5
f 401/5/5 400/5/5 399/5/5
f 402/5/5 400/5/5 401/5/5
f 403/3/6 404/3/6 407/3/6
f 407/3/6 404/3/6 408/3/6
f 408/3/6 404/3/6 409/3/6
f 405/3/6 406/3/6 410/3/6
f 410/3/6 406/3/6 411/3/6
f 411/3/6 406/3/6 412/3/6
f 413/3/6 414/3/6 417/3/6
f 417/3/6 414/3/6 418/3/6
f 415/3/6 416/3/6 419/3/6
f 419/3/6 416/3/6 420/3/6
f 421/7/6 422/7/6 425/7/6
f 425/7/6 422/7/6 426/7/6
f 423/7/6 424/7/6 427/7/6
f 427/7/6 424/7/6 428/7/6
f 429/7/6 430/7/6 433/7/6
f 433/7/6 430/7/6 434/7/6
f 431/7/6 432/7/6 435/7/6
f 435/7/6 432/7/6 436/7/6
f 437/3/6 438/3/6 441/3/6
f 441/3/6 438/3/6 442/3/6
f 439/3/6 440/3/6 443/3/6
f 443/3/6 440/3/6 444/3/6
f 445/5/6 446/5/6 449/5/6
f 449/5/6 446/5/6 450/5/6
f 447/5/6 448/5/6 451/5/6
f 451/5/6 448/5/6 452/5/6
f 453/5/6 454/5/6 456/5/6
f 456/5/6 454/5/6 457/5/6
f 455/5/6 456/5/6 459/5/6
f 459/5/6 456/5/6 460/5/6
f 457/5/6 458/5/6 461/5/6
f 461/5/6 458/5/6 462/5/6
f 463/5/6 464/5/6 467/5/6
f 467/5/6 464/5/6 468/5/6
f 465/5/6 466/5/6 469/5/6
f 469/5/6 466/5/6 470/5/6
f 471/5/6 472/5/6 474/5/6
f 474/5/6 472/5/6 475/5/6
f 473/5/6 474/5/6 477/5/6
f 477/5/6 474/5/6 478/5/6
f 475/5/6 476/5/6 479/5/6
f 479/5/6 476/5/6 480/5/6
f 481/5/6 482/5/6 483/5/6
f 483/5/6 482/5/6 484/5/6
f 485/5/6 486/5/6 487/5/6
f 487/5/6 486/5/6 488/5/6
