# MagicaVoxel @ Ephtracy

# group
o 

# material
mtllib Drobovik.mtl
usemtl palette

# normals
vn -1 0 0
vn 1 0 0
vn 0 0 1
vn 0 0 -1
vn 0 -1 0
vn 0 1 0

# texcoords
vt 0.337891 0.5
vt 0.369141 0.5
vt 0.373047 0.5
vt 0.958984 0.5
vt 0.966797 0.5
vt 0.994141 0.5

# verts
v -0.3 1.5 -2.4
v -0.3 1.5 -2.6
v -0.3 1.6 -2.3
v -0.3 1.6 -2.4
v -0.3 1.6 -2.6
v -0.3 1.6 -2.7
v -0.3 1.7 -2.2
v -0.3 1.7 -2.3
v -0.3 1.8 -2.1
v -0.3 1.8 -2.2
v -0.3 1.9 1.8
v -0.3 1.9 0.5
v -0.3 1.9 -0.8
v -0.3 1.9 -2.1
v -0.3 2 1.7
v -0.3 2 1
v -0.3 2.1 1.7
v -0.3 2.1 1
v -0.3 2.1 0.6
v -0.3 2.2 1
v -0.3 2.2 0.6
v -0.3 2.2 -1
v -0.3 2.2 -1.7
v -0.3 2.2 -2.6
v -0.3 2.2 -2.7
v -0.3 2.3 1.8
v -0.3 2.3 0.5
v -0.3 2.3 -2.5
v -0.3 2.3 -2.6
v -0.3 2.4 -1
v -0.3 2.4 -1.7
v -0.3 2.4 -2.3
v -0.3 2.4 -2.5
v -0.3 2.5 -0.8
v -0.3 2.5 -2.3
v -0.2 2 2.1
v -0.2 2 1.8
v -0.2 2 0.5
v -0.2 2 -0.8
v -0.2 2.2 -1
v -0.2 2.2 -1.7
v -0.2 2.3 1.8
v -0.2 2.3 0.5
v -0.2 2.4 2.1
v -0.2 2.4 -0.8
v -0.2 2.4 -1
v -0.2 2.4 -1.7
v -0.2 2.5 -0.9
v -0.2 2.5 -1
v -0.2 2.7 -0.9
v -0.2 2.7 -1
v -0.0999996 1.6 -1.3
v -0.0999996 1.6 -1.5
v -0.0999996 1.7 -1.3
v -0.0999996 1.7 -1.4
v -0.0999996 1.7 -1.5
v -0.0999996 1.7 -1.6
v -0.0999996 1.8 -1.4
v -0.0999996 1.8 -1.5
v -0.0999996 1.9 2.1
v -0.0999996 1.9 1.8
v -0.0999996 1.9 0.5
v -0.0999996 1.9 -0.8
v -0.0999996 1.9 -1.5
v -0.0999996 1.9 -1.6
v -0.0999996 2 2.1
v -0.0999996 2 1.8
v -0.0999996 2 0.5
v -0.0999996 2 -0.8
v -0.0999996 2.4 2.1
v -0.0999996 2.4 -0.8
v -0.0999996 2.5 2.1
v -0.0999996 2.5 -0.8
v 0.1 2.6 -0.9
v 0.1 2.6 -1
v 0.1 2.7 -0.9
v 0.1 2.7 -1
v -0.0999996 2.6 -0.9
v -0.0999996 2.6 -1
v -0.0999996 2.7 -0.9
v -0.0999996 2.7 -1
v 0.1 1.6 -1.3
v 0.1 1.6 -1.5
v 0.1 1.7 -1.3
v 0.1 1.7 -1.4
v 0.1 1.7 -1.5
v 0.1 1.7 -1.6
v 0.1 1.8 -1.4
v 0.1 1.8 -1.5
v 0.1 1.9 2.1
v 0.1 1.9 1.8
v 0.1 1.9 0.5
v 0.1 1.9 -0.8
v 0.1 1.9 -1.5
v 0.1 1.9 -1.6
v 0.1 2 2.1
v 0.1 2 1.8
v 0.1 2 0.5
v 0.1 2 -0.8
v 0.1 2.4 2.1
v 0.1 2.4 -0.8
v 0.1 2.5 2.1
v 0.1 2.5 -0.8
v 0.2 2 2.1
v 0.2 2 1.8
v 0.2 2 0.5
v 0.2 2 -0.8
v 0.2 2.2 -1
v 0.2 2.2 -1.7
v 0.2 2.3 1.8
v 0.2 2.3 0.5
v 0.2 2.4 2.1
v 0.2 2.4 -0.8
v 0.2 2.4 -1
v 0.2 2.4 -1.7
v 0.2 2.5 -0.9
v 0.2 2.5 -1
v 0.2 2.7 -0.9
v 0.2 2.7 -1
v 0.3 1.5 -2.4
v 0.3 1.5 -2.6
v 0.3 1.6 -2.3
v 0.3 1.6 -2.4
v 0.3 1.6 -2.6
v 0.3 1.6 -2.7
v 0.3 1.7 -2.2
v 0.3 1.7 -2.3
v 0.3 1.8 -2.1
v 0.3 1.8 -2.2
v 0.3 1.9 1.8
v 0.3 1.9 0.5
v 0.3 1.9 -0.8
v 0.3 1.9 -2.1
v 0.3 2 1.7
v 0.3 2 1
v 0.3 2.1 1.7
v 0.3 2.1 1
v 0.3 2.1 0.6
v 0.3 2.2 1
v 0.3 2.2 0.6
v 0.3 2.2 -1
v 0.3 2.2 -1.7
v 0.3 2.2 -2.6
v 0.3 2.2 -2.7
v 0.3 2.3 1.8
v 0.3 2.3 0.5
v 0.3 2.3 -2.5
v 0.3 2.3 -2.6
v 0.3 2.4 -1
v 0.3 2.4 -1.7
v 0.3 2.4 -2.3
v 0.3 2.4 -2.5
v 0.3 2.5 -0.8
v 0.3 2.5 -2.3
v -0.2 2 2.1
v -0.2 2.4 2.1
v -0.0999996 1.9 2.1
v -0.0999996 2 2.1
v -0.0999996 2.1 2.1
v -0.0999996 2.3 2.1
v -0.0999996 2.4 2.1
v -0.0999996 2.5 2.1
v 0.1 1.9 2.1
v 0.1 2 2.1
v 0.1 2.1 2.1
v 0.1 2.3 2.1
v 0.1 2.4 2.1
v 0.1 2.5 2.1
v 0.2 2 2.1
v 0.2 2.4 2.1
v -0.3 1.9 1.8
v -0.3 2.3 1.8
v -0.2 2 1.8
v -0.2 2.3 1.8
v -0.0999996 1.9 1.8
v -0.0999996 2 1.8
v 0.1 1.9 1.8
v 0.1 2 1.8
v 0.2 2 1.8
v 0.2 2.3 1.8
v 0.3 1.9 1.8
v 0.3 2.3 1.8
v -0.3 1.9 -0.8
v -0.3 2.5 -0.8
v -0.2 2 -0.8
v -0.2 2.4 -0.8
v -0.0999996 1.9 -0.8
v -0.0999996 2 -0.8
v -0.0999996 2.4 -0.8
v -0.0999996 2.5 -0.8
v 0.1 1.9 -0.8
v 0.1 2 -0.8
v 0.1 2.4 -0.8
v 0.1 2.5 -0.8
v 0.2 2 -0.8
v 0.2 2.4 -0.8
v 0.3 1.9 -0.8
v 0.3 2.5 -0.8
v -0.2 2.5 -0.9
v -0.2 2.7 -0.9
v -0.0999996 2.6 -0.9
v -0.0999996 2.7 -0.9
v 0.1 2.6 -0.9
v 0.1 2.7 -0.9
v 0.2 2.5 -0.9
v 0.2 2.7 -0.9
v -0.0999996 1.6 -1.3
v -0.0999996 1.7 -1.3
v 0.1 1.6 -1.3
v 0.1 1.7 -1.3
v -0.0999996 1.7 -1.4
v -0.0999996 1.8 -1.4
v 0.1 1.7 -1.4
v 0.1 1.8 -1.4
v -0.0999996 1.8 -1.5
v -0.0999996 1.9 -1.5
v 0.1 1.8 -1.5
v 0.1 1.9 -1.5
v -0.3 2.2 -1.7
v -0.3 2.4 -1.7
v -0.2 2.2 -1.7
v -0.2 2.4 -1.7
v 0.2 2.2 -1.7
v 0.2 2.4 -1.7
v 0.3 2.2 -1.7
v 0.3 2.4 -1.7
v -0.3 1.8 -2.1
v -0.3 1.9 -2.1
v 0.3 1.8 -2.1
v 0.3 1.9 -2.1
v -0.3 1.7 -2.2
v -0.3 1.8 -2.2
v 0.3 1.7 -2.2
v 0.3 1.8 -2.2
v -0.3 1.6 -2.3
v -0.3 1.7 -2.3
v 0.3 1.6 -2.3
v 0.3 1.7 -2.3
v -0.3 1.5 -2.4
v -0.3 1.6 -2.4
v 0.3 1.5 -2.4
v 0.3 1.6 -2.4
v -0.3 1.9 0.5
v -0.3 2.3 0.5
v -0.2 2 0.5
v -0.2 2.3 0.5
v -0.0999996 1.9 0.5
v -0.0999996 2 0.5
v 0.1 1.9 0.5
v 0.1 2 0.5
v 0.2 2 0.5
v 0.2 2.3 0.5
v 0.3 1.9 0.5
v 0.3 2.3 0.5
v -0.3 2.2 -1
v -0.3 2.4 -1
v -0.2 2.2 -1
v -0.2 2.4 -1
v -0.2 2.5 -1
v -0.2 2.7 -1
v -0.0999996 2.6 -1
v -0.0999996 2.7 -1
v 0.1 2.6 -1
v 0.1 2.7 -1
v 0.2 2.2 -1
v 0.2 2.4 -1
v 0.2 2.5 -1
v 0.2 2.7 -1
v 0.3 2.2 -1
v 0.3 2.4 -1
v -0.0999996 1.6 -1.5
v -0.0999996 1.7 -1.5
v 0.1 1.6 -1.5
v 0.1 1.7 -1.5
v -0.0999996 1.7 -1.6
v -0.0999996 1.9 -1.6
v 0.1 1.7 -1.6
v 0.1 1.9 -1.6
v -0.3 2.4 -2.3
v -0.3 2.5 -2.3
v 0.3 2.4 -2.3
v 0.3 2.5 -2.3
v -0.3 2.3 -2.5
v -0.3 2.4 -2.5
v 0.3 2.3 -2.5
v 0.3 2.4 -2.5
v -0.3 1.5 -2.6
v -0.3 1.6 -2.6
v -0.3 2.2 -2.6
v -0.3 2.3 -2.6
v 0.3 1.5 -2.6
v 0.3 1.6 -2.6
v 0.3 2.2 -2.6
v 0.3 2.3 -2.6
v -0.3 1.6 -2.7
v -0.3 2.2 -2.7
v 0.3 1.6 -2.7
v 0.3 2.2 -2.7
v -0.3 1.5 -2.4
v 0.3 1.5 -2.4
v -0.3 1.5 -2.6
v 0.3 1.5 -2.6
v -0.0999996 1.6 -1.3
v 0.1 1.6 -1.3
v -0.0999996 1.6 -1.5
v 0.1 1.6 -1.5
v -0.3 1.6 -2.3
v 0.3 1.6 -2.3
v -0.3 1.6 -2.4
v 0.3 1.6 -2.4
v -0.3 1.6 -2.6
v 0.3 1.6 -2.6
v -0.3 1.6 -2.7
v 0.3 1.6 -2.7
v -0.0999996 1.7 -1.5
v 0.1 1.7 -1.5
v -0.0999996 1.7 -1.6
v 0.1 1.7 -1.6
v -0.3 1.7 -2.2
v 0.3 1.7 -2.2
v -0.3 1.7 -2.3
v 0.3 1.7 -2.3
v -0.3 1.8 -2.1
v 0.3 1.8 -2.1
v -0.3 1.8 -2.2
v 0.3 1.8 -2.2
v -0.0999996 1.9 2.1
v 0.1 1.9 2.1
v -0.3 1.9 1.8
v -0.0999996 1.9 1.8
v 0.1 1.9 1.8
v 0.3 1.9 1.8
v -0.2 1.9 1.7
v -0.0999996 1.9 1.7
v 0.1 1.9 1.7
v 0.2 1.9 1.7
v -0.2 1.9 0.7
v -0.0999996 1.9 0.7
v 0.1 1.9 0.7
v 0.2 1.9 0.7
v -0.3 1.9 0.5
v -0.0999996 1.9 0.5
v 0.1 1.9 0.5
v 0.3 1.9 0.5
v -0.3 1.9 -0.8
v -0.0999996 1.9 -0.8
v 0.1 1.9 -0.8
v 0.3 1.9 -0.8
v -0.0999996 1.9 -1.5
v 0.1 1.9 -1.5
v -0.0999996 1.9 -1.6
v 0.1 1.9 -1.6
v -0.3 1.9 -2.1
v 0.3 1.9 -2.1
v -0.2 2 2.1
v -0.0999996 2 2.1
v 0.1 2 2.1
v 0.2 2 2.1
v -0.2 2 1.8
v -0.0999996 2 1.8
v 0.1 2 1.8
v 0.2 2 1.8
v -0.2 2 0.5
v -0.0999996 2 0.5
v 0.1 2 0.5
v 0.2 2 0.5
v -0.2 2 -0.8
v -0.0999996 2 -0.8
v 0.1 2 -0.8
v 0.2 2 -0.8
v -0.3 2.4 -1
v -0.2 2.4 -1
v 0.2 2.4 -1
v 0.3 2.4 -1
v -0.3 2.4 -1.7
v -0.2 2.4 -1.7
v 0.2 2.4 -1.7
v 0.3 2.4 -1.7
v -0.0999996 1.7 -1.3
v 0.1 1.7 -1.3
v -0.0999996 1.7 -1.4
v 0.1 1.7 -1.4
v -0.0999996 1.8 -1.4
v 0.1 1.8 -1.4
v -0.0999996 1.8 -1.5
v 0.1 1.8 -1.5
v -0.3 2.2 -1
v -0.2 2.2 -1
v 0.2 2.2 -1
v 0.3 2.2 -1
v -0.3 2.2 -1.7
v -0.2 2.2 -1.7
v 0.2 2.2 -1.7
v 0.3 2.2 -1.7
v -0.3 2.2 -2.6
v 0.3 2.2 -2.6
v -0.3 2.2 -2.7
v 0.3 2.2 -2.7
v -0.3 2.3 1.8
v -0.2 2.3 1.8
v 0.2 2.3 1.8
v 0.3 2.3 1.8
v -0.3 2.3 0.5
v -0.2 2.3 0.5
v 0.2 2.3 0.5
v 0.3 2.3 0.5
v -0.3 2.3 -2.5
v 0.3 2.3 -2.5
v -0.3 2.3 -2.6
v 0.3 2.3 -2.6
v -0.2 2.4 2.1
v -0.0999996 2.4 2.1
v 0.1 2.4 2.1
v 0.2 2.4 2.1
v -0.2 2.4 -0.8
v -0.0999996 2.4 -0.8
v 0.1 2.4 -0.8
v 0.2 2.4 -0.8
v -0.3 2.4 -2.3
v 0.3 2.4 -2.3
v -0.3 2.4 -2.5
v 0.3 2.4 -2.5
v -0.0999996 2.5 2.1
v 0.1 2.5 2.1
v -0.3 2.5 -0.8
v -0.0999996 2.5 -0.8
v 0.1 2.5 -0.8
v 0.3 2.5 -0.8
v -0.2 2.5 -0.9
v 0.2 2.5 -0.9
v -0.2 2.5 -1
v 0.2 2.5 -1
v -0.3 2.5 -2.3
v 0.3 2.5 -2.3
v -0.0999996 2.6 -0.9
v 0.1 2.6 -0.9
v -0.0999996 2.6 -1
v 0.1 2.6 -1
v -0.2 2.7 -0.9
v -0.0999996 2.7 -0.9
v 0.1 2.7 -0.9
v 0.2 2.7 -0.9
v -0.2 2.7 -1
v -0.0999996 2.7 -1
v 0.1 2.7 -1
v 0.2 2.7 -1

# faces
f 4/1/1 2/1/1 1/1/1
f 5/1/1 2/1/1 4/1/1
f 8/1/1 4/1/1 3/1/1
f 8/1/1 6/1/1 5/1/1
f 8/1/1 5/1/1 4/1/1
f 10/1/1 8/1/1 7/1/1
f 14/1/1 10/1/1 9/1/1
f 15/3/1 12/3/1 11/3/1
f 16/3/1 12/3/1 15/3/1
f 17/3/1 15/3/1 11/3/1
f 17/2/1 16/2/1 15/2/1
f 18/3/1 12/3/1 16/3/1
f 18/2/1 16/2/1 17/2/1
f 19/3/1 12/3/1 18/3/1
f 20/3/1 18/3/1 17/3/1
f 20/2/1 19/2/1 18/2/1
f 21/3/1 12/3/1 19/3/1
f 21/2/1 19/2/1 20/2/1
f 22/1/1 14/1/1 13/1/1
f 23/1/1 14/1/1 22/1/1
f 24/1/1 6/1/1 8/1/1
f 24/1/1 14/1/1 23/1/1
f 24/1/1 8/1/1 10/1/1
f 24/1/1 10/1/1 14/1/1
f 25/1/1 6/1/1 24/1/1
f 26/3/1 21/3/1 20/3/1
f 26/3/1 17/3/1 11/3/1
f 26/3/1 20/3/1 17/3/1
f 27/3/1 12/3/1 21/3/1
f 27/3/1 21/3/1 26/3/1
f 28/1/1 24/1/1 23/1/1
f 29/1/1 24/1/1 28/1/1
f 30/1/1 22/1/1 13/1/1
f 31/1/1 28/1/1 23/1/1
f 32/1/1 28/1/1 31/1/1
f 33/1/1 28/1/1 32/1/1
f 34/1/1 30/1/1 13/1/1
f 34/1/1 31/1/1 30/1/1
f 34/1/1 32/1/1 31/1/1
f 35/1/1 32/1/1 34/1/1
f 42/5/1 37/5/1 36/5/1
f 43/5/1 39/5/1 38/5/1
f 44/5/1 42/5/1 36/5/1
f 44/5/1 43/5/1 42/5/1
f 45/5/1 39/5/1 43/5/1
f 45/5/1 43/5/1 44/5/1
f 46/4/1 41/4/1 40/4/1
f 47/4/1 41/4/1 46/4/1
f 50/5/1 49/5/1 48/5/1
f 51/5/1 49/5/1 50/5/1
f 54/5/1 53/5/1 52/5/1
f 55/5/1 53/5/1 54/5/1
f 56/5/1 53/5/1 55/5/1
f 58/5/1 57/5/1 56/5/1
f 58/5/1 56/5/1 55/5/1
f 59/5/1 57/5/1 58/5/1
f 64/5/1 57/5/1 59/5/1
f 65/5/1 57/5/1 64/5/1
f 66/5/1 61/5/1 60/5/1
f 67/5/1 61/5/1 66/5/1
f 68/5/1 63/5/1 62/5/1
f 69/5/1 63/5/1 68/5/1
f 72/5/1 71/5/1 70/5/1
f 73/5/1 71/5/1 72/5/1
f 76/5/1 75/5/1 74/5/1
f 77/5/1 75/5/1 76/5/1
f 78/5/2 79/5/2 80/5/2
f 80/5/2 79/5/2 81/5/2
f 82/5/2 83/5/2 84/5/2
f 84/5/2 83/5/2 85/5/2
f 85/5/2 83/5/2 86/5/2
f 86/5/2 87/5/2 88/5/2
f 85/5/2 86/5/2 88/5/2
f 88/5/2 87/5/2 89/5/2
f 89/5/2 87/5/2 94/5/2
f 94/5/2 87/5/2 95/5/2
f 90/5/2 91/5/2 96/5/2
f 96/5/2 91/5/2 97/5/2
f 92/5/2 93/5/2 98/5/2
f 98/5/2 93/5/2 99/5/2
f 100/5/2 101/5/2 102/5/2
f 102/5/2 101/5/2 103/5/2
f 104/5/2 105/5/2 110/5/2
f 106/5/2 107/5/2 111/5/2
f 104/5/2 110/5/2 112/5/2
f 110/5/2 111/5/2 112/5/2
f 111/5/2 107/5/2 113/5/2
f 112/5/2 111/5/2 113/5/2
f 108/4/2 109/4/2 114/4/2
f 114/4/2 109/4/2 115/4/2
f 116/5/2 117/5/2 118/5/2
f 118/5/2 117/5/2 119/5/2
f 120/1/2 121/1/2 123/1/2
f 123/1/2 121/1/2 124/1/2
f 122/1/2 123/1/2 127/1/2
f 124/1/2 125/1/2 127/1/2
f 123/1/2 124/1/2 127/1/2
f 126/1/2 127/1/2 129/1/2
f 128/1/2 129/1/2 133/1/2
f 130/3/2 131/3/2 134/3/2
f 134/3/2 131/3/2 135/3/2
f 130/3/2 134/3/2 136/3/2
f 134/2/2 135/2/2 136/2/2
f 135/3/2 131/3/2 137/3/2
f 136/2/2 135/2/2 137/2/2
f 137/3/2 131/3/2 138/3/2
f 136/3/2 137/3/2 139/3/2
f 137/2/2 138/2/2 139/2/2
f 138/3/2 131/3/2 140/3/2
f 139/2/2 138/2/2 140/2/2
f 132/1/2 133/1/2 141/1/2
f 141/1/2 133/1/2 142/1/2
f 127/1/2 125/1/2 143/1/2
f 142/1/2 133/1/2 143/1/2
f 129/1/2 127/1/2 143/1/2
f 133/1/2 129/1/2 143/1/2
f 143/1/2 125/1/2 144/1/2
f 139/3/2 140/3/2 145/3/2
f 130/3/2 136/3/2 145/3/2
f 136/3/2 139/3/2 145/3/2
f 140/3/2 131/3/2 146/3/2
f 145/3/2 140/3/2 146/3/2
f 142/1/2 143/1/2 147/1/2
f 147/1/2 143/1/2 148/1/2
f 132/1/2 141/1/2 149/1/2
f 142/1/2 147/1/2 150/1/2
f 150/1/2 147/1/2 151/1/2
f 151/1/2 147/1/2 152/1/2
f 132/1/2 149/1/2 153/1/2
f 149/1/2 150/1/2 153/1/2
f 150/1/2 151/1/2 153/1/2
f 153/1/2 151/1/2 154/1/2
f 158/5/3 156/5/3 155/5/3
f 159/5/3 156/5/3 158/5/3
f 160/5/3 156/5/3 159/5/3
f 161/5/3 156/5/3 160/5/3
f 163/5/3 158/5/3 157/5/3
f 163/5/3 159/5/3 158/5/3
f 164/5/3 159/5/3 163/5/3
f 165/6/3 160/6/3 159/6/3
f 165/5/3 159/5/3 164/5/3
f 166/5/3 162/5/3 161/5/3
f 166/6/3 160/6/3 165/6/3
f 166/5/3 161/5/3 160/5/3
f 167/5/3 162/5/3 166/5/3
f 168/5/3 162/5/3 167/5/3
f 169/5/3 165/5/3 164/5/3
f 169/5/3 167/5/3 166/5/3
f 169/5/3 166/5/3 165/5/3
f 170/5/3 167/5/3 169/5/3
f 173/3/3 172/3/3 171/3/3
f 174/3/3 172/3/3 173/3/3
f 175/3/3 173/3/3 171/3/3
f 176/3/3 173/3/3 175/3/3
f 179/3/3 178/3/3 177/3/3
f 181/3/3 179/3/3 177/3/3
f 181/3/3 180/3/3 179/3/3
f 182/3/3 180/3/3 181/3/3
f 185/1/3 184/1/3 183/1/3
f 186/1/3 184/1/3 185/1/3
f 187/1/3 185/1/3 183/1/3
f 188/1/3 185/1/3 187/1/3
f 189/1/3 184/1/3 186/1/3
f 190/1/3 184/1/3 189/1/3
f 195/1/3 192/1/3 191/1/3
f 196/1/3 194/1/3 193/1/3
f 197/1/3 195/1/3 191/1/3
f 197/1/3 196/1/3 195/1/3
f 198/1/3 194/1/3 196/1/3
f 198/1/3 196/1/3 197/1/3
f 201/5/3 200/5/3 199/5/3
f 202/5/3 200/5/3 201/5/3
f 203/5/3 201/5/3 199/5/3
f 205/5/3 203/5/3 199/5/3
f 205/5/3 204/5/3 203/5/3
f 206/5/3 204/5/3 205/5/3
f 209/5/3 208/5/3 207/5/3
f 210/5/3 208/5/3 209/5/3
f 213/5/3 212/5/3 211/5/3
f 214/5/3 212/5/3 213/5/3
f 217/5/3 216/5/3 215/5/3
f 218/5/3 216/5/3 217/5/3
f 221/1/3 220/1/3 219/1/3
f 222/1/3 220/1/3 221/1/3
f 225/1/3 224/1/3 223/1/3
f 226/1/3 224/1/3 225/1/3
f 229/1/3 228/1/3 227/1/3
f 230/1/3 228/1/3 229/1/3
f 233/1/3 232/1/3 231/1/3
f 234/1/3 232/1/3 233/1/3
f 237/1/3 236/1/3 235/1/3
f 238/1/3 236/1/3 237/1/3
f 241/1/3 240/1/3 239/1/3
f 242/1/3 240/1/3 241/1/3
f 243/3/4 244/3/4 245/3/4
f 245/3/4 244/3/4 246/3/4
f 243/3/4 245/3/4 247/3/4
f 247/3/4 245/3/4 248/3/4
f 249/3/4 250/3/4 251/3/4
f 249/3/4 251/3/4 253/3/4
f 251/3/4 252/3/4 253/3/4
f 253/3/4 252/3/4 254/3/4
f 255/1/4 256/1/4 257/1/4
f 257/1/4 256/1/4 258/1/4
f 259/5/4 260/5/4 261/5/4
f 261/5/4 260/5/4 262/5/4
f 259/5/4 261/5/4 263/5/4
f 259/5/4 263/5/4 267/5/4
f 263/5/4 264/5/4 267/5/4
f 267/5/4 264/5/4 268/5/4
f 265/1/4 266/1/4 269/1/4
f 269/1/4 266/1/4 270/1/4
f 271/5/4 272/5/4 273/5/4
f 273/5/4 272/5/4 274/5/4
f 275/5/4 276/5/4 277/5/4
f 277/5/4 276/5/4 278/5/4
f 279/1/4 280/1/4 281/1/4
f 281/1/4 280/1/4 282/1/4
f 283/1/4 284/1/4 285/1/4
f 285/1/4 284/1/4 286/1/4
f 287/1/4 288/1/4 291/1/4
f 291/1/4 288/1/4 292/1/4
f 289/1/4 290/1/4 293/1/4
f 293/1/4 290/1/4 294/1/4
f 295/1/4 296/1/4 297/1/4
f 297/1/4 296/1/4 298/1/4
f 301/1/5 300/1/5 299/1/5
f 302/1/5 300/1/5 301/1/5
f 305/5/5 304/5/5 303/5/5
f 306/5/5 304/5/5 305/5/5
f 309/1/5 308/1/5 307/1/5
f 310/1/5 308/1/5 309/1/5
f 313/1/5 312/1/5 311/1/5
f 314/1/5 312/1/5 313/1/5
f 317/5/5 316/5/5 315/5/5
f 318/5/5 316/5/5 317/5/5
f 321/1/5 320/1/5 319/1/5
f 322/1/5 320/1/5 321/1/5
f 325/1/5 324/1/5 323/1/5
f 326/1/5 324/1/5 325/1/5
f 330/5/5 328/5/5 327/5/5
f 331/5/5 328/5/5 330/5/5
f 333/3/5 330/3/5 329/3/5
f 333/3/5 332/3/5 331/3/5
f 333/3/5 331/3/5 330/3/5
f 334/3/5 332/3/5 333/3/5
f 335/3/5 332/3/5 334/3/5
f 336/3/5 332/3/5 335/3/5
f 337/3/5 333/3/5 329/3/5
f 337/2/5 334/2/5 333/2/5
f 338/3/5 335/3/5 334/3/5
f 338/2/5 334/2/5 337/2/5
f 339/2/5 336/2/5 335/2/5
f 339/3/5 335/3/5 338/3/5
f 340/3/5 332/3/5 336/3/5
f 340/2/5 336/2/5 339/2/5
f 341/3/5 339/3/5 338/3/5
f 341/3/5 338/3/5 337/3/5
f 341/3/5 340/3/5 339/3/5
f 341/3/5 337/3/5 329/3/5
f 342/3/5 340/3/5 341/3/5
f 343/3/5 340/3/5 342/3/5
f 344/3/5 332/3/5 340/3/5
f 344/3/5 340/3/5 343/3/5
f 346/5/5 343/5/5 342/5/5
f 347/5/5 343/5/5 346/5/5
f 349/1/5 346/1/5 345/1/5
f 349/1/5 348/1/5 347/1/5
f 349/1/5 347/1/5 346/1/5
f 350/1/5 348/1/5 349/1/5
f 351/1/5 349/1/5 345/1/5
f 352/1/5 348/1/5 350/1/5
f 353/1/5 351/1/5 345/1/5
f 353/1/5 352/1/5 351/1/5
f 354/1/5 348/1/5 352/1/5
f 354/1/5 352/1/5 353/1/5
f 359/5/5 356/5/5 355/5/5
f 360/5/5 356/5/5 359/5/5
f 361/5/5 358/5/5 357/5/5
f 362/5/5 358/5/5 361/5/5
f 367/5/5 364/5/5 363/5/5
f 368/5/5 364/5/5 367/5/5
f 369/5/5 366/5/5 365/5/5
f 370/5/5 366/5/5 369/5/5
f 375/1/5 372/1/5 371/1/5
f 376/1/5 372/1/5 375/1/5
f 377/1/5 374/1/5 373/1/5
f 378/1/5 374/1/5 377/1/5
f 379/5/6 380/5/6 381/5/6
f 381/5/6 380/5/6 382/5/6
f 383/5/6 384/5/6 385/5/6
f 385/5/6 384/5/6 386/5/6
f 387/1/6 388/1/6 391/1/6
f 391/1/6 388/1/6 392/1/6
f 389/1/6 390/1/6 393/1/6
f 393/1/6 390/1/6 394/1/6
f 395/1/6 396/1/6 397/1/6
f 397/1/6 396/1/6 398/1/6
f 399/3/6 400/3/6 403/3/6
f 403/3/6 400/3/6 404/3/6
f 401/3/6 402/3/6 405/3/6
f 405/3/6 402/3/6 406/3/6
f 407/1/6 408/1/6 409/1/6
f 409/1/6 408/1/6 410/1/6
f 411/5/6 412/5/6 415/5/6
f 415/5/6 412/5/6 416/5/6
f 413/5/6 414/5/6 417/5/6
f 417/5/6 414/5/6 418/5/6
f 419/1/6 420/1/6 421/1/6
f 421/1/6 420/1/6 422/1/6
f 423/5/6 424/5/6 426/5/6
f 426/5/6 424/5/6 427/5/6
f 425/1/6 426/1/6 429/1/6
f 427/1/6 428/1/6 429/1/6
f 426/1/6 427/1/6 429/1/6
f 429/1/6 428/1/6 430/1/6
f 425/1/6 429/1/6 431/1/6
f 430/1/6 428/1/6 432/1/6
f 425/1/6 431/1/6 433/1/6
f 431/1/6 432/1/6 433/1/6
f 432/1/6 428/1/6 434/1/6
f 433/1/6 432/1/6 434/1/6
f 435/5/6 436/5/6 437/5/6
f 437/5/6 436/5/6 438/5/6
f 439/5/6 440/5/6 443/5/6
f 443/5/6 440/5/6 444/5/6
f 441/5/6 442/5/6 445/5/6
f 445/5/6 442/5/6 446/5/6
