# MagicaVoxel @ Ephtracy

# group
o 

# material
mtllib Граната.mtl
usemtl palette

# normals
vn -1 0 0
vn 1 0 0
vn 0 0 1
vn 0 0 -1
vn 0 -1 0
vn 0 1 0

# texcoords
vt 0.556641 0.5
vt 0.560547 0.5
vt 0.583984 0.5
vt 0.994141 0.5

# verts
v -0.4 0.1 0.3
v -0.4 0.1 -0.2
v -0.4 0.2 0.3
v -0.4 0.2 -0.2
v -0.4 0.3 0.3
v -0.4 0.3 -0.2
v -0.4 0.4 0.3
v -0.4 0.4 -0.2
v -0.3 0 0.2
v -0.3 0 -0.1
v -0.3 0.1 0.2
v -0.3 0.1 -0.1
v -0.3 0.4 0.2
v -0.3 0.4 -0.1
v -0.3 0.5 0.2
v -0.3 0.5 -0.1
v -0.2 0.5 0.1
v -0.2 0.5 -0.1
v -0.2 0.5 -0.2
v -0.2 0.6 -2.98023e-08
v -0.2 0.6 -0.2
v -0.2 0.7 0.1
v -0.2 0.7 -2.98023e-08
v -0.1 0.5 0.1
v -0.1 0.5 -0.1
v -0.1 0.5 -0.2
v -0.1 0.6 -2.98023e-08
v -0.1 0.6 -0.2
v -0.1 0.7 0.1
v -0.1 0.7 -2.98023e-08
v 0 0 0.2
v 0 0 -0.1
v 0 0.1 0.2
v 0 0.1 -0.1
v 0 0.4 0.2
v 0 0.4 -0.1
v 0 0.5 0.2
v 0 0.5 -0.1
v 0.1 0.1 0.3
v 0.1 0.1 -0.2
v 0.1 0.2 0.3
v 0.1 0.2 -0.2
v 0.1 0.3 0.3
v 0.1 0.3 -0.2
v 0.1 0.4 0.3
v 0.1 0.4 -0.2
v -0.4 0.1 0.3
v -0.4 0.2 0.3
v -0.4 0.3 0.3
v -0.4 0.4 0.3
v 0.1 0.1 0.3
v 0.1 0.2 0.3
v 0.1 0.3 0.3
v 0.1 0.4 0.3
v -0.3 0 0.2
v -0.3 0.1 0.2
v -0.3 0.4 0.2
v -0.3 0.5 0.2
v 0 0 0.2
v 0 0.1 0.2
v 0 0.4 0.2
v 0 0.5 0.2
v -0.2 0.5 0.1
v -0.2 0.7 0.1
v -0.1 0.5 0.1
v -0.1 0.7 0.1
v -0.2 0.6 -2.98023e-08
v -0.2 0.7 -2.98023e-08
v -0.1 0.6 -2.98023e-08
v -0.1 0.7 -2.98023e-08
v -0.3 0 -0.1
v -0.3 0.1 -0.1
v -0.3 0.4 -0.1
v -0.3 0.5 -0.1
v -0.2 0.5 -0.1
v -0.1 0.5 -0.1
v 0 0 -0.1
v 0 0.1 -0.1
v 0 0.4 -0.1
v 0 0.5 -0.1
v -0.4 0.1 -0.2
v -0.4 0.2 -0.2
v -0.4 0.3 -0.2
v -0.4 0.4 -0.2
v -0.2 0.5 -0.2
v -0.2 0.6 -0.2
v -0.1 0.5 -0.2
v -0.1 0.6 -0.2
v 0.1 0.1 -0.2
v 0.1 0.2 -0.2
v 0.1 0.3 -0.2
v 0.1 0.4 -0.2
v -0.3 0 0.2
v 0 0 0.2
v -0.3 0 -0.1
v 0 0 -0.1
v -0.4 0.1 0.3
v 0.1 0.1 0.3
v -0.3 0.1 0.2
v 0 0.1 0.2
v -0.3 0.1 -0.1
v 0 0.1 -0.1
v -0.4 0.1 -0.2
v 0.1 0.1 -0.2
v -0.2 0.5 -0.1
v -0.1 0.5 -0.1
v -0.2 0.5 -0.2
v -0.1 0.5 -0.2
v -0.4 0.4 0.3
v 0.1 0.4 0.3
v -0.3 0.4 0.2
v 0 0.4 0.2
v -0.3 0.4 -0.1
v 0 0.4 -0.1
v -0.4 0.4 -0.2
v 0.1 0.4 -0.2
v -0.3 0.5 0.2
v 0 0.5 0.2
v -0.2 0.5 0.1
v -0.1 0.5 0.1
v -0.3 0.5 -0.1
v -0.2 0.5 -0.1
v -0.1 0.5 -0.1
v 0 0.5 -0.1
v -0.2 0.6 -2.98023e-08
v -0.1 0.6 -2.98023e-08
v -0.2 0.6 -0.2
v -0.1 0.6 -0.2
v -0.2 0.7 0.1
v -0.1 0.7 0.1
v -0.2 0.7 -2.98023e-08
v -0.1 0.7 -2.98023e-08

# faces
f 3/3/1 2/3/1 1/3/1
f 4/3/1 2/3/1 3/3/1
f 5/1/1 4/1/1 3/1/1
f 6/1/1 4/1/1 5/1/1
f 7/3/1 6/3/1 5/3/1
f 8/3/1 6/3/1 7/3/1
f 11/2/1 10/2/1 9/2/1
f 12/2/1 10/2/1 11/2/1
f 15/2/1 14/2/1 13/2/1
f 16/2/1 14/2/1 15/2/1
f 20/4/1 18/4/1 17/4/1
f 20/4/1 19/4/1 18/4/1
f 21/4/1 19/4/1 20/4/1
f 22/4/1 20/4/1 17/4/1
f 23/4/1 20/4/1 22/4/1
f 24/4/2 25/4/2 27/4/2
f 25/4/2 26/4/2 27/4/2
f 27/4/2 26/4/2 28/4/2
f 24/4/2 27/4/2 29/4/2
f 29/4/2 27/4/2 30/4/2
f 31/2/2 32/2/2 33/2/2
f 33/2/2 32/2/2 34/2/2
f 35/2/2 36/2/2 37/2/2
f 37/2/2 36/2/2 38/2/2
f 39/3/2 40/3/2 41/3/2
f 41/3/2 40/3/2 42/3/2
f 41/1/2 42/1/2 43/1/2
f 43/1/2 42/1/2 44/1/2
f 43/3/2 44/3/2 45/3/2
f 45/3/2 44/3/2 46/3/2
f 51/3/3 48/3/3 47/3/3
f 52/1/3 49/1/3 48/1/3
f 52/3/3 48/3/3 51/3/3
f 53/3/3 50/3/3 49/3/3
f 53/1/3 49/1/3 52/1/3
f 54/3/3 50/3/3 53/3/3
f 59/2/3 56/2/3 55/2/3
f 60/2/3 56/2/3 59/2/3
f 61/2/3 58/2/3 57/2/3
f 62/2/3 58/2/3 61/2/3
f 65/4/3 64/4/3 63/4/3
f 66/4/3 64/4/3 65/4/3
f 67/4/4 68/4/4 69/4/4
f 69/4/4 68/4/4 70/4/4
f 73/2/4 74/2/4 75/2/4
f 73/2/4 75/2/4 76/2/4
f 71/2/4 72/2/4 77/2/4
f 77/2/4 72/2/4 78/2/4
f 73/2/4 76/2/4 79/2/4
f 79/2/4 76/2/4 80/2/4
f 85/4/4 86/4/4 87/4/4
f 87/4/4 86/4/4 88/4/4
f 81/3/4 82/3/4 89/3/4
f 82/1/4 83/1/4 90/1/4
f 89/3/4 82/3/4 90/3/4
f 83/3/4 84/3/4 91/3/4
f 90/1/4 83/1/4 91/1/4
f 91/3/4 84/3/4 92/3/4
f 95/2/5 94/2/5 93/2/5
f 96/2/5 94/2/5 95/2/5
f 99/3/5 98/3/5 97/3/5
f 100/3/5 98/3/5 99/3/5
f 101/3/5 99/3/5 97/3/5
f 102/3/5 98/3/5 100/3/5
f 103/3/5 101/3/5 97/3/5
f 103/3/5 102/3/5 101/3/5
f 104/3/5 98/3/5 102/3/5
f 104/3/5 102/3/5 103/3/5
f 107/4/5 106/4/5 105/4/5
f 108/4/5 106/4/5 107/4/5
f 109/3/6 110/3/6 111/3/6
f 111/3/6 110/3/6 112/3/6
f 109/3/6 111/3/6 113/3/6
f 112/3/6 110/3/6 114/3/6
f 109/3/6 113/3/6 115/3/6
f 113/3/6 114/3/6 115/3/6
f 114/3/6 110/3/6 116/3/6
f 115/3/6 114/3/6 116/3/6
f 117/2/6 118/2/6 119/2/6
f 119/2/6 118/2/6 120/2/6
f 117/2/6 119/2/6 121/2/6
f 121/2/6 119/2/6 122/2/6
f 120/2/6 118/2/6 123/2/6
f 123/2/6 118/2/6 124/2/6
f 125/4/6 126/4/6 127/4/6
f 127/4/6 126/4/6 128/4/6
f 129/4/6 130/4/6 131/4/6
f 131/4/6 130/4/6 132/4/6
