# MagicaVoxel @ Ephtracy

# group
o 

# material
mtllib Рембо.mtl
usemtl palette

# normals
vn -1 0 0
vn 1 0 0
vn 0 0 1
vn 0 0 -1
vn 0 -1 0
vn 0 1 0

# texcoords
vt 0.0644531 0.5
vt 0.287109 0.5
vt 0.380859 0.5
vt 0.388672 0.5
vt 0.587891 0.5
vt 0.736328 0.5
vt 0.994141 0.5

# verts
v -0.7 0.7 0.3
v -0.7 0.7 -0.1
v -0.7 0.9 0.3
v -0.7 0.9 0.2
v -0.7 1 0.2
v -0.7 1 -0.1
v -0.6 1 0.2
v -0.6 1 -0.1
v -0.6 1.1 0.2
v -0.6 1.1 -0.1
v -0.5 0 0.2
v -0.5 0 -0.1
v -0.5 0.4 0.2
v -0.5 0.4 -0.1
v -0.5 0.5 0.2
v -0.5 0.5 -0.1
v -0.5 0.7 0.2
v -0.5 0.7 -0.1
v -0.5 1.1 0.2
v -0.5 1.1 -0.1
v -0.5 1.2 0.2
v -0.5 1.2 -0.1
v -0.4 1.3 0.4
v -0.4 1.3 -0.3
v -0.4 1.5 0.1
v -0.4 1.5 -0.3
v -0.4 1.6 0.2
v -0.4 1.6 0.1
v -0.4 1.7 0.4
v -0.4 1.7 0.2
v -0.4 1.7 -0.3
v -0.4 1.8 0.4
v -0.4 1.8 -0.3
v -0.4 1.9 0.4
v -0.4 1.9 -0.3
v -0.2 1.2 0.2
v -0.2 1.2 -0.1
v -0.2 1.3 0.2
v -0.2 1.3 -0.1
v 0.1 0 0.2
v 0.1 0 -0.1
v 0.1 0.3 0.2
v 0.1 0.3 -0.1
v 0.4 0.7 0.3
v 0.4 0.7 0.2
v 0.4 0.9 0.3
v 0.4 0.9 0.2
v -0.5 0.7 0.3
v -0.5 0.7 0.2
v -0.5 0.9 0.3
v -0.5 0.9 0.2
v -0.2 0 0.2
v -0.2 0 -0.1
v -0.2 0.3 0.2
v -0.2 0.3 -0.1
v 0.1 1.2 0.2
v 0.1 1.2 -0.1
v 0.1 1.3 0.2
v 0.1 1.3 -0.1
v 0.3 1.3 0.4
v 0.3 1.3 -0.3
v 0.3 1.5 0.1
v 0.3 1.5 -0.3
v 0.3 1.6 0.2
v 0.3 1.6 0.1
v 0.3 1.7 0.4
v 0.3 1.7 0.2
v 0.3 1.7 -0.3
v 0.3 1.8 0.4
v 0.3 1.8 -0.3
v 0.3 1.9 0.4
v 0.3 1.9 -0.3
v 0.4 0 0.2
v 0.4 0 -0.1
v 0.4 0.4 0.2
v 0.4 0.4 -0.1
v 0.4 0.5 0.2
v 0.4 0.5 -0.1
v 0.4 0.7 0.2
v 0.4 0.7 -0.1
v 0.4 1.1 0.2
v 0.4 1.1 -0.1
v 0.4 1.2 0.2
v 0.4 1.2 -0.1
v 0.5 1 0.2
v 0.5 1 -0.1
v 0.5 1.1 0.2
v 0.5 1.1 -0.1
v 0.6 0.7 0.3
v 0.6 0.7 -0.1
v 0.6 0.9 0.3
v 0.6 0.9 0.2
v 0.6 1 0.2
v 0.6 1 -0.1
v -0.4 1.3 0.4
v -0.4 1.7 0.4
v -0.4 1.8 0.4
v -0.4 1.9 0.4
v -0.3 1.6 0.4
v -0.3 1.7 0.4
v -0.2 1.6 0.4
v -0.2 1.7 0.4
v 0.1 1.6 0.4
v 0.1 1.7 0.4
v 0.2 1.6 0.4
v 0.2 1.7 0.4
v 0.3 1.3 0.4
v 0.3 1.7 0.4
v 0.3 1.8 0.4
v 0.3 1.9 0.4
v -0.7 0.7 0.3
v -0.7 0.9 0.3
v -0.5 0.7 0.3
v -0.5 0.9 0.3
v 0.4 0.7 0.3
v 0.4 0.9 0.3
v 0.6 0.7 0.3
v 0.6 0.9 0.3
v -0.7 0.9 0.2
v -0.7 1 0.2
v -0.6 0.9 0.2
v -0.6 1 0.2
v -0.6 1.1 0.2
v -0.5 0 0.2
v -0.5 0.4 0.2
v -0.5 0.5 0.2
v -0.5 0.7 0.2
v -0.5 0.9 0.2
v -0.5 1.1 0.2
v -0.5 1.2 0.2
v -0.2 0 0.2
v -0.2 0.3 0.2
v -0.2 0.4 0.2
v -0.2 0.5 0.2
v -0.2 1.2 0.2
v -0.2 1.3 0.2
v -0.1 0.4 0.2
v -0.1 0.5 0.2
v 5.96046e-08 0.4 0.2
v 5.96046e-08 0.5 0.2
v 0.1 0 0.2
v 0.1 0.3 0.2
v 0.1 0.4 0.2
v 0.1 0.5 0.2
v 0.1 1.2 0.2
v 0.1 1.3 0.2
v 0.4 0 0.2
v 0.4 0.4 0.2
v 0.4 0.5 0.2
v 0.4 0.7 0.2
v 0.4 0.9 0.2
v 0.4 1.1 0.2
v 0.4 1.2 0.2
v 0.5 0.9 0.2
v 0.5 1 0.2
v 0.5 1.1 0.2
v 0.6 0.9 0.2
v 0.6 1 0.2
v -0.7 0.7 -0.1
v -0.7 1 -0.1
v -0.6 0.9 -0.1
v -0.6 1 -0.1
v -0.6 1.1 -0.1
v -0.5 0 -0.1
v -0.5 0.4 -0.1
v -0.5 0.5 -0.1
v -0.5 0.7 -0.1
v -0.5 0.9 -0.1
v -0.5 1.1 -0.1
v -0.5 1.2 -0.1
v -0.2 0 -0.1
v -0.2 0.3 -0.1
v -0.2 1.2 -0.1
v -0.2 1.3 -0.1
v 0.1 0 -0.1
v 0.1 0.3 -0.1
v 0.1 1.2 -0.1
v 0.1 1.3 -0.1
v 0.4 0 -0.1
v 0.4 0.4 -0.1
v 0.4 0.5 -0.1
v 0.4 0.7 -0.1
v 0.4 0.9 -0.1
v 0.4 1.1 -0.1
v 0.4 1.2 -0.1
v 0.5 0.9 -0.1
v 0.5 1 -0.1
v 0.5 1.1 -0.1
v 0.6 0.7 -0.1
v 0.6 1 -0.1
v -0.4 1.3 -0.3
v -0.4 1.5 -0.3
v -0.4 1.7 -0.3
v -0.4 1.8 -0.3
v -0.4 1.9 -0.3
v -0.3 1.4 -0.3
v -0.3 1.5 -0.3
v -0.2 1.3 -0.3
v -0.2 1.4 -0.3
v 0.1 1.3 -0.3
v 0.1 1.4 -0.3
v 0.2 1.4 -0.3
v 0.2 1.5 -0.3
v 0.3 1.3 -0.3
v 0.3 1.5 -0.3
v 0.3 1.7 -0.3
v 0.3 1.8 -0.3
v 0.3 1.9 -0.3
v -0.5 0 0.2
v -0.2 0 0.2
v 0.1 0 0.2
v 0.4 0 0.2
v -0.5 0 -0.1
v -0.2 0 -0.1
v 0.1 0 -0.1
v 0.4 0 -0.1
v -0.2 0.3 0.2
v 0.1 0.3 0.2
v -0.2 0.3 -0.1
v 0.1 0.3 -0.1
v -0.7 0.7 0.3
v -0.5 0.7 0.3
v 0.4 0.7 0.3
v 0.6 0.7 0.3
v -0.5 0.7 0.2
v 0.4 0.7 0.2
v -0.7 0.7 -0.1
v -0.5 0.7 -0.1
v 0.4 0.7 -0.1
v 0.6 0.7 -0.1
v -0.4 1.3 0.4
v 0.3 1.3 0.4
v -0.2 1.3 0.2
v 0.1 1.3 0.2
v -0.2 1.3 -0.1
v 0.1 1.3 -0.1
v -0.2 1.3 -0.2
v 0.1 1.3 -0.2
v -0.4 1.3 -0.3
v -0.2 1.3 -0.3
v 0.1 1.3 -0.3
v 0.3 1.3 -0.3
v -0.7 0.9 0.3
v -0.5 0.9 0.3
v 0.4 0.9 0.3
v 0.6 0.9 0.3
v -0.7 0.9 0.2
v -0.6 0.9 0.2
v -0.5 0.9 0.2
v 0.4 0.9 0.2
v 0.5 0.9 0.2
v 0.6 0.9 0.2
v -0.7 1 0.2
v -0.6 1 0.2
v 0.5 1 0.2
v 0.6 1 0.2
v -0.7 1 -0.1
v -0.6 1 -0.1
v 0.5 1 -0.1
v 0.6 1 -0.1
v -0.6 1.1 0.2
v -0.5 1.1 0.2
v 0.4 1.1 0.2
v 0.5 1.1 0.2
v -0.6 1.1 -0.1
v -0.5 1.1 -0.1
v 0.4 1.1 -0.1
v 0.5 1.1 -0.1
v -0.5 1.2 0.2
v -0.2 1.2 0.2
v 0.1 1.2 0.2
v 0.4 1.2 0.2
v -0.5 1.2 -0.1
v -0.2 1.2 -0.1
v 0.1 1.2 -0.1
v 0.4 1.2 -0.1
v -0.4 1.9 0.4
v 0.3 1.9 0.4
v -0.4 1.9 -0.3
v 0.3 1.9 -0.3

# faces
f 3/2/1 2/2/1 1/2/1
f 4/2/1 2/2/1 3/2/1
f 5/2/1 2/2/1 4/2/1
f 6/2/1 2/2/1 5/2/1
f 9/5/1 8/5/1 7/5/1
f 10/5/1 8/5/1 9/5/1
f 13/6/1 12/6/1 11/6/1
f 14/6/1 12/6/1 13/6/1
f 15/7/1 14/7/1 13/7/1
f 16/7/1 14/7/1 15/7/1
f 17/5/1 16/5/1 15/5/1
f 18/5/1 16/5/1 17/5/1
f 21/5/1 20/5/1 19/5/1
f 22/5/1 20/5/1 21/5/1
f 25/2/1 24/2/1 23/2/1
f 26/2/1 24/2/1 25/2/1
f 27/2/1 25/2/1 23/2/1
f 28/7/1 26/7/1 25/7/1
f 28/2/1 25/2/1 27/2/1
f 29/2/1 27/2/1 23/2/1
f 30/7/1 28/7/1 27/7/1
f 30/2/1 27/2/1 29/2/1
f 31/7/1 26/7/1 28/7/1
f 31/7/1 28/7/1 30/7/1
f 32/1/1 30/1/1 29/1/1
f 32/1/1 31/1/1 30/1/1
f 33/1/1 31/1/1 32/1/1
f 34/7/1 33/7/1 32/7/1
f 35/7/1 33/7/1 34/7/1
f 38/2/1 37/2/1 36/2/1
f 39/2/1 37/2/1 38/2/1
f 42/6/1 41/6/1 40/6/1
f 43/6/1 41/6/1 42/6/1
f 46/2/1 45/2/1 44/2/1
f 47/2/1 45/2/1 46/2/1
f 48/2/2 49/2/2 50/2/2
f 50/2/2 49/2/2 51/2/2
f 52/6/2 53/6/2 54/6/2
f 54/6/2 53/6/2 55/6/2
f 56/2/2 57/2/2 58/2/2
f 58/2/2 57/2/2 59/2/2
f 60/2/2 61/2/2 62/2/2
f 62/2/2 61/2/2 63/2/2
f 60/2/2 62/2/2 64/2/2
f 62/7/2 63/7/2 65/7/2
f 64/2/2 62/2/2 65/2/2
f 60/2/2 64/2/2 66/2/2
f 64/7/2 65/7/2 67/7/2
f 66/2/2 64/2/2 67/2/2
f 65/7/2 63/7/2 68/7/2
f 67/7/2 65/7/2 68/7/2
f 66/1/2 67/1/2 69/1/2
f 67/1/2 68/1/2 69/1/2
f 69/1/2 68/1/2 70/1/2
f 69/7/2 70/7/2 71/7/2
f 71/7/2 70/7/2 72/7/2
f 73/6/2 74/6/2 75/6/2
f 75/6/2 74/6/2 76/6/2
f 75/7/2 76/7/2 77/7/2
f 77/7/2 76/7/2 78/7/2
f 77/5/2 78/5/2 79/5/2
f 79/5/2 78/5/2 80/5/2
f 81/5/2 82/5/2 83/5/2
f 83/5/2 82/5/2 84/5/2
f 85/5/2 86/5/2 87/5/2
f 87/5/2 86/5/2 88/5/2
f 89/2/2 90/2/2 91/2/2
f 91/2/2 90/2/2 92/2/2
f 92/2/2 90/2/2 93/2/2
f 93/2/2 90/2/2 94/2/2
f 99/2/3 96/2/3 95/2/3
f 100/1/3 97/1/3 96/1/3
f 100/2/3 96/2/3 99/2/3
f 101/2/3 99/2/3 95/2/3
f 101/7/3 100/7/3 99/7/3
f 102/1/3 97/1/3 100/1/3
f 102/7/3 100/7/3 101/7/3
f 103/2/3 101/2/3 95/2/3
f 103/2/3 102/2/3 101/2/3
f 104/1/3 97/1/3 102/1/3
f 104/2/3 102/2/3 103/2/3
f 105/2/3 103/2/3 95/2/3
f 105/7/3 104/7/3 103/7/3
f 106/1/3 97/1/3 104/1/3
f 106/7/3 104/7/3 105/7/3
f 107/2/3 105/2/3 95/2/3
f 107/2/3 106/2/3 105/2/3
f 108/1/3 97/1/3 106/1/3
f 108/2/3 106/2/3 107/2/3
f 109/7/3 98/7/3 97/7/3
f 109/1/3 97/1/3 108/1/3
f 110/7/3 98/7/3 109/7/3
f 113/2/3 112/2/3 111/2/3
f 114/2/3 112/2/3 113/2/3
f 117/2/3 116/2/3 115/2/3
f 118/2/3 116/2/3 117/2/3
f 121/2/3 120/2/3 119/2/3
f 122/2/3 120/2/3 121/2/3
f 128/5/3 122/5/3 121/5/3
f 128/5/3 123/5/3 122/5/3
f 129/5/3 123/5/3 128/5/3
f 131/6/3 125/6/3 124/6/3
f 132/6/3 125/6/3 131/6/3
f 133/7/3 126/7/3 125/7/3
f 133/6/3 125/6/3 132/6/3
f 134/5/3 127/5/3 126/5/3
f 134/7/3 126/7/3 133/7/3
f 134/5/3 130/5/3 129/5/3
f 134/5/3 128/5/3 127/5/3
f 134/5/3 129/5/3 128/5/3
f 135/5/3 130/5/3 134/5/3
f 137/6/3 133/6/3 132/6/3
f 137/3/3 134/3/3 133/3/3
f 138/5/3 135/5/3 134/5/3
f 138/3/3 134/3/3 137/3/3
f 139/6/3 137/6/3 132/6/3
f 139/4/3 138/4/3 137/4/3
f 140/5/3 135/5/3 138/5/3
f 140/4/3 138/4/3 139/4/3
f 142/6/3 139/6/3 132/6/3
f 143/3/3 140/3/3 139/3/3
f 143/6/3 139/6/3 142/6/3
f 144/5/3 135/5/3 140/5/3
f 144/3/3 140/3/3 143/3/3
f 145/2/3 136/2/3 135/2/3
f 145/5/3 135/5/3 144/5/3
f 146/2/3 136/2/3 145/2/3
f 147/6/3 143/6/3 142/6/3
f 147/6/3 142/6/3 141/6/3
f 148/7/3 144/7/3 143/7/3
f 148/6/3 143/6/3 147/6/3
f 149/5/3 145/5/3 144/5/3
f 149/7/3 144/7/3 148/7/3
f 150/5/3 145/5/3 149/5/3
f 151/5/3 145/5/3 150/5/3
f 152/5/3 145/5/3 151/5/3
f 153/5/3 145/5/3 152/5/3
f 154/5/3 152/5/3 151/5/3
f 155/5/3 152/5/3 154/5/3
f 156/5/3 152/5/3 155/5/3
f 157/2/3 155/2/3 154/2/3
f 158/2/3 155/2/3 157/2/3
f 159/2/4 160/2/4 161/2/4
f 161/2/4 160/2/4 162/2/4
f 159/2/4 161/2/4 167/2/4
f 161/5/4 162/5/4 168/5/4
f 162/5/4 163/5/4 168/5/4
f 167/2/4 161/2/4 168/2/4
f 168/5/4 163/5/4 169/5/4
f 164/6/4 165/6/4 171/6/4
f 171/6/4 165/6/4 172/6/4
f 166/5/4 167/5/4 173/5/4
f 169/5/4 170/5/4 173/5/4
f 167/5/4 168/5/4 173/5/4
f 168/5/4 169/5/4 173/5/4
f 172/6/4 165/6/4 176/6/4
f 166/5/4 173/5/4 177/5/4
f 173/2/4 174/2/4 177/2/4
f 177/2/4 174/2/4 178/2/4
f 175/6/4 176/6/4 179/6/4
f 165/7/4 166/7/4 180/7/4
f 179/6/4 176/6/4 180/6/4
f 176/6/4 165/6/4 180/6/4
f 166/5/4 177/5/4 181/5/4
f 180/7/4 166/7/4 181/7/4
f 181/5/4 177/5/4 182/5/4
f 182/5/4 177/5/4 183/5/4
f 183/5/4 177/5/4 184/5/4
f 184/5/4 177/5/4 185/5/4
f 183/5/4 184/5/4 186/5/4
f 182/2/4 183/2/4 186/2/4
f 186/5/4 184/5/4 187/5/4
f 187/5/4 184/5/4 188/5/4
f 182/2/4 186/2/4 189/2/4
f 186/2/4 187/2/4 189/2/4
f 189/2/4 187/2/4 190/2/4
f 191/2/4 192/2/4 196/2/4
f 192/7/4 193/7/4 197/7/4
f 196/2/4 192/2/4 197/2/4
f 191/2/4 196/2/4 198/2/4
f 196/7/4 197/7/4 199/7/4
f 198/2/4 196/2/4 199/2/4
f 198/7/4 199/7/4 200/7/4
f 199/7/4 197/7/4 201/7/4
f 200/7/4 199/7/4 201/7/4
f 200/2/4 201/2/4 202/2/4
f 201/7/4 197/7/4 202/7/4
f 197/7/4 193/7/4 203/7/4
f 202/7/4 197/7/4 203/7/4
f 200/2/4 202/2/4 204/2/4
f 202/2/4 203/2/4 204/2/4
f 203/7/4 193/7/4 205/7/4
f 204/2/4 203/2/4 205/2/4
f 193/1/4 194/1/4 206/1/4
f 205/7/4 193/7/4 206/7/4
f 194/7/4 195/7/4 207/7/4
f 206/1/4 194/1/4 207/1/4
f 207/7/4 195/7/4 208/7/4
f 213/6/5 210/6/5 209/6/5
f 214/6/5 210/6/5 213/6/5
f 215/6/5 212/6/5 211/6/5
f 216/6/5 212/6/5 215/6/5
f 219/6/5 218/6/5 217/6/5
f 220/6/5 218/6/5 219/6/5
f 225/2/5 222/2/5 221/2/5
f 226/2/5 224/2/5 223/2/5
f 227/2/5 225/2/5 221/2/5
f 228/2/5 225/2/5 227/2/5
f 229/2/5 224/2/5 226/2/5
f 230/2/5 224/2/5 229/2/5
f 233/2/5 232/2/5 231/2/5
f 234/2/5 232/2/5 233/2/5
f 235/2/5 233/2/5 231/2/5
f 236/2/5 232/2/5 234/2/5
f 237/2/5 235/2/5 231/2/5
f 237/2/5 236/2/5 235/2/5
f 238/2/5 232/2/5 236/2/5
f 238/2/5 236/2/5 237/2/5
f 239/2/5 237/2/5 231/2/5
f 240/7/5 238/7/5 237/7/5
f 240/2/5 237/2/5 239/2/5
f 241/2/5 232/2/5 238/2/5
f 241/7/5 238/7/5 240/7/5
f 242/2/5 232/2/5 241/2/5
f 243/2/6 244/2/6 247/2/6
f 247/2/6 244/2/6 248/2/6
f 248/2/6 244/2/6 249/2/6
f 245/2/6 246/2/6 250/2/6
f 250/2/6 246/2/6 251/2/6
f 251/2/6 246/2/6 252/2/6
f 253/2/6 254/2/6 257/2/6
f 257/2/6 254/2/6 258/2/6
f 255/2/6 256/2/6 259/2/6
f 259/2/6 256/2/6 260/2/6
f 261/5/6 262/5/6 265/5/6
f 265/5/6 262/5/6 266/5/6
f 263/5/6 264/5/6 267/5/6
f 267/5/6 264/5/6 268/5/6
f 269/5/6 270/5/6 273/5/6
f 273/5/6 270/5/6 274/5/6
f 271/5/6 272/5/6 275/5/6
f 275/5/6 272/5/6 276/5/6
f 277/7/6 278/7/6 279/7/6
f 279/7/6 278/7/6 280/7/6
