# MagicaVoxel @ Ephtracy

# group
o 

# material
mtllib pistol.mtl
usemtl palette

# normals
vn -1 0 0
vn 1 0 0
vn 0 0 1
vn 0 0 -1
vn 0 -1 0
vn 0 1 0

# texcoords
vt 0.931641 0.5
vt 0.994141 0.5

# verts
v -0.3 0 -0.1
v -0.3 0 -0.4
v -0.3 0.6 0.9
v -0.3 0.6 -0.1
v -0.3 0.7 0.4
v -0.3 0.7 0
v -0.3 0.8 0.4
v -0.3 0.8 0
v -0.3 0.9 0.9
v -0.3 0.9 0.2
v -0.3 0.9 0.1
v -0.3 0.9 -0.4
v -0.3 1 0.2
v -0.3 1 0.1
v -0.1 0.9 0.2
v -0.1 0.9 0.1
v -0.1 1 0.2
v -0.1 1 0.1
v -0.2 0.9 0.2
v -0.2 0.9 0.1
v -0.2 1 0.2
v -0.2 1 0.1
v 2.98023e-08 0 -0.1
v 2.98023e-08 0 -0.4
v 2.98023e-08 0.6 0.9
v 2.98023e-08 0.6 -0.1
v 2.98023e-08 0.9 0.9
v 2.98023e-08 0.9 0.2
v 2.98023e-08 0.9 0.1
v 2.98023e-08 0.9 -0.4
v 2.98023e-08 1 0.2
v 2.98023e-08 1 0.1
v -0.3 0.6 0.9
v -0.3 0.9 0.9
v -0.2 0.7 0.9
v -0.2 0.8 0.9
v -0.1 0.7 0.9
v -0.1 0.8 0.9
v 2.98023e-08 0.6 0.9
v 2.98023e-08 0.9 0.9
v -0.3 0.9 0.2
v -0.3 1 0.2
v -0.2 0.9 0.2
v -0.2 1 0.2
v -0.1 0.9 0.2
v -0.1 1 0.2
v 2.98023e-08 0.9 0.2
v 2.98023e-08 1 0.2
v -0.3 0 -0.1
v -0.3 0.6 -0.1
v 2.98023e-08 0 -0.1
v 2.98023e-08 0.6 -0.1
v -0.3 0.9 0.1
v -0.3 1 0.1
v -0.2 0.9 0.1
v -0.2 1 0.1
v -0.1 0.9 0.1
v -0.1 1 0.1
v 2.98023e-08 0.9 0.1
v 2.98023e-08 1 0.1
v -0.3 0 -0.4
v -0.3 0.9 -0.4
v 2.98023e-08 0 -0.4
v 2.98023e-08 0.9 -0.4
v -0.3 0 -0.1
v 2.98023e-08 0 -0.1
v -0.3 0 -0.4
v 2.98023e-08 0 -0.4
v -0.3 0.6 0.9
v 2.98023e-08 0.6 0.9
v -0.3 0.6 -0.1
v 2.98023e-08 0.6 -0.1
v -0.3 0.9 0.9
v 2.98023e-08 0.9 0.9
v -0.3 0.9 0.2
v -0.2 0.9 0.2
v -0.1 0.9 0.2
v 2.98023e-08 0.9 0.2
v -0.3 0.9 0.1
v -0.2 0.9 0.1
v -0.1 0.9 0.1
v 2.98023e-08 0.9 0.1
v -0.3 0.9 -0.4
v 2.98023e-08 0.9 -0.4
v -0.3 1 0.2
v -0.2 1 0.2
v -0.1 1 0.2
v 2.98023e-08 1 0.2
v -0.3 1 0.1
v -0.2 1 0.1
v -0.1 1 0.1
v 2.98023e-08 1 0.1

# faces
f 4/2/1 2/2/1 1/2/1
f 5/2/1 4/2/1 3/2/1
f 6/2/1 4/2/1 5/2/1
f 7/2/1 5/2/1 3/2/1
f 7/1/1 6/1/1 5/1/1
f 8/2/1 4/2/1 6/2/1
f 8/1/1 6/1/1 7/1/1
f 9/2/1 7/2/1 3/2/1
f 9/2/1 8/2/1 7/2/1
f 10/2/1 8/2/1 9/2/1
f 11/2/1 8/2/1 10/2/1
f 12/2/1 2/2/1 4/2/1
f 12/2/1 8/2/1 11/2/1
f 12/2/1 4/2/1 8/2/1
f 13/2/1 11/2/1 10/2/1
f 14/2/1 11/2/1 13/2/1
f 17/2/1 16/2/1 15/2/1
f 18/2/1 16/2/1 17/2/1
f 19/2/2 20/2/2 21/2/2
f 21/2/2 20/2/2 22/2/2
f 23/2/2 24/2/2 26/2/2
f 25/2/2 26/2/2 27/2/2
f 27/2/2 26/2/2 28/2/2
f 28/2/2 26/2/2 29/2/2
f 26/2/2 24/2/2 30/2/2
f 29/2/2 26/2/2 30/2/2
f 28/2/2 29/2/2 31/2/2
f 31/2/2 29/2/2 32/2/2
f 35/2/3 34/2/3 33/2/3
f 36/2/3 34/2/3 35/2/3
f 37/2/3 35/2/3 33/2/3
f 37/1/3 36/1/3 35/1/3
f 38/2/3 34/2/3 36/2/3
f 38/1/3 36/1/3 37/1/3
f 39/2/3 37/2/3 33/2/3
f 39/2/3 38/2/3 37/2/3
f 40/2/3 34/2/3 38/2/3
f 40/2/3 38/2/3 39/2/3
f 43/2/3 42/2/3 41/2/3
f 44/2/3 42/2/3 43/2/3
f 47/2/3 46/2/3 45/2/3
f 48/2/3 46/2/3 47/2/3
f 51/2/3 50/2/3 49/2/3
f 52/2/3 50/2/3 51/2/3
f 53/2/4 54/2/4 55/2/4
f 55/2/4 54/2/4 56/2/4
f 57/2/4 58/2/4 59/2/4
f 59/2/4 58/2/4 60/2/4
f 61/2/4 62/2/4 63/2/4
f 63/2/4 62/2/4 64/2/4
f 67/2/5 66/2/5 65/2/5
f 68/2/5 66/2/5 67/2/5
f 71/2/5 70/2/5 69/2/5
f 72/2/5 70/2/5 71/2/5
f 73/2/6 74/2/6 75/2/6
f 75/2/6 74/2/6 76/2/6
f 76/2/6 74/2/6 77/2/6
f 77/2/6 74/2/6 78/2/6
f 76/2/6 77/2/6 80/2/6
f 80/2/6 77/2/6 81/2/6
f 79/2/6 80/2/6 83/2/6
f 81/2/6 82/2/6 83/2/6
f 80/2/6 81/2/6 83/2/6
f 83/2/6 82/2/6 84/2/6
f 85/2/6 86/2/6 89/2/6
f 89/2/6 86/2/6 90/2/6
f 87/2/6 88/2/6 91/2/6
f 91/2/6 88/2/6 92/2/6
