# MagicaVoxel @ Ephtracy

# group
o 

# material
mtllib rifle.mtl
usemtl palette

# normals
vn -1 0 0
vn 1 0 0
vn 0 0 1
vn 0 0 -1
vn 0 -1 0
vn 0 1 0

# texcoords
vt 0.748047 0.5
vt 0.927734 0.5
vt 0.935547 0.5
vt 0.994141 0.5

# verts
v -0.2 1.8 0.8
v -0.2 1.8 0.7
v -0.2 1.9 0.9
v -0.2 1.9 0.8
v -0.2 2 1
v -0.2 2 0.9
v -0.2 2.1 1.1
v -0.2 2.1 1
v -0.2 2.2 3.2
v -0.2 2.2 3.1
v -0.2 2.2 2.8
v -0.2 2.2 2.7
v -0.2 2.3 3.1
v -0.2 2.3 2.8
v -0.2 2.3 1.1
v -0.2 2.3 0.7
v -0.2 2.4 3.2
v -0.2 2.4 2.7
v -0.2 2.6 1.4
v -0.2 2.6 0.3
v -0.2 2.8 1.4
v -0.2 2.8 0.3
v -0.1 1.4 2.38419e-07
v -0.1 1.4 -0.2
v -0.1 1.6 1.2
v -0.1 1.6 0.9
v -0.1 1.6 0.1
v -0.1 1.6 2.38419e-07
v -0.1 1.6 -0.6
v -0.1 1.6 -1.1
v -0.1 1.7 0.9
v -0.1 1.7 0.8
v -0.1 1.7 0.6
v -0.1 1.7 0.3
v -0.1 1.7 0.2
v -0.1 1.7 0.1
v -0.1 1.7 -0.0999999
v -0.1 1.7 -0.2
v -0.1 1.7 -0.5
v -0.1 1.7 -0.6
v -0.1 1.7 -1
v -0.1 1.8 0.8
v -0.1 1.8 0.7
v -0.1 1.8 0.6
v -0.1 1.8 0.3
v -0.1 1.8 0.2
v -0.1 1.8 2.38419e-07
v -0.1 1.8 -0.0999999
v -0.1 1.8 -0.4
v -0.1 1.8 -0.5
v -0.1 1.8 -0.6
v -0.1 1.9 0.9
v -0.1 1.9 0.8
v -0.1 1.9 0.5
v -0.1 1.9 0.4
v -0.1 1.9 -0.3
v -0.1 1.9 -0.4
v -0.1 1.9 -0.5
v -0.1 2 1.2
v -0.1 2 1.1
v -0.1 2 1
v -0.1 2 0.9
v -0.1 2 0.5
v -0.1 2 0.4
v -0.1 2 0.3
v -0.1 2 -0.2
v -0.1 2 -0.3
v -0.1 2 -0.4
v -0.1 2.1 3.2
v -0.1 2.1 2.7
v -0.1 2.1 2
v -0.1 2.1 1.2
v -0.1 2.1 1.1
v -0.1 2.1 1
v -0.1 2.1 0.6
v -0.1 2.1 0.4
v -0.1 2.1 0.3
v -0.1 2.1 0.2
v -0.1 2.1 2.38419e-07
v -0.1 2.1 -0.2
v -0.1 2.1 -0.3
v -0.1 2.1 -1
v -0.1 2.2 3.2
v -0.1 2.2 3.1
v -0.1 2.2 2.8
v -0.1 2.2 2.7
v -0.1 2.2 2
v -0.1 2.2 1.9
v -0.1 2.2 1.7
v -0.1 2.2 1.6
v -0.1 2.2 1.4
v -0.1 2.3 3.1
v -0.1 2.3 2.8
v -0.1 2.3 2.7
v -0.1 2.3 2
v -0.1 2.3 1.9
v -0.1 2.3 1.7
v -0.1 2.3 1.6
v -0.1 2.3 1.4
v -0.1 2.3 1.1
v -0.1 2.3 0.7
v -0.1 2.4 2
v -0.1 2.4 1.2
v -0.1 2.4 1.1
v -0.1 2.4 0.6
v -0.1 2.4 0.5
v -0.1 2.4 -1
v -0.1 2.4 -1.1
v -0.1 2.5 1.4
v -0.1 2.5 1.2
v -0.1 2.5 1.1
v -0.1 2.5 0.6
v -0.1 2.5 0.5
v -0.1 2.5 0.3
v -0.1 2.6 1.4
v -0.1 2.6 0.3
v -0.1 2.8 1.4
v -0.1 2.8 0.3
v -0.1 2.9 1.4
v -0.1 2.9 0.3
v 0.0999998 1.4 2.38419e-07
v 0.0999998 1.4 -0.2
v 0.0999998 1.6 1.2
v 0.0999998 1.6 0.9
v 0.0999998 1.6 0.1
v 0.0999998 1.6 2.38419e-07
v 0.0999998 1.6 -0.6
v 0.0999998 1.6 -1.1
v 0.0999998 1.7 0.9
v 0.0999998 1.7 0.8
v 0.0999998 1.7 0.6
v 0.0999998 1.7 0.3
v 0.0999998 1.7 0.2
v 0.0999998 1.7 0.1
v 0.0999998 1.7 -0.0999999
v 0.0999998 1.7 -0.2
v 0.0999998 1.7 -0.5
v 0.0999998 1.7 -0.6
v 0.0999998 1.7 -1
v 0.0999998 1.8 0.8
v 0.0999998 1.8 0.7
v 0.0999998 1.8 0.6
v 0.0999998 1.8 0.3
v 0.0999998 1.8 0.2
v 0.0999998 1.8 2.38419e-07
v 0.0999998 1.8 -0.0999999
v 0.0999998 1.8 -0.4
v 0.0999998 1.8 -0.5
v 0.0999998 1.8 -0.6
v 0.0999998 1.9 0.9
v 0.0999998 1.9 0.8
v 0.0999998 1.9 0.5
v 0.0999998 1.9 0.4
v 0.0999998 1.9 -0.3
v 0.0999998 1.9 -0.4
v 0.0999998 1.9 -0.5
v 0.0999998 2 1.2
v 0.0999998 2 1.1
v 0.0999998 2 1
v 0.0999998 2 0.9
v 0.0999998 2 0.5
v 0.0999998 2 0.4
v 0.0999998 2 0.3
v 0.0999998 2 -0.2
v 0.0999998 2 -0.3
v 0.0999998 2 -0.4
v 0.0999998 2.1 3.2
v 0.0999998 2.1 2.7
v 0.0999998 2.1 2
v 0.0999998 2.1 1.2
v 0.0999998 2.1 1.1
v 0.0999998 2.1 1
v 0.0999998 2.1 0.6
v 0.0999998 2.1 0.4
v 0.0999998 2.1 0.3
v 0.0999998 2.1 0.2
v 0.0999998 2.1 2.38419e-07
v 0.0999998 2.1 -0.2
v 0.0999998 2.1 -0.3
v 0.0999998 2.1 -1
v 0.0999998 2.2 3.2
v 0.0999998 2.2 3.1
v 0.0999998 2.2 2.8
v 0.0999998 2.2 2.7
v 0.0999998 2.2 2
v 0.0999998 2.2 1.9
v 0.0999998 2.2 1.7
v 0.0999998 2.2 1.6
v 0.0999998 2.2 1.4
v 0.0999998 2.3 3.1
v 0.0999998 2.3 2.8
v 0.0999998 2.3 2.7
v 0.0999998 2.3 2
v 0.0999998 2.3 1.9
v 0.0999998 2.3 1.7
v 0.0999998 2.3 1.6
v 0.0999998 2.3 1.4
v 0.0999998 2.3 1.1
v 0.0999998 2.3 0.7
v 0.0999998 2.4 2
v 0.0999998 2.4 1.2
v 0.0999998 2.4 1.1
v 0.0999998 2.4 0.6
v 0.0999998 2.4 0.5
v 0.0999998 2.4 -1
v 0.0999998 2.4 -1.1
v 0.0999998 2.5 1.4
v 0.0999998 2.5 1.2
v 0.0999998 2.5 1.1
v 0.0999998 2.5 0.6
v 0.0999998 2.5 0.5
v 0.0999998 2.5 0.3
v 0.0999998 2.6 1.4
v 0.0999998 2.6 0.3
v 0.0999998 2.8 1.4
v 0.0999998 2.8 0.3
v 0.0999998 2.9 1.4
v 0.0999998 2.9 0.3
v 0.2 1.8 0.8
v 0.2 1.8 0.7
v 0.2 1.9 0.9
v 0.2 1.9 0.8
v 0.2 2 1
v 0.2 2 0.9
v 0.2 2.1 1.1
v 0.2 2.1 1
v 0.2 2.2 3.2
v 0.2 2.2 3.1
v 0.2 2.2 2.8
v 0.2 2.2 2.7
v 0.2 2.3 3.1
v 0.2 2.3 2.8
v 0.2 2.3 1.1
v 0.2 2.3 0.7
v 0.2 2.4 3.2
v 0.2 2.4 2.7
v 0.2 2.6 1.4
v 0.2 2.6 0.3
v 0.2 2.8 1.4
v 0.2 2.8 0.3
v -0.2 2.2 3.2
v -0.2 2.4 3.2
v -0.1 2.1 3.2
v -0.1 2.2 3.2
v -0.1 2.3 3.2
v 0.0999998 2.1 3.2
v 0.0999998 2.2 3.2
v 0.0999998 2.3 3.2
v 0.2 2.2 3.2
v 0.2 2.4 3.2
v -0.2 2.2 2.8
v -0.2 2.3 2.8
v -0.1 2.2 2.8
v -0.1 2.3 2.8
v 0.0999998 2.2 2.8
v 0.0999998 2.3 2.8
v 0.2 2.2 2.8
v 0.2 2.3 2.8
v -0.1 2.1 2
v -0.1 2.2 2
v -0.1 2.3 2
v -0.1 2.4 2
v 0.0999998 2.1 2
v 0.0999998 2.2 2
v 0.0999998 2.3 2
v 0.0999998 2.4 2
v -0.2 2.6 1.4
v -0.2 2.8 1.4
v -0.1 2.5 1.4
v -0.1 2.6 1.4
v -0.1 2.8 1.4
v -0.1 2.9 1.4
v 0.0999998 2.5 1.4
v 0.0999998 2.6 1.4
v 0.0999998 2.8 1.4
v 0.0999998 2.9 1.4
v 0.2 2.6 1.4
v 0.2 2.8 1.4
v -0.1 1.6 1.2
v -0.1 2 1.2
v -0.1 2.1 1.2
v -0.1 2.4 1.2
v -0.1 2.5 1.2
v 0.0999998 1.6 1.2
v 0.0999998 2 1.2
v 0.0999998 2.1 1.2
v 0.0999998 2.4 1.2
v 0.0999998 2.5 1.2
v -0.2 2.1 1.1
v -0.2 2.3 1.1
v -0.1 2.1 1.1
v -0.1 2.3 1.1
v 0.0999998 2.1 1.1
v 0.0999998 2.3 1.1
v 0.2 2.1 1.1
v 0.2 2.3 1.1
v -0.2 2 1
v -0.2 2.1 1
v -0.1 2 1
v -0.1 2.1 1
v 0.0999998 2 1
v 0.0999998 2.1 1
v 0.2 2 1
v 0.2 2.1 1
v -0.2 1.9 0.9
v -0.2 2 0.9
v -0.1 1.9 0.9
v -0.1 2 0.9
v 0.0999998 1.9 0.9
v 0.0999998 2 0.9
v 0.2 1.9 0.9
v 0.2 2 0.9
v -0.2 1.8 0.8
v -0.2 1.9 0.8
v -0.1 1.8 0.8
v -0.1 1.9 0.8
v 0.0999998 1.8 0.8
v 0.0999998 1.9 0.8
v 0.2 1.8 0.8
v 0.2 1.9 0.8
v -0.1 1.7 0.6
v -0.1 1.8 0.6
v -0.1 2.4 0.6
v -0.1 2.5 0.6
v 0.0999998 1.7 0.6
v 0.0999998 1.8 0.6
v 0.0999998 2.4 0.6
v 0.0999998 2.5 0.6
v -0.1 1.9 0.5
v -0.1 2 0.5
v 0.0999998 1.9 0.5
v 0.0999998 2 0.5
v -0.1 2 0.4
v -0.1 2.1 0.4
v 0.0999998 2 0.4
v 0.0999998 2.1 0.4
v -0.1 1.8 0.3
v -0.1 2 0.3
v 0.0999998 1.8 0.3
v 0.0999998 2 0.3
v -0.1 1.7 0.2
v -0.1 1.8 0.2
v 0.0999998 1.7 0.2
v 0.0999998 1.8 0.2
v -0.1 1.6 0.1
v -0.1 1.7 0.1
v 0.0999998 1.6 0.1
v 0.0999998 1.7 0.1
v -0.1 1.4 2.38419e-07
v -0.1 1.6 2.38419e-07
v 0.0999998 1.4 2.38419e-07
v 0.0999998 1.6 2.38419e-07
v -0.1 2 -0.2
v -0.1 2.1 -0.2
v 0.0999998 2 -0.2
v 0.0999998 2.1 -0.2
v -0.1 1.9 -0.3
v -0.1 2 -0.3
v 0.0999998 1.9 -0.3
v 0.0999998 2 -0.3
v -0.1 1.8 -0.4
v -0.1 1.9 -0.4
v 0.0999998 1.8 -0.4
v 0.0999998 1.9 -0.4
v -0.1 1.7 -0.5
v -0.1 1.8 -0.5
v 0.0999998 1.7 -0.5
v 0.0999998 1.8 -0.5
v -0.1 1.6 -0.6
v -0.1 1.7 -0.6
v 0.0999998 1.6 -0.6
v 0.0999998 1.7 -0.6
v -0.1 1.7 -1
v -0.1 2.1 -1
v 0.0999998 1.7 -1
v 0.0999998 2.1 -1
v -0.2 2.2 3.1
v -0.2 2.3 3.1
v -0.1 2.2 3.1
v -0.1 2.3 3.1
v 0.0999998 2.2 3.1
v 0.0999998 2.3 3.1
v 0.2 2.2 3.1
v 0.2 2.3 3.1
v -0.2 2.2 2.7
v -0.2 2.4 2.7
v -0.1 2.1 2.7
v -0.1 2.2 2.7
v -0.1 2.3 2.7
v 0.0999998 2.1 2.7
v 0.0999998 2.2 2.7
v 0.0999998 2.3 2.7
v 0.2 2.2 2.7
v 0.2 2.4 2.7
v -0.1 2.4 1.1
v -0.1 2.5 1.1
v 0.0999998 2.4 1.1
v 0.0999998 2.5 1.1
v -0.1 1.6 0.9
v -0.1 1.7 0.9
v 0.0999998 1.6 0.9
v 0.0999998 1.7 0.9
v -0.1 1.7 0.8
v -0.1 1.8 0.8
v 0.0999998 1.7 0.8
v 0.0999998 1.8 0.8
v -0.2 1.8 0.7
v -0.2 2.3 0.7
v -0.1 1.8 0.7
v -0.1 2.3 0.7
v 0.0999998 1.8 0.7
v 0.0999998 2.3 0.7
v 0.2 1.8 0.7
v 0.2 2.3 0.7
v -0.1 1.8 0.6
v -0.1 2.1 0.6
v 0.0999998 1.8 0.6
v 0.0999998 2.1 0.6
v -0.1 2.4 0.5
v -0.1 2.5 0.5
v 0.0999998 2.4 0.5
v 0.0999998 2.5 0.5
v -0.1 1.9 0.4
v -0.1 2 0.4
v 0.0999998 1.9 0.4
v 0.0999998 2 0.4
v -0.2 2.6 0.3
v -0.2 2.8 0.3
v -0.1 1.7 0.3
v -0.1 1.8 0.3
v -0.1 2.5 0.3
v -0.1 2.6 0.3
v -0.1 2.8 0.3
v -0.1 2.9 0.3
v 0.0999998 1.7 0.3
v 0.0999998 1.8 0.3
v 0.0999998 2.5 0.3
v 0.0999998 2.6 0.3
v 0.0999998 2.8 0.3
v 0.0999998 2.9 0.3
v 0.2 2.6 0.3
v 0.2 2.8 0.3
v -0.1 1.8 2.38419e-07
v -0.1 2.1 2.38419e-07
v 0.0999998 1.8 2.38419e-07
v 0.0999998 2.1 2.38419e-07
v -0.1 1.7 -0.0999999
v -0.1 1.8 -0.0999999
v 0.0999998 1.7 -0.0999999
v 0.0999998 1.8 -0.0999999
v -0.1 1.4 -0.2
v -0.1 1.7 -0.2
v 0.0999998 1.4 -0.2
v 0.0999998 1.7 -0.2
v -0.1 2 -0.3
v -0.1 2.1 -0.3
v 0.0999998 2 -0.3
v 0.0999998 2.1 -0.3
v -0.1 1.9 -0.4
v -0.1 2 -0.4
v 0.0999998 1.9 -0.4
v 0.0999998 2 -0.4
v -0.1 1.8 -0.5
v -0.1 1.9 -0.5
v 0.0999998 1.8 -0.5
v 0.0999998 1.9 -0.5
v -0.1 1.7 -0.6
v -0.1 1.8 -0.6
v 0.0999998 1.7 -0.6
v 0.0999998 1.8 -0.6
v -0.1 1.6 -1.1
v -0.1 2.4 -1.1
v 0.0999998 1.6 -1.1
v 0.0999998 2.4 -1.1
v -0.1 1.4 2.38419e-07
v 0.0999998 1.4 2.38419e-07
v -0.1 1.4 -0.2
v 0.0999998 1.4 -0.2
v -0.1 1.6 1.2
v 0.0999998 1.6 1.2
v -0.1 1.6 0.9
v 0.0999998 1.6 0.9
v -0.1 1.6 0.1
v 0.0999998 1.6 0.1
v -0.1 1.6 2.38419e-07
v 0.0999998 1.6 2.38419e-07
v -0.1 1.6 -0.6
v 0.0999998 1.6 -0.6
v -0.1 1.6 -1.1
v 0.0999998 1.6 -1.1
v -0.1 1.7 0.9
v 0.0999998 1.7 0.9
v -0.1 1.7 0.8
v 0.0999998 1.7 0.8
v -0.1 1.7 0.6
v 0.0999998 1.7 0.6
v -0.1 1.7 0.3
v 0.0999998 1.7 0.3
v -0.1 1.7 0.2
v 0.0999998 1.7 0.2
v -0.1 1.7 0.1
v 0.0999998 1.7 0.1
v -0.1 1.7 -0.5
v 0.0999998 1.7 -0.5
v -0.1 1.7 -0.6
v 0.0999998 1.7 -0.6
v -0.2 1.8 0.8
v -0.1 1.8 0.8
v 0.0999998 1.8 0.8
v 0.2 1.8 0.8
v -0.2 1.8 0.7
v -0.1 1.8 0.7
v 0.0999998 1.8 0.7
v 0.2 1.8 0.7
v -0.1 1.8 0.6
v 0.0999998 1.8 0.6
v -0.1 1.8 0.3
v 0.0999998 1.8 0.3
v -0.1 1.8 0.2
v 0.0999998 1.8 0.2
v -0.1 1.8 -0.4
v 0.0999998 1.8 -0.4
v -0.1 1.8 -0.5
v 0.0999998 1.8 -0.5
v -0.2 1.9 0.9
v -0.1 1.9 0.9
v 0.0999998 1.9 0.9
v 0.2 1.9 0.9
v -0.2 1.9 0.8
v -0.1 1.9 0.8
v 0.0999998 1.9 0.8
v 0.2 1.9 0.8
v -0.1 1.9 0.5
v 0.0999998 1.9 0.5
v -0.1 1.9 0.4
v 0.0999998 1.9 0.4
v -0.1 1.9 -0.3
v 0.0999998 1.9 -0.3
v -0.1 1.9 -0.4
v 0.0999998 1.9 -0.4
v -0.2 2 1
v -0.1 2 1
v 0.0999998 2 1
v 0.2 2 1
v -0.2 2 0.9
v -0.1 2 0.9
v 0.0999998 2 0.9
v 0.2 2 0.9
v -0.1 2 0.4
v 0.0999998 2 0.4
v -0.1 2 0.3
v 0.0999998 2 0.3
v -0.1 2 -0.2
v 0.0999998 2 -0.2
v -0.1 2 -0.3
v 0.0999998 2 -0.3
v -0.1 2.1 3.2
v 0.0999998 2.1 3.2
v -0.1 2.1 2.7
v 0.0999998 2.1 2.7
v -0.1 2.1 2
v 0.0999998 2.1 2
v -0.1 2.1 1.2
v 0.0999998 2.1 1.2
v -0.2 2.1 1.1
v -0.1 2.1 1.1
v 0.0999998 2.1 1.1
v 0.2 2.1 1.1
v -0.2 2.1 1
v -0.1 2.1 1
v 0.0999998 2.1 1
v 0.2 2.1 1
v -0.1 2.1 0.6
v 0.0999998 2.1 0.6
v -0.1 2.1 0.4
v 0.0999998 2.1 0.4
v -0.1 2.1 2.38419e-07
v 0.0999998 2.1 2.38419e-07
v -0.1 2.1 -0.2
v 0.0999998 2.1 -0.2
v -0.1 2.1 -0.3
v 0.0999998 2.1 -0.3
v -0.1 2.1 -1
v 0.0999998 2.1 -1
v -0.2 2.2 3.2
v -0.1 2.2 3.2
v 0.0999998 2.2 3.2
v 0.2 2.2 3.2
v -0.2 2.2 3.1
v -0.1 2.2 3.1
v 0.0999998 2.2 3.1
v 0.2 2.2 3.1
v -0.2 2.2 2.8
v -0.1 2.2 2.8
v 0.0999998 2.2 2.8
v 0.2 2.2 2.8
v -0.2 2.2 2.7
v -0.1 2.2 2.7
v 0.0999998 2.2 2.7
v 0.2 2.2 2.7
v -0.1 2.2 2
v 0.0999998 2.2 2
v -0.2 2.3 3.1
v -0.1 2.3 3.1
v 0.0999998 2.3 3.1
v 0.2 2.3 3.1
v -0.2 2.3 2.8
v -0.1 2.3 2.8
v 0.0999998 2.3 2.8
v 0.2 2.3 2.8
v -0.1 2.5 1.4
v 0.0999998 2.5 1.4
v -0.1 2.5 1.2
v 0.0999998 2.5 1.2
v -0.1 2.5 1.1
v 0.0999998 2.5 1.1
v -0.1 2.5 0.6
v 0.0999998 2.5 0.6
v -0.1 2.5 0.5
v 0.0999998 2.5 0.5
v -0.1 2.5 0.3
v 0.0999998 2.5 0.3
v -0.2 2.6 1.4
v -0.1 2.6 1.4
v 0.0999998 2.6 1.4
v 0.2 2.6 1.4
v -0.2 2.6 0.3
v -0.1 2.6 0.3
v 0.0999998 2.6 0.3
v 0.2 2.6 0.3
v -0.1 1.7 -0.0999999
v 0.0999998 1.7 -0.0999999
v -0.1 1.7 -0.2
v 0.0999998 1.7 -0.2
v -0.1 1.7 -0.6
v 0.0999998 1.7 -0.6
v -0.1 1.7 -1
v 0.0999998 1.7 -1
v -0.1 1.8 0.6
v 0.0999998 1.8 0.6
v -0.1 1.8 0.3
v 0.0999998 1.8 0.3
v -0.1 1.8 2.38419e-07
v 0.0999998 1.8 2.38419e-07
v -0.1 1.8 -0.0999999
v 0.0999998 1.8 -0.0999999
v -0.1 1.8 -0.5
v 0.0999998 1.8 -0.5
v -0.1 1.8 -0.6
v 0.0999998 1.8 -0.6
v -0.1 1.9 -0.4
v 0.0999998 1.9 -0.4
v -0.1 1.9 -0.5
v 0.0999998 1.9 -0.5
v -0.1 2 0.5
v 0.0999998 2 0.5
v -0.1 2 0.4
v 0.0999998 2 0.4
v -0.1 2 -0.3
v 0.0999998 2 -0.3
v -0.1 2 -0.4
v 0.0999998 2 -0.4
v -0.1 2.3 2.7
v 0.0999998 2.3 2.7
v -0.1 2.3 2
v 0.0999998 2.3 2
v -0.2 2.3 1.1
v -0.1 2.3 1.1
v 0.0999998 2.3 1.1
v 0.2 2.3 1.1
v -0.2 2.3 0.7
v -0.1 2.3 0.7
v 0.0999998 2.3 0.7
v 0.2 2.3 0.7
v -0.2 2.4 3.2
v 0.2 2.4 3.2
v -0.2 2.4 2.7
v 0.2 2.4 2.7
v -0.1 2.4 2
v 0.0999998 2.4 2
v -0.1 2.4 1.2
v 0.0999998 2.4 1.2
v -0.1 2.4 1.1
v 0.0999998 2.4 1.1
v -0.1 2.4 0.6
v 0.0999998 2.4 0.6
v -0.1 2.4 0.5
v 0.0999998 2.4 0.5
v -0.1 2.4 -1
v 0.0999998 2.4 -1
v -0.1 2.4 -1.1
v 0.0999998 2.4 -1.1
v -0.2 2.8 1.4
v -0.1 2.8 1.4
v 0.0999998 2.8 1.4
v 0.2 2.8 1.4
v -0.2 2.8 0.3
v -0.1 2.8 0.3
v 0.0999998 2.8 0.3
v 0.2 2.8 0.3
v -0.1 2.9 1.4
v 0.0999998 2.9 1.4
v -0.1 2.9 0.3
v 0.0999998 2.9 0.3

# faces
f 4/3/1 2/3/1 1/3/1
f 6/3/1 4/3/1 3/3/1
f 8/3/1 6/3/1 5/3/1
f 13/3/1 10/3/1 9/3/1
f 14/3/1 12/3/1 11/3/1
f 15/3/1 8/3/1 7/3/1
f 16/3/1 2/3/1 4/3/1
f 16/3/1 8/3/1 15/3/1
f 16/3/1 4/3/1 6/3/1
f 16/3/1 6/3/1 8/3/1
f 17/3/1 14/3/1 13/3/1
f 17/3/1 13/3/1 9/3/1
f 18/3/1 12/3/1 14/3/1
f 18/3/1 14/3/1 17/3/1
f 21/3/1 20/3/1 19/3/1
f 22/3/1 20/3/1 21/3/1
f 28/4/1 24/4/1 23/4/1
f 31/2/1 26/2/1 25/2/1
f 36/4/1 28/4/1 27/4/1
f 37/4/1 24/4/1 28/4/1
f 37/4/1 28/4/1 36/4/1
f 38/4/1 24/4/1 37/4/1
f 40/4/1 30/4/1 29/4/1
f 41/4/1 30/4/1 40/4/1
f 42/2/1 32/2/1 31/2/1
f 44/3/1 34/3/1 33/3/1
f 45/3/1 34/3/1 44/3/1
f 46/4/1 36/4/1 35/4/1
f 46/4/1 37/4/1 36/4/1
f 47/4/1 37/4/1 46/4/1
f 48/4/1 37/4/1 47/4/1
f 50/4/1 40/4/1 39/4/1
f 51/4/1 40/4/1 50/4/1
f 52/2/1 42/2/1 31/2/1
f 52/2/1 31/2/1 25/2/1
f 53/2/1 42/2/1 52/2/1
f 57/4/1 50/4/1 49/4/1
f 58/4/1 50/4/1 57/4/1
f 59/2/1 52/2/1 25/2/1
f 60/2/1 52/2/1 59/2/1
f 61/2/1 52/2/1 60/2/1
f 62/2/1 52/2/1 61/2/1
f 63/4/1 55/4/1 54/4/1
f 64/4/1 55/4/1 63/4/1
f 65/3/1 46/3/1 45/3/1
f 67/4/1 57/4/1 56/4/1
f 68/4/1 57/4/1 67/4/1
f 72/3/1 60/3/1 59/3/1
f 73/2/1 61/2/1 60/2/1
f 73/3/1 60/3/1 72/3/1
f 74/2/1 61/2/1 73/2/1
f 75/3/1 44/3/1 43/3/1
f 76/4/1 65/4/1 64/4/1
f 77/3/1 46/3/1 65/3/1
f 77/4/1 65/4/1 76/4/1
f 78/4/1 47/4/1 46/4/1
f 78/3/1 46/3/1 77/3/1
f 79/4/1 47/4/1 78/4/1
f 80/4/1 67/4/1 66/4/1
f 81/4/1 67/4/1 80/4/1
f 82/4/1 30/4/1 41/4/1
f 83/3/1 70/3/1 69/3/1
f 84/3/1 70/3/1 83/3/1
f 85/3/1 70/3/1 84/3/1
f 86/3/1 70/3/1 85/3/1
f 87/3/1 72/3/1 71/3/1
f 87/3/1 73/3/1 72/3/1
f 88/3/1 73/3/1 87/3/1
f 89/3/1 73/3/1 88/3/1
f 90/3/1 73/3/1 89/3/1
f 91/3/1 73/3/1 90/3/1
f 92/4/1 85/4/1 84/4/1
f 93/4/1 85/4/1 92/4/1
f 94/3/1 87/3/1 86/3/1
f 94/3/1 88/3/1 87/3/1
f 95/3/1 88/3/1 94/3/1
f 96/4/1 89/4/1 88/4/1
f 96/3/1 88/3/1 95/3/1
f 97/3/1 90/3/1 89/3/1
f 97/4/1 89/4/1 96/4/1
f 98/4/1 91/4/1 90/4/1
f 98/3/1 90/3/1 97/3/1
f 99/3/1 73/3/1 91/3/1
f 99/4/1 91/4/1 98/4/1
f 100/3/1 73/3/1 99/3/1
f 101/3/1 81/3/1 80/3/1
f 101/3/1 80/3/1 79/3/1
f 101/3/1 77/3/1 76/3/1
f 101/3/1 82/3/1 81/3/1
f 101/3/1 79/3/1 78/3/1
f 101/3/1 78/3/1 77/3/1
f 101/3/1 75/3/1 43/3/1
f 101/3/1 76/3/1 75/3/1
f 102/3/1 100/3/1 99/3/1
f 102/3/1 101/3/1 100/3/1
f 102/3/1 99/3/1 98/3/1
f 102/3/1 98/3/1 97/3/1
f 102/3/1 96/3/1 95/3/1
f 102/3/1 97/3/1 96/3/1
f 103/3/1 101/3/1 102/3/1
f 104/3/1 101/3/1 103/3/1
f 105/3/1 82/3/1 101/3/1
f 105/3/1 101/3/1 104/3/1
f 106/3/1 82/3/1 105/3/1
f 107/4/1 30/4/1 82/4/1
f 107/3/1 82/3/1 106/3/1
f 108/4/1 30/4/1 107/4/1
f 110/3/1 104/3/1 103/3/1
f 111/3/1 104/3/1 110/3/1
f 112/3/1 106/3/1 105/3/1
f 113/3/1 106/3/1 112/3/1
f 115/3/1 111/3/1 110/3/1
f 115/3/1 114/3/1 113/3/1
f 115/3/1 113/3/1 112/3/1
f 115/3/1 112/3/1 111/3/1
f 115/3/1 110/3/1 109/3/1
f 116/3/1 114/3/1 115/3/1
f 119/3/1 118/3/1 117/3/1
f 120/3/1 118/3/1 119/3/1
f 121/4/2 122/4/2 126/4/2
f 123/2/2 124/2/2 129/2/2
f 125/4/2 126/4/2 134/4/2
f 126/4/2 122/4/2 135/4/2
f 134/4/2 126/4/2 135/4/2
f 135/4/2 122/4/2 136/4/2
f 127/4/2 128/4/2 138/4/2
f 138/4/2 128/4/2 139/4/2
f 129/2/2 130/2/2 140/2/2
f 131/3/2 132/3/2 142/3/2
f 142/3/2 132/3/2 143/3/2
f 133/4/2 134/4/2 144/4/2
f 134/4/2 135/4/2 144/4/2
f 144/4/2 135/4/2 145/4/2
f 145/4/2 135/4/2 146/4/2
f 137/4/2 138/4/2 148/4/2
f 148/4/2 138/4/2 149/4/2
f 129/2/2 140/2/2 150/2/2
f 123/2/2 129/2/2 150/2/2
f 150/2/2 140/2/2 151/2/2
f 147/4/2 148/4/2 155/4/2
f 155/4/2 148/4/2 156/4/2
f 123/2/2 150/2/2 157/2/2
f 157/2/2 150/2/2 158/2/2
f 158/2/2 150/2/2 159/2/2
f 159/2/2 150/2/2 160/2/2
f 152/4/2 153/4/2 161/4/2
f 161/4/2 153/4/2 162/4/2
f 143/3/2 144/3/2 163/3/2
f 154/4/2 155/4/2 165/4/2
f 165/4/2 155/4/2 166/4/2
f 157/3/2 158/3/2 170/3/2
f 158/2/2 159/2/2 171/2/2
f 170/3/2 158/3/2 171/3/2
f 171/2/2 159/2/2 172/2/2
f 141/3/2 142/3/2 173/3/2
f 162/4/2 163/4/2 174/4/2
f 163/3/2 144/3/2 175/3/2
f 174/4/2 163/4/2 175/4/2
f 144/4/2 145/4/2 176/4/2
f 175/3/2 144/3/2 176/3/2
f 176/4/2 145/4/2 177/4/2
f 164/4/2 165/4/2 178/4/2
f 178/4/2 165/4/2 179/4/2
f 139/4/2 128/4/2 180/4/2
f 167/3/2 168/3/2 181/3/2
f 181/3/2 168/3/2 182/3/2
f 182/3/2 168/3/2 183/3/2
f 183/3/2 168/3/2 184/3/2
f 169/3/2 170/3/2 185/3/2
f 170/3/2 171/3/2 185/3/2
f 185/3/2 171/3/2 186/3/2
f 186/3/2 171/3/2 187/3/2
f 187/3/2 171/3/2 188/3/2
f 188/3/2 171/3/2 189/3/2
f 182/4/2 183/4/2 190/4/2
f 190/4/2 183/4/2 191/4/2
f 184/3/2 185/3/2 192/3/2
f 185/3/2 186/3/2 192/3/2
f 192/3/2 186/3/2 193/3/2
f 186/4/2 187/4/2 194/4/2
f 193/3/2 186/3/2 194/3/2
f 187/3/2 188/3/2 195/3/2
f 194/4/2 187/4/2 195/4/2
f 188/4/2 189/4/2 196/4/2
f 195/3/2 188/3/2 196/3/2
f 189/3/2 171/3/2 197/3/2
f 196/4/2 189/4/2 197/4/2
f 197/3/2 171/3/2 198/3/2
f 178/3/2 179/3/2 199/3/2
f 177/3/2 178/3/2 199/3/2
f 174/3/2 175/3/2 199/3/2
f 179/3/2 180/3/2 199/3/2
f 176/3/2 177/3/2 199/3/2
f 175/3/2 176/3/2 199/3/2
f 141/3/2 173/3/2 199/3/2
f 173/3/2 174/3/2 199/3/2
f 197/3/2 198/3/2 200/3/2
f 198/3/2 199/3/2 200/3/2
f 196/3/2 197/3/2 200/3/2
f 195/3/2 196/3/2 200/3/2
f 193/3/2 194/3/2 200/3/2
f 194/3/2 195/3/2 200/3/2
f 200/3/2 199/3/2 201/3/2
f 201/3/2 199/3/2 202/3/2
f 199/3/2 180/3/2 203/3/2
f 202/3/2 199/3/2 203/3/2
f 203/3/2 180/3/2 204/3/2
f 180/4/2 128/4/2 205/4/2
f 204/3/2 180/3/2 205/3/2
f 205/4/2 128/4/2 206/4/2
f 201/3/2 202/3/2 208/3/2
f 208/3/2 202/3/2 209/3/2
f 203/3/2 204/3/2 210/3/2
f 210/3/2 204/3/2 211/3/2
f 208/3/2 209/3/2 213/3/2
f 211/3/2 212/3/2 213/3/2
f 210/3/2 211/3/2 213/3/2
f 209/3/2 210/3/2 213/3/2
f 207/3/2 208/3/2 213/3/2
f 213/3/2 212/3/2 214/3/2
f 215/3/2 216/3/2 217/3/2
f 217/3/2 216/3/2 218/3/2
f 219/3/2 220/3/2 222/3/2
f 221/3/2 222/3/2 224/3/2
f 223/3/2 224/3/2 226/3/2
f 227/3/2 228/3/2 231/3/2
f 229/3/2 230/3/2 232/3/2
f 225/3/2 226/3/2 233/3/2
f 222/3/2 220/3/2 234/3/2
f 233/3/2 226/3/2 234/3/2
f 224/3/2 222/3/2 234/3/2
f 226/3/2 224/3/2 234/3/2
f 231/3/2 232/3/2 235/3/2
f 227/3/2 231/3/2 235/3/2
f 232/3/2 230/3/2 236/3/2
f 235/3/2 232/3/2 236/3/2
f 237/3/2 238/3/2 239/3/2
f 239/3/2 238/3/2 240/3/2
f 244/3/3 242/3/3 241/3/3
f 245/3/3 242/3/3 244/3/3
f 246/3/3 244/3/3 243/3/3
f 247/4/3 245/4/3 244/4/3
f 247/3/3 244/3/3 246/3/3
f 248/3/3 242/3/3 245/3/3
f 248/4/3 245/4/3 247/4/3
f 249/3/3 248/3/3 247/3/3
f 250/3/3 242/3/3 248/3/3
f 250/3/3 248/3/3 249/3/3
f 253/3/3 252/3/3 251/3/3
f 254/3/3 252/3/3 253/3/3
f 257/3/3 256/3/3 255/3/3
f 258/3/3 256/3/3 257/3/3
f 263/3/3 260/3/3 259/3/3
f 264/3/3 260/3/3 263/3/3
f 265/3/3 262/3/3 261/3/3
f 266/3/3 262/3/3 265/3/3
f 270/3/3 268/3/3 267/3/3
f 271/3/3 268/3/3 270/3/3
f 273/3/3 270/3/3 269/3/3
f 274/1/3 271/1/3 270/1/3
f 274/3/3 270/3/3 273/3/3
f 275/3/3 272/3/3 271/3/3
f 275/1/3 271/1/3 274/1/3
f 276/3/3 272/3/3 275/3/3
f 277/3/3 275/3/3 274/3/3
f 278/3/3 275/3/3 277/3/3
f 284/2/3 280/2/3 279/2/3
f 285/3/3 281/3/3 280/3/3
f 285/2/3 280/2/3 284/2/3
f 286/3/3 281/3/3 285/3/3
f 287/3/3 283/3/3 282/3/3
f 288/3/3 283/3/3 287/3/3
f 291/3/3 290/3/3 289/3/3
f 292/3/3 290/3/3 291/3/3
f 295/3/3 294/3/3 293/3/3
f 296/3/3 294/3/3 295/3/3
f 299/3/3 298/3/3 297/3/3
f 300/3/3 298/3/3 299/3/3
f 303/3/3 302/3/3 301/3/3
f 304/3/3 302/3/3 303/3/3
f 307/3/3 306/3/3 305/3/3
f 308/3/3 306/3/3 307/3/3
f 311/3/3 310/3/3 309/3/3
f 312/3/3 310/3/3 311/3/3
f 315/3/3 314/3/3 313/3/3
f 316/3/3 314/3/3 315/3/3
f 319/3/3 318/3/3 317/3/3
f 320/3/3 318/3/3 319/3/3
f 325/3/3 322/3/3 321/3/3
f 326/3/3 322/3/3 325/3/3
f 327/3/3 324/3/3 323/3/3
f 328/3/3 324/3/3 327/3/3
f 331/4/3 330/4/3 329/4/3
f 332/4/3 330/4/3 331/4/3
f 335/4/3 334/4/3 333/4/3
f 336/4/3 334/4/3 335/4/3
f 339/3/3 338/3/3 337/3/3
f 340/3/3 338/3/3 339/3/3
f 343/4/3 342/4/3 341/4/3
f 344/4/3 342/4/3 343/4/3
f 347/4/3 346/4/3 345/4/3
f 348/4/3 346/4/3 347/4/3
f 351/4/3 350/4/3 349/4/3
f 352/4/3 350/4/3 351/4/3
f 355/4/3 354/4/3 353/4/3
f 356/4/3 354/4/3 355/4/3
f 359/4/3 358/4/3 357/4/3
f 360/4/3 358/4/3 359/4/3
f 363/4/3 362/4/3 361/4/3
f 364/4/3 362/4/3 363/4/3
f 367/4/3 366/4/3 365/4/3
f 368/4/3 366/4/3 367/4/3
f 371/4/3 370/4/3 369/4/3
f 372/4/3 370/4/3 371/4/3
f 375/4/3 374/4/3 373/4/3
f 376/4/3 374/4/3 375/4/3
f 377/3/4 378/3/4 379/3/4
f 379/3/4 378/3/4 380/3/4
f 381/3/4 382/3/4 383/3/4
f 383/3/4 382/3/4 384/3/4
f 385/3/4 386/3/4 388/3/4
f 388/3/4 386/3/4 389/3/4
f 387/3/4 388/3/4 390/3/4
f 390/3/4 388/3/4 391/3/4
f 389/3/4 386/3/4 392/3/4
f 391/3/4 392/3/4 393/3/4
f 392/3/4 386/3/4 394/3/4
f 393/3/4 392/3/4 394/3/4
f 395/3/4 396/3/4 397/3/4
f 397/3/4 396/3/4 398/3/4
f 399/2/4 400/2/4 401/2/4
f 401/2/4 400/2/4 402/2/4
f 403/2/4 404/2/4 405/2/4
f 405/2/4 404/2/4 406/2/4
f 407/3/4 408/3/4 409/3/4
f 409/3/4 408/3/4 410/3/4
f 411/3/4 412/3/4 413/3/4
f 413/3/4 412/3/4 414/3/4
f 415/3/4 416/3/4 417/3/4
f 417/3/4 416/3/4 418/3/4
f 419/3/4 420/3/4 421/3/4
f 421/3/4 420/3/4 422/3/4
f 423/4/4 424/4/4 425/4/4
f 425/4/4 424/4/4 426/4/4
f 427/3/4 428/3/4 432/3/4
f 432/3/4 428/3/4 433/3/4
f 429/3/4 430/3/4 435/3/4
f 435/3/4 430/3/4 436/3/4
f 431/3/4 432/3/4 437/3/4
f 432/1/4 433/1/4 438/1/4
f 437/3/4 432/3/4 438/3/4
f 433/3/4 434/3/4 439/3/4
f 438/1/4 433/1/4 439/1/4
f 439/3/4 434/3/4 440/3/4
f 438/3/4 439/3/4 441/3/4
f 441/3/4 439/3/4 442/3/4
f 443/4/4 444/4/4 445/4/4
f 445/4/4 444/4/4 446/4/4
f 447/4/4 448/4/4 449/4/4
f 449/4/4 448/4/4 450/4/4
f 451/4/4 452/4/4 453/4/4
f 453/4/4 452/4/4 454/4/4
f 455/4/4 456/4/4 457/4/4
f 457/4/4 456/4/4 458/4/4
f 459/4/4 460/4/4 461/4/4
f 461/4/4 460/4/4 462/4/4
f 463/4/4 464/4/4 465/4/4
f 465/4/4 464/4/4 466/4/4
f 467/4/4 468/4/4 469/4/4
f 469/4/4 468/4/4 470/4/4
f 471/4/4 472/4/4 473/4/4
f 473/4/4 472/4/4 474/4/4
f 477/4/5 476/4/5 475/4/5
f 478/4/5 476/4/5 477/4/5
f 481/2/5 480/2/5 479/2/5
f 482/2/5 480/2/5 481/2/5
f 485/4/5 484/4/5 483/4/5
f 486/4/5 484/4/5 485/4/5
f 489/4/5 488/4/5 487/4/5
f 490/4/5 488/4/5 489/4/5
f 493/2/5 492/2/5 491/2/5
f 494/2/5 492/2/5 493/2/5
f 497/3/5 496/3/5 495/3/5
f 498/3/5 496/3/5 497/3/5
f 501/4/5 500/4/5 499/4/5
f 502/4/5 500/4/5 501/4/5
f 505/4/5 504/4/5 503/4/5
f 506/4/5 504/4/5 505/4/5
f 511/3/5 508/3/5 507/3/5
f 512/2/5 509/2/5 508/2/5
f 512/3/5 508/3/5 511/3/5
f 513/3/5 510/3/5 509/3/5
f 513/2/5 509/2/5 512/2/5
f 514/3/5 510/3/5 513/3/5
f 515/3/5 513/3/5 512/3/5
f 516/3/5 513/3/5 515/3/5
f 519/3/5 518/3/5 517/3/5
f 520/3/5 518/3/5 519/3/5
f 523/4/5 522/4/5 521/4/5
f 524/4/5 522/4/5 523/4/5
f 529/3/5 526/3/5 525/3/5
f 530/3/5 526/3/5 529/3/5
f 531/3/5 528/3/5 527/3/5
f 532/3/5 528/3/5 531/3/5
f 535/4/5 534/4/5 533/4/5
f 536/4/5 534/4/5 535/4/5
f 539/4/5 538/4/5 537/4/5
f 540/4/5 538/4/5 539/4/5
f 545/3/5 542/3/5 541/3/5
f 546/3/5 542/3/5 545/3/5
f 547/3/5 544/3/5 543/3/5
f 548/3/5 544/3/5 547/3/5
f 551/4/5 550/4/5 549/4/5
f 552/4/5 550/4/5 551/4/5
f 555/4/5 554/4/5 553/4/5
f 556/4/5 554/4/5 555/4/5
f 559/3/5 558/3/5 557/3/5
f 560/3/5 558/3/5 559/3/5
f 563/3/5 562/3/5 561/3/5
f 564/3/5 562/3/5 563/3/5
f 569/3/5 566/3/5 565/3/5
f 570/3/5 566/3/5 569/3/5
f 571/3/5 568/3/5 567/3/5
f 572/3/5 568/3/5 571/3/5
f 575/3/5 574/3/5 573/3/5
f 576/3/5 574/3/5 575/3/5
f 579/3/5 578/3/5 577/3/5
f 580/3/5 578/3/5 579/3/5
f 583/3/5 582/3/5 581/3/5
f 584/3/5 582/3/5 583/3/5
f 589/3/5 586/3/5 585/3/5
f 590/3/5 586/3/5 589/3/5
f 591/3/5 588/3/5 587/3/5
f 592/3/5 588/3/5 591/3/5
f 597/3/5 594/3/5 593/3/5
f 598/3/5 594/3/5 597/3/5
f 599/3/5 596/3/5 595/3/5
f 600/3/5 596/3/5 599/3/5
f 601/3/5 599/3/5 598/3/5
f 602/3/5 599/3/5 601/3/5
f 607/3/5 604/3/5 603/3/5
f 608/3/5 604/3/5 607/3/5
f 609/3/5 606/3/5 605/3/5
f 610/3/5 606/3/5 609/3/5
f 613/3/5 612/3/5 611/3/5
f 614/3/5 612/3/5 613/3/5
f 617/3/5 616/3/5 615/3/5
f 618/3/5 616/3/5 617/3/5
f 621/3/5 620/3/5 619/3/5
f 622/3/5 620/3/5 621/3/5
f 627/3/5 624/3/5 623/3/5
f 628/3/5 624/3/5 627/3/5
f 629/3/5 626/3/5 625/3/5
f 630/3/5 626/3/5 629/3/5
f 631/4/6 632/4/6 633/4/6
f 633/4/6 632/4/6 634/4/6
f 635/4/6 636/4/6 637/4/6
f 637/4/6 636/4/6 638/4/6
f 639/3/6 640/3/6 641/3/6
f 641/3/6 640/3/6 642/3/6
f 643/4/6 644/4/6 645/4/6
f 645/4/6 644/4/6 646/4/6
f 647/4/6 648/4/6 649/4/6
f 649/4/6 648/4/6 650/4/6
f 651/4/6 652/4/6 653/4/6
f 653/4/6 652/4/6 654/4/6
f 655/4/6 656/4/6 657/4/6
f 657/4/6 656/4/6 658/4/6
f 659/4/6 660/4/6 661/4/6
f 661/4/6 660/4/6 662/4/6
f 663/3/6 664/3/6 665/3/6
f 665/3/6 664/3/6 666/3/6
f 667/3/6 668/3/6 671/3/6
f 671/3/6 668/3/6 672/3/6
f 669/3/6 670/3/6 673/3/6
f 673/3/6 670/3/6 674/3/6
f 675/3/6 676/3/6 677/3/6
f 677/3/6 676/3/6 678/3/6
f 679/3/6 680/3/6 681/3/6
f 681/3/6 680/3/6 682/3/6
f 683/3/6 684/3/6 685/3/6
f 685/3/6 684/3/6 686/3/6
f 687/3/6 688/3/6 689/3/6
f 689/3/6 688/3/6 690/3/6
f 689/4/6 690/4/6 691/4/6
f 691/4/6 690/4/6 692/4/6
f 693/3/6 694/3/6 697/3/6
f 697/3/6 694/3/6 698/3/6
f 695/3/6 696/3/6 699/3/6
f 699/3/6 696/3/6 700/3/6
f 701/3/6 702/3/6 703/3/6
f 703/3/6 702/3/6 704/3/6
