# MagicaVoxel @ Ephtracy

# group
o 

# material
mtllib Персонаж Person.mtl
usemtl palette

# normals
vn -1 0 0
vn 1 0 0
vn 0 0 1
vn 0 0 -1
vn 0 -1 0
vn 0 1 0

# texcoords
vt 0.287109 0.5
vt 0.373047 0.5
vt 0.380859 0.5
vt 0.388672 0.5
vt 0.736328 0.5
vt 0.904297 0.5
vt 0.994141 0.5

# verts
v -0.7 0.7 0.3
v -0.7 0.7 -0.1
v -0.7 0.9 0.3
v -0.7 0.9 0.2
v -0.7 1 0.2
v -0.7 1 -0.1
v -0.6 1 0.2
v -0.6 1 -0.1
v -0.6 1.1 0.2
v -0.6 1.1 -0.1
v -0.5 0 0.2
v -0.5 0 -0.1
v -0.5 0.4 0.2
v -0.5 0.4 -0.1
v -0.5 0.5 0.2
v -0.5 0.5 -0.1
v -0.5 0.7 0.2
v -0.5 0.7 -0.1
v -0.5 1.1 0.2
v -0.5 1.1 -0.1
v -0.5 1.2 0.2
v -0.5 1.2 -0.1
v -0.5 1.6 0.3
v -0.5 1.6 -0.3
v -0.5 1.9 0.3
v -0.5 1.9 -0.3
v -0.4 1.3 0.4
v -0.4 1.3 -0.3
v -0.4 1.4 0.2
v -0.4 1.4 -0.2
v -0.4 1.5 0.3
v -0.4 1.5 0.2
v -0.4 1.5 -0.2
v -0.4 1.5 -0.3
v -0.4 1.5 -0.4
v -0.4 1.6 0.3
v -0.4 1.6 -0.3
v -0.4 1.7 0.4
v -0.4 1.7 0.3
v -0.4 1.9 0.4
v -0.4 1.9 0.3
v -0.4 1.9 -0.3
v -0.4 1.9 -0.4
v -0.4 2 0.3
v -0.4 2 -0.3
v -0.3 1.9 0.4
v -0.3 1.9 0.3
v -0.3 1.9 -0.3
v -0.3 1.9 -0.4
v -0.3 2 0.4
v -0.3 2 0.3
v -0.3 2 -0.1
v -0.3 2 -0.3
v -0.3 2 -0.4
v -0.3 2.1 0.3
v -0.3 2.1 -0.1
v -0.2 1.2 0.2
v -0.2 1.2 -0.1
v -0.2 1.3 0.2
v -0.2 1.3 -0.1
v -0.2 1.4 -0.3
v -0.2 1.4 -0.4
v -0.2 1.5 -0.3
v -0.2 1.5 -0.4
v -0.2 1.5 -0.7
v -0.2 1.5 -0.8
v -0.2 1.6 -0.6
v -0.2 1.6 -0.7
v -0.2 1.7 -0.5
v -0.2 1.7 -0.6
v -0.2 1.8 -0.4
v -0.2 1.8 -0.5
v -0.2 1.9 -0.7
v -0.2 1.9 -0.8
v -0.2 2 0.4
v -0.2 2 0.3
v -0.2 2 -0.1
v -0.2 2 -0.2
v -0.2 2 -0.3
v -0.2 2 -0.4
v -0.2 2 -0.6
v -0.2 2 -0.7
v -0.2 2.1 0.4
v -0.2 2.1 0.3
v -0.2 2.1 -0.1
v -0.2 2.1 -0.2
v -0.2 2.1 -0.3
v -0.2 2.1 -0.5
v -0.2 2.1 -0.6
v -0.1 1.3 -0.3
v -0.1 1.3 -0.4
v -0.1 1.4 -0.3
v -0.1 1.4 -0.4
v 0.1 0 0.2
v 0.1 0 -0.1
v 0.1 0.3 0.2
v 0.1 0.3 -0.1
v 0.4 0.7 0.3
v 0.4 0.7 0.2
v 0.4 0.9 0.3
v 0.4 0.9 0.2
v -0.5 0.7 0.3
v -0.5 0.7 0.2
v -0.5 0.9 0.3
v -0.5 0.9 0.2
v -0.2 0 0.2
v -0.2 0 -0.1
v -0.2 0.3 0.2
v -0.2 0.3 -0.1
v 5.96046e-08 1.3 -0.3
v 5.96046e-08 1.3 -0.4
v 5.96046e-08 1.4 -0.3
v 5.96046e-08 1.4 -0.4
v 0.1 1.2 0.2
v 0.1 1.2 -0.1
v 0.1 1.3 0.2
v 0.1 1.3 -0.1
v 0.1 1.4 -0.3
v 0.1 1.4 -0.4
v 0.1 1.5 -0.3
v 0.1 1.5 -0.4
v 0.1 1.5 -0.7
v 0.1 1.5 -0.8
v 0.1 1.6 -0.6
v 0.1 1.6 -0.7
v 0.1 1.7 -0.5
v 0.1 1.7 -0.6
v 0.1 1.8 -0.4
v 0.1 1.8 -0.5
v 0.1 1.9 -0.7
v 0.1 1.9 -0.8
v 0.1 2 0.4
v 0.1 2 0.3
v 0.1 2 -0.1
v 0.1 2 -0.2
v 0.1 2 -0.3
v 0.1 2 -0.4
v 0.1 2 -0.6
v 0.1 2 -0.7
v 0.1 2.1 0.4
v 0.1 2.1 0.3
v 0.1 2.1 -0.1
v 0.1 2.1 -0.2
v 0.1 2.1 -0.3
v 0.1 2.1 -0.5
v 0.1 2.1 -0.6
v 0.2 1.9 0.4
v 0.2 1.9 0.3
v 0.2 1.9 -0.3
v 0.2 1.9 -0.4
v 0.2 2 0.4
v 0.2 2 0.3
v 0.2 2 -0.1
v 0.2 2 -0.3
v 0.2 2 -0.4
v 0.2 2.1 0.3
v 0.2 2.1 -0.1
v 0.3 1.3 0.4
v 0.3 1.3 -0.3
v 0.3 1.4 0.2
v 0.3 1.4 -0.2
v 0.3 1.5 0.3
v 0.3 1.5 0.2
v 0.3 1.5 -0.2
v 0.3 1.5 -0.3
v 0.3 1.5 -0.4
v 0.3 1.6 0.3
v 0.3 1.6 -0.3
v 0.3 1.7 0.4
v 0.3 1.7 0.3
v 0.3 1.9 0.4
v 0.3 1.9 0.3
v 0.3 1.9 -0.3
v 0.3 1.9 -0.4
v 0.3 2 0.3
v 0.3 2 -0.3
v 0.4 0 0.2
v 0.4 0 -0.1
v 0.4 0.4 0.2
v 0.4 0.4 -0.1
v 0.4 0.5 0.2
v 0.4 0.5 -0.1
v 0.4 0.7 0.2
v 0.4 0.7 -0.1
v 0.4 1.1 0.2
v 0.4 1.1 -0.1
v 0.4 1.2 0.2
v 0.4 1.2 -0.1
v 0.4 1.6 0.3
v 0.4 1.6 -0.3
v 0.4 1.9 0.3
v 0.4 1.9 -0.3
v 0.5 1 0.2
v 0.5 1 -0.1
v 0.5 1.1 0.2
v 0.5 1.1 -0.1
v 0.6 0.7 0.3
v 0.6 0.7 -0.1
v 0.6 0.9 0.3
v 0.6 0.9 0.2
v 0.6 1 0.2
v 0.6 1 -0.1
v -0.4 1.3 0.4
v -0.4 1.7 0.4
v -0.4 1.9 0.4
v -0.3 1.6 0.4
v -0.3 1.7 0.4
v -0.3 1.9 0.4
v -0.3 2 0.4
v -0.2 1.6 0.4
v -0.2 1.7 0.4
v -0.2 2 0.4
v -0.2 2.1 0.4
v 0.1 1.6 0.4
v 0.1 1.7 0.4
v 0.1 2 0.4
v 0.1 2.1 0.4
v 0.2 1.6 0.4
v 0.2 1.7 0.4
v 0.2 1.9 0.4
v 0.2 2 0.4
v 0.3 1.3 0.4
v 0.3 1.7 0.4
v 0.3 1.9 0.4
v -0.7 0.7 0.3
v -0.7 0.9 0.3
v -0.5 0.7 0.3
v -0.5 0.9 0.3
v -0.5 1.6 0.3
v -0.5 1.9 0.3
v -0.4 1.6 0.3
v -0.4 1.7 0.3
v -0.4 1.9 0.3
v -0.4 2 0.3
v -0.3 1.9 0.3
v -0.3 2 0.3
v -0.3 2.1 0.3
v -0.2 2 0.3
v -0.2 2.1 0.3
v 0.1 2 0.3
v 0.1 2.1 0.3
v 0.2 1.9 0.3
v 0.2 2 0.3
v 0.2 2.1 0.3
v 0.3 1.6 0.3
v 0.3 1.7 0.3
v 0.3 1.9 0.3
v 0.3 2 0.3
v 0.4 0.7 0.3
v 0.4 0.9 0.3
v 0.4 1.6 0.3
v 0.4 1.9 0.3
v 0.6 0.7 0.3
v 0.6 0.9 0.3
v -0.7 0.9 0.2
v -0.7 1 0.2
v -0.6 0.9 0.2
v -0.6 1 0.2
v -0.6 1.1 0.2
v -0.5 0 0.2
v -0.5 0.4 0.2
v -0.5 0.5 0.2
v -0.5 0.7 0.2
v -0.5 0.9 0.2
v -0.5 1.1 0.2
v -0.5 1.2 0.2
v -0.2 0 0.2
v -0.2 0.3 0.2
v -0.2 0.4 0.2
v -0.2 0.5 0.2
v -0.2 1.2 0.2
v -0.2 1.3 0.2
v -0.1 0.4 0.2
v -0.1 0.5 0.2
v 5.96046e-08 0.4 0.2
v 5.96046e-08 0.5 0.2
v 0.1 0 0.2
v 0.1 0.3 0.2
v 0.1 0.4 0.2
v 0.1 0.5 0.2
v 0.1 1.2 0.2
v 0.1 1.3 0.2
v 0.4 0 0.2
v 0.4 0.4 0.2
v 0.4 0.5 0.2
v 0.4 0.7 0.2
v 0.4 0.9 0.2
v 0.4 1.1 0.2
v 0.4 1.2 0.2
v 0.5 0.9 0.2
v 0.5 1 0.2
v 0.5 1.1 0.2
v 0.6 0.9 0.2
v 0.6 1 0.2
v -0.2 2 -0.3
v -0.2 2.1 -0.3
v 0.1 2 -0.3
v 0.1 2.1 -0.3
v -0.2 1.7 -0.5
v -0.2 1.8 -0.5
v 0.1 1.7 -0.5
v 0.1 1.8 -0.5
v -0.2 1.6 -0.6
v -0.2 1.7 -0.6
v 0.1 1.6 -0.6
v 0.1 1.7 -0.6
v -0.2 1.5 -0.7
v -0.2 1.6 -0.7
v 0.1 1.5 -0.7
v 0.1 1.6 -0.7
v -0.7 0.7 -0.1
v -0.7 1 -0.1
v -0.6 0.9 -0.1
v -0.6 1 -0.1
v -0.6 1.1 -0.1
v -0.5 0 -0.1
v -0.5 0.4 -0.1
v -0.5 0.5 -0.1
v -0.5 0.7 -0.1
v -0.5 0.9 -0.1
v -0.5 1.1 -0.1
v -0.5 1.2 -0.1
v -0.3 2 -0.1
v -0.3 2.1 -0.1
v -0.2 0 -0.1
v -0.2 0.3 -0.1
v -0.2 1.2 -0.1
v -0.2 1.3 -0.1
v -0.2 2 -0.1
v -0.2 2.1 -0.1
v 0.1 0 -0.1
v 0.1 0.3 -0.1
v 0.1 1.2 -0.1
v 0.1 1.3 -0.1
v 0.1 2 -0.1
v 0.1 2.1 -0.1
v 0.2 2 -0.1
v 0.2 2.1 -0.1
v 0.4 0 -0.1
v 0.4 0.4 -0.1
v 0.4 0.5 -0.1
v 0.4 0.7 -0.1
v 0.4 0.9 -0.1
v 0.4 1.1 -0.1
v 0.4 1.2 -0.1
v 0.5 0.9 -0.1
v 0.5 1 -0.1
v 0.5 1.1 -0.1
v 0.6 0.7 -0.1
v 0.6 1 -0.1
v -0.2 2 -0.2
v -0.2 2.1 -0.2
v 0.1 2 -0.2
v 0.1 2.1 -0.2
v -0.5 1.6 -0.3
v -0.5 1.9 -0.3
v -0.4 1.3 -0.3
v -0.4 1.5 -0.3
v -0.4 1.6 -0.3
v -0.4 1.9 -0.3
v -0.4 2 -0.3
v -0.3 1.4 -0.3
v -0.3 1.5 -0.3
v -0.3 1.9 -0.3
v -0.3 2 -0.3
v -0.2 1.3 -0.3
v -0.2 1.4 -0.3
v -0.2 1.5 -0.3
v -0.1 1.3 -0.3
v -0.1 1.4 -0.3
v 5.96046e-08 1.3 -0.3
v 5.96046e-08 1.4 -0.3
v 0.1 1.3 -0.3
v 0.1 1.4 -0.3
v 0.1 1.5 -0.3
v 0.2 1.4 -0.3
v 0.2 1.5 -0.3
v 0.2 1.9 -0.3
v 0.2 2 -0.3
v 0.3 1.3 -0.3
v 0.3 1.5 -0.3
v 0.3 1.6 -0.3
v 0.3 1.9 -0.3
v 0.3 2 -0.3
v 0.4 1.6 -0.3
v 0.4 1.9 -0.3
v -0.4 1.5 -0.4
v -0.4 1.9 -0.4
v -0.3 1.9 -0.4
v -0.3 2 -0.4
v -0.2 1.4 -0.4
v -0.2 1.5 -0.4
v -0.2 1.8 -0.4
v -0.2 2 -0.4
v -0.1 1.3 -0.4
v -0.1 1.4 -0.4
v 5.96046e-08 1.3 -0.4
v 5.96046e-08 1.4 -0.4
v 0.1 1.4 -0.4
v 0.1 1.5 -0.4
v 0.1 1.8 -0.4
v 0.1 2 -0.4
v 0.2 1.9 -0.4
v 0.2 2 -0.4
v 0.3 1.5 -0.4
v 0.3 1.9 -0.4
v -0.2 2 -0.6
v -0.2 2.1 -0.6
v 0.1 2 -0.6
v 0.1 2.1 -0.6
v -0.2 1.9 -0.7
v -0.2 2 -0.7
v 0.1 1.9 -0.7
v 0.1 2 -0.7
v -0.2 1.5 -0.8
v -0.2 1.9 -0.8
v 0.1 1.5 -0.8
v 0.1 1.9 -0.8
v -0.5 0 0.2
v -0.2 0 0.2
v 0.1 0 0.2
v 0.4 0 0.2
v -0.5 0 -0.1
v -0.2 0 -0.1
v 0.1 0 -0.1
v 0.4 0 -0.1
v -0.2 0.3 0.2
v 0.1 0.3 0.2
v -0.2 0.3 -0.1
v 0.1 0.3 -0.1
v -0.7 0.7 0.3
v -0.5 0.7 0.3
v 0.4 0.7 0.3
v 0.6 0.7 0.3
v -0.5 0.7 0.2
v 0.4 0.7 0.2
v -0.7 0.7 -0.1
v -0.5 0.7 -0.1
v 0.4 0.7 -0.1
v 0.6 0.7 -0.1
v -0.4 1.3 0.4
v 0.3 1.3 0.4
v -0.2 1.3 0.2
v 0.1 1.3 0.2
v -0.2 1.3 -0.1
v 0.1 1.3 -0.1
v -0.2 1.3 -0.2
v 0.1 1.3 -0.2
v -0.4 1.3 -0.3
v -0.2 1.3 -0.3
v -0.1 1.3 -0.3
v 5.96046e-08 1.3 -0.3
v 0.1 1.3 -0.3
v 0.3 1.3 -0.3
v -0.1 1.3 -0.4
v 5.96046e-08 1.3 -0.4
v -0.2 1.4 -0.3
v -0.1 1.4 -0.3
v 5.96046e-08 1.4 -0.3
v 0.1 1.4 -0.3
v -0.2 1.4 -0.4
v -0.1 1.4 -0.4
v 5.96046e-08 1.4 -0.4
v 0.1 1.4 -0.4
v -0.4 1.5 -0.3
v -0.3 1.5 -0.3
v -0.2 1.5 -0.3
v 0.1 1.5 -0.3
v 0.2 1.5 -0.3
v 0.3 1.5 -0.3
v -0.4 1.5 -0.4
v -0.2 1.5 -0.4
v 0.1 1.5 -0.4
v 0.3 1.5 -0.4
v -0.2 1.5 -0.7
v 0.1 1.5 -0.7
v -0.2 1.5 -0.8
v 0.1 1.5 -0.8
v -0.5 1.6 0.3
v -0.4 1.6 0.3
v 0.3 1.6 0.3
v 0.4 1.6 0.3
v -0.5 1.6 -0.3
v -0.4 1.6 -0.3
v 0.3 1.6 -0.3
v 0.4 1.6 -0.3
v -0.2 1.6 -0.6
v 0.1 1.6 -0.6
v -0.2 1.6 -0.7
v 0.1 1.6 -0.7
v -0.2 1.7 -0.5
v 0.1 1.7 -0.5
v -0.2 1.7 -0.6
v 0.1 1.7 -0.6
v -0.2 1.8 -0.4
v 0.1 1.8 -0.4
v -0.2 1.8 -0.5
v 0.1 1.8 -0.5
v -0.7 0.9 0.3
v -0.5 0.9 0.3
v 0.4 0.9 0.3
v 0.6 0.9 0.3
v -0.7 0.9 0.2
v -0.6 0.9 0.2
v -0.5 0.9 0.2
v 0.4 0.9 0.2
v 0.5 0.9 0.2
v 0.6 0.9 0.2
v -0.7 1 0.2
v -0.6 1 0.2
v 0.5 1 0.2
v 0.6 1 0.2
v -0.7 1 -0.1
v -0.6 1 -0.1
v 0.5 1 -0.1
v 0.6 1 -0.1
v -0.6 1.1 0.2
v -0.5 1.1 0.2
v 0.4 1.1 0.2
v 0.5 1.1 0.2
v -0.6 1.1 -0.1
v -0.5 1.1 -0.1
v 0.4 1.1 -0.1
v 0.5 1.1 -0.1
v -0.5 1.2 0.2
v -0.2 1.2 0.2
v 0.1 1.2 0.2
v 0.4 1.2 0.2
v -0.5 1.2 -0.1
v -0.2 1.2 -0.1
v 0.1 1.2 -0.1
v 0.4 1.2 -0.1
v -0.4 1.9 0.4
v -0.3 1.9 0.4
v 0.2 1.9 0.4
v 0.3 1.9 0.4
v -0.5 1.9 0.3
v -0.4 1.9 0.3
v -0.3 1.9 0.3
v 0.2 1.9 0.3
v 0.3 1.9 0.3
v 0.4 1.9 0.3
v -0.5 1.9 -0.3
v -0.4 1.9 -0.3
v -0.3 1.9 -0.3
v 0.2 1.9 -0.3
v 0.3 1.9 -0.3
v 0.4 1.9 -0.3
v -0.4 1.9 -0.4
v -0.3 1.9 -0.4
v 0.2 1.9 -0.4
v 0.3 1.9 -0.4
v -0.2 1.9 -0.7
v 0.1 1.9 -0.7
v -0.2 1.9 -0.8
v 0.1 1.9 -0.8
v -0.3 2 0.4
v -0.2 2 0.4
v 0.1 2 0.4
v 0.2 2 0.4
v -0.4 2 0.3
v -0.3 2 0.3
v -0.2 2 0.3
v 0.1 2 0.3
v 0.2 2 0.3
v 0.3 2 0.3
v -0.3 2 -0.1
v -0.2 2 -0.1
v 0.1 2 -0.1
v 0.2 2 -0.1
v -0.2 2 -0.2
v 0.1 2 -0.2
v -0.4 2 -0.3
v -0.3 2 -0.3
v -0.2 2 -0.3
v 0.1 2 -0.3
v 0.2 2 -0.3
v 0.3 2 -0.3
v -0.3 2 -0.4
v -0.2 2 -0.4
v 0.1 2 -0.4
v 0.2 2 -0.4
v -0.2 2 -0.6
v 0.1 2 -0.6
v -0.2 2 -0.7
v 0.1 2 -0.7
v -0.2 2.1 0.4
v 0.1 2.1 0.4
v -0.3 2.1 0.3
v -0.2 2.1 0.3
v 0.1 2.1 0.3
v 0.2 2.1 0.3
v -0.3 2.1 -0.1
v -0.2 2.1 -0.1
v 0.1 2.1 -0.1
v 0.2 2.1 -0.1
v -0.2 2.1 -0.2
v 0.1 2.1 -0.2
v -0.2 2.1 -0.3
v 0.1 2.1 -0.3
v -0.2 2.1 -0.5
v 0.1 2.1 -0.5
v -0.2 2.1 -0.6
v 0.1 2.1 -0.6

# faces
f 3/1/1 2/1/1 1/1/1
f 4/1/1 2/1/1 3/1/1
f 5/1/1 2/1/1 4/1/1
f 6/1/1 2/1/1 5/1/1
f 9/6/1 8/6/1 7/6/1
f 10/6/1 8/6/1 9/6/1
f 13/5/1 12/5/1 11/5/1
f 14/5/1 12/5/1 13/5/1
f 15/7/1 14/7/1 13/7/1
f 16/7/1 14/7/1 15/7/1
f 17/6/1 16/6/1 15/6/1
f 18/6/1 16/6/1 17/6/1
f 21/6/1 20/6/1 19/6/1
f 22/6/1 20/6/1 21/6/1
f 25/2/1 24/2/1 23/2/1
f 26/2/1 24/2/1 25/2/1
f 29/1/1 28/1/1 27/1/1
f 30/1/1 28/1/1 29/1/1
f 31/1/1 29/1/1 27/1/1
f 32/2/1 30/2/1 29/2/1
f 32/1/1 29/1/1 31/1/1
f 33/1/1 28/1/1 30/1/1
f 33/2/1 30/2/1 32/2/1
f 34/1/1 28/1/1 33/1/1
f 36/2/1 32/2/1 31/2/1
f 36/2/1 35/2/1 34/2/1
f 36/2/1 34/2/1 33/2/1
f 36/2/1 33/2/1 32/2/1
f 36/1/1 31/1/1 27/1/1
f 37/2/1 35/2/1 36/2/1
f 38/1/1 36/1/1 27/1/1
f 39/1/1 36/1/1 38/1/1
f 40/2/1 39/2/1 38/2/1
f 41/2/1 39/2/1 40/2/1
f 42/2/1 35/2/1 37/2/1
f 43/2/1 35/2/1 42/2/1
f 44/2/1 42/2/1 41/2/1
f 45/2/1 42/2/1 44/2/1
f 50/2/1 47/2/1 46/2/1
f 51/2/1 47/2/1 50/2/1
f 53/2/1 49/2/1 48/2/1
f 54/2/1 49/2/1 53/2/1
f 55/2/1 52/2/1 51/2/1
f 56/2/1 52/2/1 55/2/1
f 59/1/1 58/1/1 57/1/1
f 60/1/1 58/1/1 59/1/1
f 63/2/1 62/2/1 61/2/1
f 64/2/1 62/2/1 63/2/1
f 68/2/1 66/2/1 65/2/1
f 70/2/1 68/2/1 67/2/1
f 72/2/1 70/2/1 69/2/1
f 73/2/1 66/2/1 68/2/1
f 73/2/1 68/2/1 70/2/1
f 73/2/1 70/2/1 72/2/1
f 74/2/1 66/2/1 73/2/1
f 80/7/1 72/7/1 71/7/1
f 81/2/1 73/2/1 72/2/1
f 82/2/1 73/2/1 81/2/1
f 83/2/1 76/2/1 75/2/1
f 84/2/1 76/2/1 83/2/1
f 85/2/1 78/2/1 77/2/1
f 86/2/1 78/2/1 85/2/1
f 87/7/1 80/7/1 79/7/1
f 88/7/1 72/7/1 80/7/1
f 88/7/1 80/7/1 87/7/1
f 88/2/1 81/2/1 72/2/1
f 89/2/1 81/2/1 88/2/1
f 92/2/1 91/2/1 90/2/1
f 93/2/1 91/2/1 92/2/1
f 96/5/1 95/5/1 94/5/1
f 97/5/1 95/5/1 96/5/1
f 100/1/1 99/1/1 98/1/1
f 101/1/1 99/1/1 100/1/1
f 102/1/2 103/1/2 104/1/2
f 104/1/2 103/1/2 105/1/2
f 106/5/2 107/5/2 108/5/2
f 108/5/2 107/5/2 109/5/2
f 110/2/2 111/2/2 112/2/2
f 112/2/2 111/2/2 113/2/2
f 114/1/2 115/1/2 116/1/2
f 116/1/2 115/1/2 117/1/2
f 118/2/2 119/2/2 120/2/2
f 120/2/2 119/2/2 121/2/2
f 122/2/2 123/2/2 125/2/2
f 124/2/2 125/2/2 127/2/2
f 126/2/2 127/2/2 129/2/2
f 125/2/2 123/2/2 130/2/2
f 127/2/2 125/2/2 130/2/2
f 129/2/2 127/2/2 130/2/2
f 130/2/2 123/2/2 131/2/2
f 128/7/2 129/7/2 137/7/2
f 129/2/2 130/2/2 138/2/2
f 138/2/2 130/2/2 139/2/2
f 132/2/2 133/2/2 140/2/2
f 140/2/2 133/2/2 141/2/2
f 134/2/2 135/2/2 142/2/2
f 142/2/2 135/2/2 143/2/2
f 136/7/2 137/7/2 144/7/2
f 137/7/2 129/7/2 145/7/2
f 144/7/2 137/7/2 145/7/2
f 129/2/2 138/2/2 145/2/2
f 145/2/2 138/2/2 146/2/2
f 147/2/2 148/2/2 151/2/2
f 151/2/2 148/2/2 152/2/2
f 149/2/2 150/2/2 154/2/2
f 154/2/2 150/2/2 155/2/2
f 152/2/2 153/2/2 156/2/2
f 156/2/2 153/2/2 157/2/2
f 158/1/2 159/1/2 160/1/2
f 160/1/2 159/1/2 161/1/2
f 158/1/2 160/1/2 162/1/2
f 160/2/2 161/2/2 163/2/2
f 162/1/2 160/1/2 163/1/2
f 161/1/2 159/1/2 164/1/2
f 163/2/2 161/2/2 164/2/2
f 164/1/2 159/1/2 165/1/2
f 162/2/2 163/2/2 167/2/2
f 165/2/2 166/2/2 167/2/2
f 164/2/2 165/2/2 167/2/2
f 163/2/2 164/2/2 167/2/2
f 158/1/2 162/1/2 167/1/2
f 167/2/2 166/2/2 168/2/2
f 158/1/2 167/1/2 169/1/2
f 169/1/2 167/1/2 170/1/2
f 169/2/2 170/2/2 171/2/2
f 171/2/2 170/2/2 172/2/2
f 168/2/2 166/2/2 173/2/2
f 173/2/2 166/2/2 174/2/2
f 172/2/2 173/2/2 175/2/2
f 175/2/2 173/2/2 176/2/2
f 177/5/2 178/5/2 179/5/2
f 179/5/2 178/5/2 180/5/2
f 179/7/2 180/7/2 181/7/2
f 181/7/2 180/7/2 182/7/2
f 181/6/2 182/6/2 183/6/2
f 183/6/2 182/6/2 184/6/2
f 185/6/2 186/6/2 187/6/2
f 187/6/2 186/6/2 188/6/2
f 189/2/2 190/2/2 191/2/2
f 191/2/2 190/2/2 192/2/2
f 193/6/2 194/6/2 195/6/2
f 195/6/2 194/6/2 196/6/2
f 197/1/2 198/1/2 199/1/2
f 199/1/2 198/1/2 200/1/2
f 200/1/2 198/1/2 201/1/2
f 201/1/2 198/1/2 202/1/2
f 206/1/3 204/1/3 203/1/3
f 207/2/3 205/2/3 204/2/3
f 207/1/3 204/1/3 206/1/3
f 208/2/3 205/2/3 207/2/3
f 210/1/3 206/1/3 203/1/3
f 210/7/3 207/7/3 206/7/3
f 211/2/3 209/2/3 208/2/3
f 211/7/3 207/7/3 210/7/3
f 211/2/3 208/2/3 207/2/3
f 212/2/3 209/2/3 211/2/3
f 214/1/3 210/1/3 203/1/3
f 214/1/3 211/1/3 210/1/3
f 215/2/3 213/2/3 212/2/3
f 215/1/3 211/1/3 214/1/3
f 215/2/3 212/2/3 211/2/3
f 216/2/3 213/2/3 215/2/3
f 217/2/3 213/2/3 216/2/3
f 218/1/3 214/1/3 203/1/3
f 218/7/3 215/7/3 214/7/3
f 219/2/3 216/2/3 215/2/3
f 219/7/3 215/7/3 218/7/3
f 220/2/3 216/2/3 219/2/3
f 221/2/3 216/2/3 220/2/3
f 222/1/3 218/1/3 203/1/3
f 222/1/3 219/1/3 218/1/3
f 223/2/3 220/2/3 219/2/3
f 223/1/3 219/1/3 222/1/3
f 224/2/3 220/2/3 223/2/3
f 227/1/3 226/1/3 225/1/3
f 228/1/3 226/1/3 227/1/3
f 231/2/3 230/2/3 229/2/3
f 232/2/3 230/2/3 231/2/3
f 233/2/3 230/2/3 232/2/3
f 235/2/3 234/2/3 233/2/3
f 236/2/3 234/2/3 235/2/3
f 238/2/3 237/2/3 236/2/3
f 239/2/3 237/2/3 238/2/3
f 243/2/3 241/2/3 240/2/3
f 244/2/3 241/2/3 243/2/3
f 247/2/3 243/2/3 242/2/3
f 248/2/3 243/2/3 247/2/3
f 251/2/3 246/2/3 245/2/3
f 251/2/3 247/2/3 246/2/3
f 252/2/3 247/2/3 251/2/3
f 253/1/3 250/1/3 249/1/3
f 254/1/3 250/1/3 253/1/3
f 257/1/3 256/1/3 255/1/3
f 258/1/3 256/1/3 257/1/3
f 264/6/3 258/6/3 257/6/3
f 264/6/3 259/6/3 258/6/3
f 265/6/3 259/6/3 264/6/3
f 267/5/3 261/5/3 260/5/3
f 268/5/3 261/5/3 267/5/3
f 269/7/3 262/7/3 261/7/3
f 269/5/3 261/5/3 268/5/3
f 270/6/3 263/6/3 262/6/3
f 270/7/3 262/7/3 269/7/3
f 270/6/3 266/6/3 265/6/3
f 270/6/3 264/6/3 263/6/3
f 270/6/3 265/6/3 264/6/3
f 271/6/3 266/6/3 270/6/3
f 273/5/3 269/5/3 268/5/3
f 273/3/3 270/3/3 269/3/3
f 274/6/3 271/6/3 270/6/3
f 274/3/3 270/3/3 273/3/3
f 275/5/3 273/5/3 268/5/3
f 275/4/3 274/4/3 273/4/3
f 276/6/3 271/6/3 274/6/3
f 276/4/3 274/4/3 275/4/3
f 278/5/3 275/5/3 268/5/3
f 279/3/3 276/3/3 275/3/3
f 279/5/3 275/5/3 278/5/3
f 280/6/3 271/6/3 276/6/3
f 280/3/3 276/3/3 279/3/3
f 281/1/3 272/1/3 271/1/3
f 281/6/3 271/6/3 280/6/3
f 282/1/3 272/1/3 281/1/3
f 283/5/3 279/5/3 278/5/3
f 283/5/3 278/5/3 277/5/3
f 284/7/3 280/7/3 279/7/3
f 284/5/3 279/5/3 283/5/3
f 285/6/3 281/6/3 280/6/3
f 285/7/3 280/7/3 284/7/3
f 286/6/3 281/6/3 285/6/3
f 287/6/3 281/6/3 286/6/3
f 288/6/3 281/6/3 287/6/3
f 289/6/3 281/6/3 288/6/3
f 290/6/3 288/6/3 287/6/3
f 291/6/3 288/6/3 290/6/3
f 292/6/3 288/6/3 291/6/3
f 293/1/3 291/1/3 290/1/3
f 294/1/3 291/1/3 293/1/3
f 297/7/3 296/7/3 295/7/3
f 298/7/3 296/7/3 297/7/3
f 301/2/3 300/2/3 299/2/3
f 302/2/3 300/2/3 301/2/3
f 305/2/3 304/2/3 303/2/3
f 306/2/3 304/2/3 305/2/3
f 309/2/3 308/2/3 307/2/3
f 310/2/3 308/2/3 309/2/3
f 311/1/4 312/1/4 313/1/4
f 313/1/4 312/1/4 314/1/4
f 311/1/4 313/1/4 319/1/4
f 313/6/4 314/6/4 320/6/4
f 314/6/4 315/6/4 320/6/4
f 319/1/4 313/1/4 320/1/4
f 320/6/4 315/6/4 321/6/4
f 316/5/4 317/5/4 325/5/4
f 325/5/4 317/5/4 326/5/4
f 318/6/4 319/6/4 327/6/4
f 319/6/4 320/6/4 327/6/4
f 320/6/4 321/6/4 327/6/4
f 321/6/4 322/6/4 327/6/4
f 323/2/4 324/2/4 329/2/4
f 329/2/4 324/2/4 330/2/4
f 326/5/4 317/5/4 332/5/4
f 327/1/4 328/1/4 333/1/4
f 318/6/4 327/6/4 333/6/4
f 333/1/4 328/1/4 334/1/4
f 335/2/4 336/2/4 337/2/4
f 337/2/4 336/2/4 338/2/4
f 331/5/4 332/5/4 339/5/4
f 317/7/4 318/7/4 340/7/4
f 339/5/4 332/5/4 340/5/4
f 332/5/4 317/5/4 340/5/4
f 318/6/4 333/6/4 341/6/4
f 340/7/4 318/7/4 341/7/4
f 341/6/4 333/6/4 342/6/4
f 342/6/4 333/6/4 343/6/4
f 343/6/4 333/6/4 344/6/4
f 344/6/4 333/6/4 345/6/4
f 343/6/4 344/6/4 346/6/4
f 342/1/4 343/1/4 346/1/4
f 346/6/4 344/6/4 347/6/4
f 347/6/4 344/6/4 348/6/4
f 342/1/4 346/1/4 349/1/4
f 346/1/4 347/1/4 349/1/4
f 349/1/4 347/1/4 350/1/4
f 351/2/4 352/2/4 353/2/4
f 353/2/4 352/2/4 354/2/4
f 355/2/4 356/2/4 359/2/4
f 359/2/4 356/2/4 360/2/4
f 357/1/4 358/1/4 362/1/4
f 362/1/4 358/1/4 363/1/4
f 360/2/4 361/2/4 364/2/4
f 364/2/4 361/2/4 365/2/4
f 357/1/4 362/1/4 366/1/4
f 362/2/4 363/2/4 367/2/4
f 366/1/4 362/1/4 367/1/4
f 367/2/4 363/2/4 368/2/4
f 366/2/4 367/2/4 369/2/4
f 369/2/4 367/2/4 370/2/4
f 371/2/4 372/2/4 373/2/4
f 373/2/4 372/2/4 374/2/4
f 373/1/4 374/1/4 376/1/4
f 374/2/4 375/2/4 376/2/4
f 376/2/4 375/2/4 377/2/4
f 376/1/4 377/1/4 380/1/4
f 373/1/4 376/1/4 380/1/4
f 380/1/4 377/1/4 381/1/4
f 378/2/4 379/2/4 383/2/4
f 383/2/4 379/2/4 384/2/4
f 382/2/4 383/2/4 385/2/4
f 385/2/4 383/2/4 386/2/4
f 387/2/4 388/2/4 389/2/4
f 387/2/4 389/2/4 392/2/4
f 389/2/4 390/2/4 392/2/4
f 392/2/4 390/2/4 393/2/4
f 393/2/4 390/2/4 394/2/4
f 391/2/4 392/2/4 396/2/4
f 392/2/4 393/2/4 396/2/4
f 395/2/4 396/2/4 397/2/4
f 396/2/4 393/2/4 398/2/4
f 397/2/4 396/2/4 398/2/4
f 398/2/4 393/2/4 399/2/4
f 399/2/4 393/2/4 400/2/4
f 400/2/4 393/2/4 401/2/4
f 401/2/4 402/2/4 403/2/4
f 400/2/4 401/2/4 403/2/4
f 403/2/4 402/2/4 404/2/4
f 400/2/4 403/2/4 405/2/4
f 405/2/4 403/2/4 406/2/4
f 407/2/4 408/2/4 409/2/4
f 409/2/4 408/2/4 410/2/4
f 411/2/4 412/2/4 413/2/4
f 413/2/4 412/2/4 414/2/4
f 415/2/4 416/2/4 417/2/4
f 417/2/4 416/2/4 418/2/4
f 423/5/5 420/5/5 419/5/5
f 424/5/5 420/5/5 423/5/5
f 425/5/5 422/5/5 421/5/5
f 426/5/5 422/5/5 425/5/5
f 429/5/5 428/5/5 427/5/5
f 430/5/5 428/5/5 429/5/5
f 435/1/5 432/1/5 431/1/5
f 436/1/5 434/1/5 433/1/5
f 437/1/5 435/1/5 431/1/5
f 438/1/5 435/1/5 437/1/5
f 439/1/5 434/1/5 436/1/5
f 440/1/5 434/1/5 439/1/5
f 443/1/5 442/1/5 441/1/5
f 444/1/5 442/1/5 443/1/5
f 445/1/5 443/1/5 441/1/5
f 446/1/5 442/1/5 444/1/5
f 447/1/5 445/1/5 441/1/5
f 447/1/5 446/1/5 445/1/5
f 448/1/5 442/1/5 446/1/5
f 448/1/5 446/1/5 447/1/5
f 449/1/5 447/1/5 441/1/5
f 450/2/5 448/2/5 447/2/5
f 450/1/5 447/1/5 449/1/5
f 451/2/5 448/2/5 450/2/5
f 452/2/5 448/2/5 451/2/5
f 453/1/5 442/1/5 448/1/5
f 453/2/5 448/2/5 452/2/5
f 454/1/5 442/1/5 453/1/5
f 455/2/5 452/2/5 451/2/5
f 456/2/5 452/2/5 455/2/5
f 461/2/5 458/2/5 457/2/5
f 462/2/5 458/2/5 461/2/5
f 463/2/5 460/2/5 459/2/5
f 464/2/5 460/2/5 463/2/5
f 471/2/5 466/2/5 465/2/5
f 471/2/5 467/2/5 466/2/5
f 472/2/5 467/2/5 471/2/5
f 473/2/5 470/2/5 469/2/5
f 473/2/5 469/2/5 468/2/5
f 474/2/5 470/2/5 473/2/5
f 477/2/5 476/2/5 475/2/5
f 478/2/5 476/2/5 477/2/5
f 483/2/5 480/2/5 479/2/5
f 484/2/5 480/2/5 483/2/5
f 485/2/5 482/2/5 481/2/5
f 486/2/5 482/2/5 485/2/5
f 489/2/5 488/2/5 487/2/5
f 490/2/5 488/2/5 489/2/5
f 493/2/5 492/2/5 491/2/5
f 494/2/5 492/2/5 493/2/5
f 497/7/5 496/7/5 495/7/5
f 498/7/5 496/7/5 497/7/5
f 499/1/6 500/1/6 503/1/6
f 503/1/6 500/1/6 504/1/6
f 504/1/6 500/1/6 505/1/6
f 501/1/6 502/1/6 506/1/6
f 506/1/6 502/1/6 507/1/6
f 507/1/6 502/1/6 508/1/6
f 509/1/6 510/1/6 513/1/6
f 513/1/6 510/1/6 514/1/6
f 511/1/6 512/1/6 515/1/6
f 515/1/6 512/1/6 516/1/6
f 517/6/6 518/6/6 521/6/6
f 521/6/6 518/6/6 522/6/6
f 519/6/6 520/6/6 523/6/6
f 523/6/6 520/6/6 524/6/6
f 525/6/6 526/6/6 529/6/6
f 529/6/6 526/6/6 530/6/6
f 527/6/6 528/6/6 531/6/6
f 531/6/6 528/6/6 532/6/6
f 533/2/6 534/2/6 538/2/6
f 538/2/6 534/2/6 539/2/6
f 535/2/6 536/2/6 540/2/6
f 540/2/6 536/2/6 541/2/6
f 537/2/6 538/2/6 543/2/6
f 543/2/6 538/2/6 544/2/6
f 541/2/6 542/2/6 547/2/6
f 547/2/6 542/2/6 548/2/6
f 544/2/6 545/2/6 549/2/6
f 549/2/6 545/2/6 550/2/6
f 546/2/6 547/2/6 551/2/6
f 551/2/6 547/2/6 552/2/6
f 553/2/6 554/2/6 555/2/6
f 555/2/6 554/2/6 556/2/6
f 557/2/6 558/2/6 562/2/6
f 562/2/6 558/2/6 563/2/6
f 559/2/6 560/2/6 564/2/6
f 564/2/6 560/2/6 565/2/6
f 561/2/6 562/2/6 567/2/6
f 565/2/6 566/2/6 570/2/6
f 567/2/6 568/2/6 571/2/6
f 569/2/6 570/2/6 572/2/6
f 567/2/6 571/2/6 573/2/6
f 571/2/6 572/2/6 573/2/6
f 561/2/6 567/2/6 573/2/6
f 573/2/6 572/2/6 574/2/6
f 574/2/6 572/2/6 575/2/6
f 572/2/6 570/2/6 576/2/6
f 575/2/6 572/2/6 576/2/6
f 570/2/6 566/2/6 577/2/6
f 576/2/6 570/2/6 577/2/6
f 577/2/6 566/2/6 578/2/6
f 574/2/6 575/2/6 579/2/6
f 579/2/6 575/2/6 580/2/6
f 576/2/6 577/2/6 581/2/6
f 581/2/6 577/2/6 582/2/6
f 583/2/6 584/2/6 585/2/6
f 585/2/6 584/2/6 586/2/6
f 587/2/6 588/2/6 590/2/6
f 590/2/6 588/2/6 591/2/6
f 589/2/6 590/2/6 593/2/6
f 591/2/6 592/2/6 593/2/6
f 590/2/6 591/2/6 593/2/6
f 593/2/6 592/2/6 594/2/6
f 594/2/6 592/2/6 595/2/6
f 595/2/6 592/2/6 596/2/6
f 594/2/6 595/2/6 597/2/6
f 597/2/6 595/2/6 598/2/6
f 599/7/6 600/7/6 601/7/6
f 601/7/6 600/7/6 602/7/6
f 601/2/6 602/2/6 603/2/6
f 603/2/6 602/2/6 604/2/6
