# MagicaVoxel @ Ephtracy

# group
o 

# material
mtllib Tank.mtl
usemtl palette

# normals
vn -1 0 0
vn 1 0 0
vn 0 0 1
vn 0 0 -1
vn 0 -1 0
vn 0 1 0

# texcoords
vt 0.146484 0.5
vt 0.380859 0.5
vt 0.388672 0.5
vt 0.591797 0.5
vt 0.736328 0.5
vt 0.958984 0.5
vt 0.994141 0.5

# verts
v -1 0.7 0.8
v -1 0.7 0.2
v -1 0.8 0.2
v -1 0.8 0.1
v -1 0.9 0.1
v -1 0.9 -0.1
v -1 1.1 0.8
v -1 1.1 0.2
v -1 1.3 0.2
v -1 1.3 -0.1
v -0.9 1 -0.1
v -0.9 1 -0.2
v -0.9 1.1 0.3
v -0.9 1.1 0.2
v -0.9 1.3 0.3
v -0.9 1.3 0.2
v -0.9 1.3 -0.1
v -0.9 1.3 -0.2
v -0.9 1.5 0.2
v -0.9 1.5 -0.1
v -0.8 1.3 0.3
v -0.8 1.3 0.2
v -0.8 1.3 -0.1
v -0.8 1.3 -0.2
v -0.8 1.5 0.3
v -0.8 1.5 0.2
v -0.8 1.5 -0.1
v -0.8 1.5 -0.2
v -0.8 1.6 0.2
v -0.8 1.6 -0.1
v -0.5 0 0.2
v -0.5 0 -0.1
v -0.5 0.4 0.2
v -0.5 0.4 -0.1
v -0.5 0.5 0.2
v -0.5 0.5 -0.1
v -0.5 1 -5.96046e-08
v -0.5 1 -0.1
v -0.5 1.1 -5.96046e-08
v -0.5 1.1 -0.1
v -0.5 1.2 0.2
v -0.5 1.2 -0.1
v -0.4 1.6 0.4
v -0.4 1.6 -0.3
v -0.4 2.2 0.4
v -0.4 2.2 -0.3
v -0.3 1.5 0.4
v -0.3 1.5 0.3
v -0.3 1.6 0.4
v -0.3 1.6 0.3
v -0.2 1.5 0.3
v -0.2 1.5 0.2
v -0.2 1.5 -0.1
v -0.2 1.5 -0.2
v -0.2 1.6 0.3
v -0.2 1.6 -0.2
v 0.1 0 0.2
v 0.1 0 -0.1
v 0.1 0.3 0.2
v 0.1 0.3 -0.1
v 0.4 1.3 0.3
v 0.4 1.3 0.2
v 0.4 1.3 -0.1
v 0.4 1.3 -0.2
v 0.4 1.5 0.3
v 0.4 1.5 0.2
v 0.4 1.5 -0.1
v 0.4 1.5 -0.2
v 0.4 1.6 0.2
v 0.4 1.6 -0.1
v 0.5 0.7 0.6
v 0.5 0.7 0.2
v 0.5 0.8 0.2
v 0.5 0.8 0.1
v 0.5 0.9 0.1
v 0.5 0.9 -0.1
v 0.5 1.1 0.6
v 0.5 1.1 0.2
v 0.5 1.2 0.3
v 0.5 1.2 0.2
v 0.5 1.2 -0.1
v 0.5 1.2 -0.2
v 0.5 1.3 0.3
v 0.5 1.3 0.2
v 0.5 1.3 -0.1
v 0.5 1.3 -0.2
v 0.6 1 -0.1
v 0.6 1 -0.2
v 0.6 1.1 0.3
v 0.6 1.1 0.2
v 0.6 1.2 0.3
v 0.6 1.2 0.2
v 0.6 1.2 -0.1
v 0.6 1.2 -0.2
v 0.7 0.8 0.8
v 0.7 0.8 0.6
v 0.7 1.1 0.8
v 0.7 1.1 0.6
v -0.8 0.7 0.8
v -0.8 0.7 0.6
v -0.8 1.1 0.8
v -0.8 1.1 0.6
v -0.7 1 -0.1
v -0.7 1 -0.2
v -0.7 1.1 0.3
v -0.7 1.1 0.2
v -0.7 1.2 0.3
v -0.7 1.2 0.2
v -0.7 1.2 -0.1
v -0.7 1.2 -0.2
v -0.6 0.7 0.6
v -0.6 0.7 0.2
v -0.6 0.8 0.2
v -0.6 0.8 0.1
v -0.6 0.9 0.1
v -0.6 0.9 -0.1
v -0.6 1.1 0.6
v -0.6 1.1 0.2
v -0.6 1.2 0.3
v -0.6 1.2 0.2
v -0.6 1.2 -0.1
v -0.6 1.2 -0.2
v -0.6 1.3 0.3
v -0.6 1.3 0.2
v -0.6 1.3 -0.1
v -0.6 1.3 -0.2
v -0.5 1.3 0.3
v -0.5 1.3 0.2
v -0.5 1.3 -0.1
v -0.5 1.3 -0.2
v -0.5 1.5 0.3
v -0.5 1.5 0.2
v -0.5 1.5 -0.1
v -0.5 1.5 -0.2
v -0.5 1.6 0.2
v -0.5 1.6 -0.1
v -0.2 0 0.2
v -0.2 0 -0.1
v -0.2 0.3 0.2
v -0.2 0.3 -0.1
v 0.1 1.5 0.3
v 0.1 1.5 0.2
v 0.1 1.5 -0.1
v 0.1 1.5 -0.2
v 0.1 1.6 0.3
v 0.1 1.6 -0.2
v 0.2 1.5 0.4
v 0.2 1.5 0.3
v 0.2 1.6 0.4
v 0.2 1.6 0.3
v 0.3 1.6 0.4
v 0.3 1.6 -0.3
v 0.3 2.2 0.4
v 0.3 2.2 -0.3
v 0.4 0 0.2
v 0.4 0 -0.1
v 0.4 0.4 0.2
v 0.4 0.4 -0.1
v 0.4 0.5 0.2
v 0.4 0.5 -0.1
v 0.4 1.2 0.2
v 0.4 1.2 -0.1
v 0.7 1.3 0.3
v 0.7 1.3 0.2
v 0.7 1.3 -0.1
v 0.7 1.3 -0.2
v 0.7 1.5 0.3
v 0.7 1.5 0.2
v 0.7 1.5 -0.1
v 0.7 1.5 -0.2
v 0.7 1.6 0.2
v 0.7 1.6 -0.1
v 0.8 1 -0.1
v 0.8 1 -0.2
v 0.8 1.1 0.3
v 0.8 1.1 0.2
v 0.8 1.3 0.3
v 0.8 1.3 0.2
v 0.8 1.3 -0.1
v 0.8 1.3 -0.2
v 0.8 1.5 0.2
v 0.8 1.5 -0.1
v 0.9 0.7 0.6
v 0.9 0.7 0.2
v 0.9 0.8 0.8
v 0.9 0.8 0.6
v 0.9 0.8 0.2
v 0.9 0.8 0.1
v 0.9 0.9 0.1
v 0.9 0.9 -0.1
v 0.9 1.1 0.8
v 0.9 1.1 0.2
v 0.9 1.3 0.2
v 0.9 1.3 -0.1
v -1 0.7 0.8
v -1 1.1 0.8
v -0.8 0.7 0.8
v -0.8 1.1 0.8
v 0.7 0.8 0.8
v 0.7 1.1 0.8
v 0.9 0.8 0.8
v 0.9 1.1 0.8
v -0.8 0.7 0.6
v -0.8 1.1 0.6
v -0.6 0.7 0.6
v -0.6 1.1 0.6
v 0.5 0.7 0.6
v 0.5 1.1 0.6
v 0.7 0.8 0.6
v 0.7 1.1 0.6
v 0.9 0.7 0.6
v 0.9 0.8 0.6
v -0.4 1.6 0.4
v -0.4 2.2 0.4
v -0.3 1.5 0.4
v -0.3 1.6 0.4
v -0.3 1.7 0.4
v -0.3 1.8 0.4
v -0.3 1.9 0.4
v -0.3 2 0.4
v -0.2 1.9 0.4
v -0.2 2 0.4
v 1.19209e-07 1.6 0.4
v 1.19209e-07 1.7 0.4
v 0.1 1.5 0.4
v 0.1 1.6 0.4
v 0.1 1.9 0.4
v 0.1 2 0.4
v 0.2 1.5 0.4
v 0.2 1.6 0.4
v 0.2 1.8 0.4
v 0.2 1.9 0.4
v 0.2 2 0.4
v 0.3 1.6 0.4
v 0.3 2.2 0.4
v -0.9 1.1 0.3
v -0.9 1.3 0.3
v -0.8 1.3 0.3
v -0.8 1.5 0.3
v -0.7 1.1 0.3
v -0.7 1.2 0.3
v -0.6 1.2 0.3
v -0.6 1.3 0.3
v -0.5 1.3 0.3
v -0.5 1.5 0.3
v 0.4 1.3 0.3
v 0.4 1.5 0.3
v 0.5 1.2 0.3
v 0.5 1.3 0.3
v 0.6 1.1 0.3
v 0.6 1.2 0.3
v 0.7 1.3 0.3
v 0.7 1.5 0.3
v 0.8 1.1 0.3
v 0.8 1.3 0.3
v -1 1.1 0.2
v -1 1.3 0.2
v -0.9 1.1 0.2
v -0.9 1.3 0.2
v -0.9 1.5 0.2
v -0.8 1.3 0.2
v -0.8 1.5 0.2
v -0.8 1.6 0.2
v -0.7 1.1 0.2
v -0.7 1.2 0.2
v -0.6 1.1 0.2
v -0.6 1.2 0.2
v -0.6 1.3 0.2
v -0.5 0 0.2
v -0.5 0.4 0.2
v -0.5 0.5 0.2
v -0.5 1.2 0.2
v -0.5 1.3 0.2
v -0.5 1.5 0.2
v -0.5 1.6 0.2
v -0.4 0.5 0.2
v -0.4 0.8 0.2
v -0.4 1.3 0.2
v -0.4 1.5 0.2
v -0.3 0.5 0.2
v -0.3 0.6 0.2
v -0.3 0.8 0.2
v -0.3 0.9 0.2
v -0.2 0 0.2
v -0.2 0.3 0.2
v -0.2 0.4 0.2
v -0.2 0.5 0.2
v -0.2 0.6 0.2
v -0.2 0.9 0.2
v -0.2 1.2 0.2
v -0.2 1.5 0.2
v -0.0999999 0.4 0.2
v -0.0999999 0.5 0.2
v -0.0999999 1 0.2
v -0.0999999 1.2 0.2
v 1.19209e-07 0.4 0.2
v 1.19209e-07 0.5 0.2
v 1.19209e-07 1 0.2
v 1.19209e-07 1.2 0.2
v 0.1 0 0.2
v 0.1 0.3 0.2
v 0.1 0.4 0.2
v 0.1 0.5 0.2
v 0.1 1.2 0.2
v 0.1 1.5 0.2
v 0.3 1.3 0.2
v 0.3 1.5 0.2
v 0.4 0 0.2
v 0.4 0.4 0.2
v 0.4 0.5 0.2
v 0.4 1.2 0.2
v 0.4 1.3 0.2
v 0.4 1.5 0.2
v 0.4 1.6 0.2
v 0.5 1.1 0.2
v 0.5 1.2 0.2
v 0.5 1.3 0.2
v 0.6 1.1 0.2
v 0.6 1.2 0.2
v 0.7 1.3 0.2
v 0.7 1.5 0.2
v 0.7 1.6 0.2
v 0.8 1.1 0.2
v 0.8 1.3 0.2
v 0.8 1.5 0.2
v 0.9 1.1 0.2
v 0.9 1.3 0.2
v -0.3 1.5 0.3
v -0.3 1.6 0.3
v -0.2 1.5 0.3
v -0.2 1.6 0.3
v 0.1 1.5 0.3
v 0.1 1.6 0.3
v 0.2 1.5 0.3
v 0.2 1.6 0.3
v -1 0.7 0.2
v -1 0.8 0.2
v -0.6 0.7 0.2
v -0.6 0.8 0.2
v 0.5 0.7 0.2
v 0.5 0.8 0.2
v 0.9 0.7 0.2
v 0.9 0.8 0.2
v -1 0.8 0.1
v -1 0.9 0.1
v -0.6 0.8 0.1
v -0.6 0.9 0.1
v 0.5 0.8 0.1
v 0.5 0.9 0.1
v 0.9 0.8 0.1
v 0.9 0.9 0.1
v -1 0.9 -0.1
v -1 1.3 -0.1
v -0.9 1 -0.1
v -0.9 1.3 -0.1
v -0.9 1.5 -0.1
v -0.8 1.3 -0.1
v -0.8 1.5 -0.1
v -0.8 1.6 -0.1
v -0.7 1 -0.1
v -0.7 1.2 -0.1
v -0.6 0.9 -0.1
v -0.6 1.2 -0.1
v -0.6 1.3 -0.1
v -0.5 0 -0.1
v -0.5 0.4 -0.1
v -0.5 0.5 -0.1
v -0.5 1 -0.1
v -0.5 1.1 -0.1
v -0.5 1.2 -0.1
v -0.5 1.3 -0.1
v -0.5 1.5 -0.1
v -0.5 1.6 -0.1
v -0.4 1.1 -0.1
v -0.4 1.2 -0.1
v -0.4 1.3 -0.1
v -0.4 1.5 -0.1
v -0.3 1 -0.1
v -0.3 1.1 -0.1
v -0.2 0 -0.1
v -0.2 0.3 -0.1
v -0.2 1.1 -0.1
v -0.2 1.2 -0.1
v -0.2 1.3 -0.1
v -0.2 1.5 -0.1
v 0.1 0 -0.1
v 0.1 0.3 -0.1
v 0.1 0.8 -0.1
v 0.1 1.1 -0.1
v 0.1 1.3 -0.1
v 0.1 1.5 -0.1
v 0.2 0.8 -0.1
v 0.2 0.9 -0.1
v 0.2 1.1 -0.1
v 0.2 1.2 -0.1
v 0.3 0.9 -0.1
v 0.3 1.2 -0.1
v 0.3 1.3 -0.1
v 0.3 1.5 -0.1
v 0.4 0 -0.1
v 0.4 0.4 -0.1
v 0.4 0.5 -0.1
v 0.4 1.2 -0.1
v 0.4 1.3 -0.1
v 0.4 1.5 -0.1
v 0.4 1.6 -0.1
v 0.5 0.9 -0.1
v 0.5 1.2 -0.1
v 0.5 1.3 -0.1
v 0.6 1 -0.1
v 0.6 1.2 -0.1
v 0.7 1.3 -0.1
v 0.7 1.5 -0.1
v 0.7 1.6 -0.1
v 0.8 1 -0.1
v 0.8 1.3 -0.1
v 0.8 1.5 -0.1
v 0.9 0.9 -0.1
v 0.9 1.3 -0.1
v -0.9 1 -0.2
v -0.9 1.3 -0.2
v -0.8 1.3 -0.2
v -0.8 1.5 -0.2
v -0.7 1 -0.2
v -0.7 1.2 -0.2
v -0.6 1.2 -0.2
v -0.6 1.3 -0.2
v -0.5 1.3 -0.2
v -0.5 1.5 -0.2
v -0.2 1.5 -0.2
v -0.2 1.6 -0.2
v 0.1 1.5 -0.2
v 0.1 1.6 -0.2
v 0.4 1.3 -0.2
v 0.4 1.5 -0.2
v 0.5 1.2 -0.2
v 0.5 1.3 -0.2
v 0.6 1 -0.2
v 0.6 1.2 -0.2
v 0.7 1.3 -0.2
v 0.7 1.5 -0.2
v 0.8 1 -0.2
v 0.8 1.3 -0.2
v -0.4 1.6 -0.3
v -0.4 2.2 -0.3
v 0.3 1.6 -0.3
v 0.3 2.2 -0.3
v -0.5 0 0.2
v -0.2 0 0.2
v 0.1 0 0.2
v 0.4 0 0.2
v -0.5 0 -0.1
v -0.2 0 -0.1
v 0.1 0 -0.1
v 0.4 0 -0.1
v -0.2 0.3 0.2
v 0.1 0.3 0.2
v -0.2 0.3 -0.1
v 0.1 0.3 -0.1
v -1 0.7 0.8
v -0.8 0.7 0.8
v -0.8 0.7 0.6
v -0.6 0.7 0.6
v 0.5 0.7 0.6
v 0.9 0.7 0.6
v -1 0.7 0.2
v -0.6 0.7 0.2
v 0.5 0.7 0.2
v 0.9 0.7 0.2
v 0.7 0.8 0.8
v 0.9 0.8 0.8
v 0.7 0.8 0.6
v 0.9 0.8 0.6
v -1 0.8 0.2
v -0.6 0.8 0.2
v 0.5 0.8 0.2
v 0.9 0.8 0.2
v -1 0.8 0.1
v -0.6 0.8 0.1
v 0.5 0.8 0.1
v 0.9 0.8 0.1
v -1 0.9 0.1
v -0.6 0.9 0.1
v 0.5 0.9 0.1
v 0.9 0.9 0.1
v -1 0.9 -0.1
v -0.6 0.9 -0.1
v 0.5 0.9 -0.1
v 0.9 0.9 -0.1
v -0.9 1 -0.1
v -0.7 1 -0.1
v 0.6 1 -0.1
v 0.8 1 -0.1
v -0.9 1 -0.2
v -0.7 1 -0.2
v 0.6 1 -0.2
v 0.8 1 -0.2
v -0.7 1.2 0.3
v -0.6 1.2 0.3
v 0.5 1.2 0.3
v 0.6 1.2 0.3
v -0.7 1.2 0.2
v -0.6 1.2 0.2
v -0.5 1.2 0.2
v 0.4 1.2 0.2
v 0.5 1.2 0.2
v 0.6 1.2 0.2
v -0.7 1.2 -0.1
v -0.6 1.2 -0.1
v -0.5 1.2 -0.1
v 0.4 1.2 -0.1
v 0.5 1.2 -0.1
v 0.6 1.2 -0.1
v -0.7 1.2 -0.2
v -0.6 1.2 -0.2
v 0.5 1.2 -0.2
v 0.6 1.2 -0.2
v -0.6 1.3 0.3
v -0.5 1.3 0.3
v 0.4 1.3 0.3
v 0.5 1.3 0.3
v -0.6 1.3 0.2
v -0.5 1.3 0.2
v 0.4 1.3 0.2
v 0.5 1.3 0.2
v -0.6 1.3 -0.1
v -0.5 1.3 -0.1
v 0.4 1.3 -0.1
v 0.5 1.3 -0.1
v -0.6 1.3 -0.2
v -0.5 1.3 -0.2
v 0.4 1.3 -0.2
v 0.5 1.3 -0.2
v -0.3 1.5 0.4
v 0.1 1.5 0.4
v 0.2 1.5 0.4
v -0.3 1.5 0.3
v -0.2 1.5 0.3
v 0.1 1.5 0.3
v 0.2 1.5 0.3
v -0.2 1.5 0.2
v 0.1 1.5 0.2
v -0.2 1.5 -0.1
v 0.1 1.5 -0.1
v -0.2 1.5 -0.2
v 0.1 1.5 -0.2
v -0.4 1.6 0.4
v -0.3 1.6 0.4
v 0.2 1.6 0.4
v 0.3 1.6 0.4
v -0.3 1.6 0.3
v -0.2 1.6 0.3
v 0.1 1.6 0.3
v 0.2 1.6 0.3
v -0.2 1.6 -0.2
v 0.1 1.6 -0.2
v -0.4 1.6 -0.3
v 0.3 1.6 -0.3
v -1 1.1 0.8
v -0.8 1.1 0.8
v 0.7 1.1 0.8
v 0.9 1.1 0.8
v -0.8 1.1 0.6
v -0.6 1.1 0.6
v 0.5 1.1 0.6
v 0.7 1.1 0.6
v -0.9 1.1 0.3
v -0.7 1.1 0.3
v 0.6 1.1 0.3
v 0.8 1.1 0.3
v -1 1.1 0.2
v -0.9 1.1 0.2
v -0.7 1.1 0.2
v -0.6 1.1 0.2
v 0.5 1.1 0.2
v 0.6 1.1 0.2
v 0.8 1.1 0.2
v 0.9 1.1 0.2
v -0.9 1.3 0.3
v -0.8 1.3 0.3
v 0.7 1.3 0.3
v 0.8 1.3 0.3
v -1 1.3 0.2
v -0.9 1.3 0.2
v -0.8 1.3 0.2
v 0.7 1.3 0.2
v 0.8 1.3 0.2
v 0.9 1.3 0.2
v -1 1.3 -0.1
v -0.9 1.3 -0.1
v -0.8 1.3 -0.1
v 0.7 1.3 -0.1
v 0.8 1.3 -0.1
v 0.9 1.3 -0.1
v -0.9 1.3 -0.2
v -0.8 1.3 -0.2
v 0.7 1.3 -0.2
v 0.8 1.3 -0.2
v -0.8 1.5 0.3
v -0.5 1.5 0.3
v 0.4 1.5 0.3
v 0.7 1.5 0.3
v -0.9 1.5 0.2
v -0.8 1.5 0.2
v -0.5 1.5 0.2
v -0.4 1.5 0.2
v -0.2 1.5 0.2
v 0.1 1.5 0.2
v 0.3 1.5 0.2
v 0.4 1.5 0.2
v 0.7 1.5 0.2
v 0.8 1.5 0.2
v -0.9 1.5 -0.1
v -0.8 1.5 -0.1
v -0.5 1.5 -0.1
v -0.4 1.5 -0.1
v -0.2 1.5 -0.1
v 0.1 1.5 -0.1
v 0.3 1.5 -0.1
v 0.4 1.5 -0.1
v 0.7 1.5 -0.1
v 0.8 1.5 -0.1
v -0.8 1.5 -0.2
v -0.5 1.5 -0.2
v 0.4 1.5 -0.2
v 0.7 1.5 -0.2
v -0.8 1.6 0.2
v -0.5 1.6 0.2
v 0.4 1.6 0.2
v 0.7 1.6 0.2
v -0.8 1.6 -0.1
v -0.5 1.6 -0.1
v 0.4 1.6 -0.1
v 0.7 1.6 -0.1
v -0.4 2.2 0.4
v 0.3 2.2 0.4
v -0.4 2.2 -0.3
v 0.3 2.2 -0.3

# faces
f 3/4/1 2/4/1 1/4/1
f 5/4/1 4/4/1 3/4/1
f 7/4/1 3/4/1 1/4/1
f 7/4/1 6/4/1 5/4/1
f 7/4/1 5/4/1 3/4/1
f 8/4/1 6/4/1 7/4/1
f 9/4/1 6/4/1 8/4/1
f 10/4/1 6/4/1 9/4/1
f 15/4/1 14/4/1 13/4/1
f 16/4/1 14/4/1 15/4/1
f 17/4/1 12/4/1 11/4/1
f 18/4/1 12/4/1 17/4/1
f 19/4/1 17/4/1 16/4/1
f 20/4/1 17/4/1 19/4/1
f 25/4/1 22/4/1 21/4/1
f 26/4/1 22/4/1 25/4/1
f 27/4/1 24/4/1 23/4/1
f 28/4/1 24/4/1 27/4/1
f 29/4/1 27/4/1 26/4/1
f 30/4/1 27/4/1 29/4/1
f 33/5/1 32/5/1 31/5/1
f 34/5/1 32/5/1 33/5/1
f 35/7/1 34/7/1 33/7/1
f 36/7/1 34/7/1 35/7/1
f 37/6/1 36/6/1 35/6/1
f 38/6/1 36/6/1 37/6/1
f 39/6/1 37/6/1 35/6/1
f 39/4/1 38/4/1 37/4/1
f 40/4/1 38/4/1 39/4/1
f 41/6/1 39/6/1 35/6/1
f 41/6/1 40/6/1 39/6/1
f 42/6/1 40/6/1 41/6/1
f 45/4/1 44/4/1 43/4/1
f 46/4/1 44/4/1 45/4/1
f 49/4/1 48/4/1 47/4/1
f 50/4/1 48/4/1 49/4/1
f 55/4/1 52/4/1 51/4/1
f 55/4/1 54/4/1 53/4/1
f 55/4/1 53/4/1 52/4/1
f 56/4/1 54/4/1 55/4/1
f 59/5/1 58/5/1 57/5/1
f 60/5/1 58/5/1 59/5/1
f 65/4/1 62/4/1 61/4/1
f 66/4/1 62/4/1 65/4/1
f 67/4/1 64/4/1 63/4/1
f 68/4/1 64/4/1 67/4/1
f 69/4/1 67/4/1 66/4/1
f 70/4/1 67/4/1 69/4/1
f 73/4/1 72/4/1 71/4/1
f 75/4/1 74/4/1 73/4/1
f 77/4/1 73/4/1 71/4/1
f 77/4/1 76/4/1 75/4/1
f 77/4/1 75/4/1 73/4/1
f 78/4/1 76/4/1 77/4/1
f 80/4/1 76/4/1 78/4/1
f 81/4/1 76/4/1 80/4/1
f 83/4/1 80/4/1 79/4/1
f 84/4/1 80/4/1 83/4/1
f 85/4/1 82/4/1 81/4/1
f 86/4/1 82/4/1 85/4/1
f 91/4/1 90/4/1 89/4/1
f 92/4/1 90/4/1 91/4/1
f 93/4/1 88/4/1 87/4/1
f 94/4/1 88/4/1 93/4/1
f 97/4/1 96/4/1 95/4/1
f 98/4/1 96/4/1 97/4/1
f 99/4/2 100/4/2 101/4/2
f 101/4/2 100/4/2 102/4/2
f 105/4/2 106/4/2 107/4/2
f 107/4/2 106/4/2 108/4/2
f 103/4/2 104/4/2 109/4/2
f 109/4/2 104/4/2 110/4/2
f 111/4/2 112/4/2 113/4/2
f 113/4/2 114/4/2 115/4/2
f 111/4/2 113/4/2 117/4/2
f 115/4/2 116/4/2 117/4/2
f 113/4/2 115/4/2 117/4/2
f 117/4/2 116/4/2 118/4/2
f 118/4/2 116/4/2 120/4/2
f 120/4/2 116/4/2 121/4/2
f 119/4/2 120/4/2 123/4/2
f 123/4/2 120/4/2 124/4/2
f 121/4/2 122/4/2 125/4/2
f 125/4/2 122/4/2 126/4/2
f 127/4/2 128/4/2 131/4/2
f 131/4/2 128/4/2 132/4/2
f 129/4/2 130/4/2 133/4/2
f 133/4/2 130/4/2 134/4/2
f 132/4/2 133/4/2 135/4/2
f 135/4/2 133/4/2 136/4/2
f 137/5/2 138/5/2 139/5/2
f 139/5/2 138/5/2 140/5/2
f 141/4/2 142/4/2 145/4/2
f 143/4/2 144/4/2 145/4/2
f 142/4/2 143/4/2 145/4/2
f 145/4/2 144/4/2 146/4/2
f 147/1/2 148/1/2 149/1/2
f 149/1/2 148/1/2 150/1/2
f 151/4/2 152/4/2 153/4/2
f 153/4/2 152/4/2 154/4/2
f 155/5/2 156/5/2 157/5/2
f 157/5/2 156/5/2 158/5/2
f 157/7/2 158/7/2 159/7/2
f 159/7/2 158/7/2 160/7/2
f 159/6/2 160/6/2 161/6/2
f 161/6/2 160/6/2 162/6/2
f 163/4/2 164/4/2 167/4/2
f 167/4/2 164/4/2 168/4/2
f 165/4/2 166/4/2 169/4/2
f 169/4/2 166/4/2 170/4/2
f 168/4/2 169/4/2 171/4/2
f 171/4/2 169/4/2 172/4/2
f 175/4/2 176/4/2 177/4/2
f 177/4/2 176/4/2 178/4/2
f 173/4/2 174/4/2 179/4/2
f 179/4/2 174/4/2 180/4/2
f 178/4/2 179/4/2 181/4/2
f 181/4/2 179/4/2 182/4/2
f 183/4/2 184/4/2 186/4/2
f 186/4/2 184/4/2 187/4/2
f 185/4/2 186/4/2 189/4/2
f 187/4/2 188/4/2 189/4/2
f 186/4/2 187/4/2 189/4/2
f 185/4/2 189/4/2 191/4/2
f 189/4/2 190/4/2 191/4/2
f 191/4/2 190/4/2 192/4/2
f 192/4/2 190/4/2 193/4/2
f 193/4/2 190/4/2 194/4/2
f 197/4/3 196/4/3 195/4/3
f 198/4/3 196/4/3 197/4/3
f 201/4/3 200/4/3 199/4/3
f 202/4/3 200/4/3 201/4/3
f 205/4/3 204/4/3 203/4/3
f 206/4/3 204/4/3 205/4/3
f 209/4/3 208/4/3 207/4/3
f 210/4/3 208/4/3 209/4/3
f 211/4/3 209/4/3 207/4/3
f 212/4/3 209/4/3 211/4/3
f 216/4/3 214/4/3 213/4/3
f 217/4/3 214/4/3 216/4/3
f 218/4/3 214/4/3 217/4/3
f 219/4/3 214/4/3 218/4/3
f 220/4/3 214/4/3 219/4/3
f 221/4/3 219/4/3 218/4/3
f 221/1/3 220/1/3 219/1/3
f 222/4/3 214/4/3 220/4/3
f 222/1/3 220/1/3 221/1/3
f 223/4/3 216/4/3 215/4/3
f 223/4/3 217/4/3 216/4/3
f 224/1/3 218/1/3 217/1/3
f 224/4/3 217/4/3 223/4/3
f 225/4/3 223/4/3 215/4/3
f 226/1/3 224/1/3 223/1/3
f 226/4/3 223/4/3 225/4/3
f 227/4/3 222/4/3 221/4/3
f 227/4/3 221/4/3 218/4/3
f 228/4/3 214/4/3 222/4/3
f 228/4/3 222/4/3 227/4/3
f 229/1/3 226/1/3 225/1/3
f 230/1/3 224/1/3 226/1/3
f 230/1/3 226/1/3 229/1/3
f 231/4/3 227/4/3 218/4/3
f 231/1/3 224/1/3 230/1/3
f 231/1/3 218/1/3 224/1/3
f 232/1/3 228/1/3 227/1/3
f 232/4/3 227/4/3 231/4/3
f 233/4/3 214/4/3 228/4/3
f 233/1/3 228/1/3 232/1/3
f 234/4/3 231/4/3 230/4/3
f 234/4/3 233/4/3 232/4/3
f 234/4/3 232/4/3 231/4/3
f 235/4/3 214/4/3 233/4/3
f 235/4/3 233/4/3 234/4/3
f 238/4/3 237/4/3 236/4/3
f 240/4/3 238/4/3 236/4/3
f 240/4/3 239/4/3 238/4/3
f 241/4/3 239/4/3 240/4/3
f 242/4/3 239/4/3 241/4/3
f 243/4/3 239/4/3 242/4/3
f 244/4/3 239/4/3 243/4/3
f 245/4/3 239/4/3 244/4/3
f 249/4/3 247/4/3 246/4/3
f 251/4/3 249/4/3 248/4/3
f 252/4/3 247/4/3 249/4/3
f 252/4/3 251/4/3 250/4/3
f 252/4/3 249/4/3 251/4/3
f 253/4/3 247/4/3 252/4/3
f 254/4/3 252/4/3 250/4/3
f 255/4/3 252/4/3 254/4/3
f 258/4/3 257/4/3 256/4/3
f 259/4/3 257/4/3 258/4/3
f 261/4/3 260/4/3 259/4/3
f 262/4/3 260/4/3 261/4/3
f 266/4/3 265/4/3 264/4/3
f 267/4/3 265/4/3 266/4/3
f 272/4/3 268/4/3 267/4/3
f 273/4/3 268/4/3 272/4/3
f 274/4/3 263/4/3 262/4/3
f 275/4/3 263/4/3 274/4/3
f 276/6/3 273/6/3 272/6/3
f 276/7/3 271/7/3 270/7/3
f 276/6/3 272/6/3 271/6/3
f 277/6/3 273/6/3 276/6/3
f 278/4/3 274/4/3 273/4/3
f 278/6/3 273/6/3 277/6/3
f 279/4/3 274/4/3 278/4/3
f 280/4/3 277/4/3 276/4/3
f 280/7/3 276/7/3 270/7/3
f 281/4/3 277/4/3 280/4/3
f 282/6/3 279/6/3 278/6/3
f 282/4/3 277/4/3 281/4/3
f 282/6/3 278/6/3 277/6/3
f 283/6/3 279/6/3 282/6/3
f 284/5/3 270/5/3 269/5/3
f 285/5/3 270/5/3 284/5/3
f 286/7/3 280/7/3 270/7/3
f 286/5/3 270/5/3 285/5/3
f 287/6/3 281/6/3 280/6/3
f 287/7/3 280/7/3 286/7/3
f 288/4/3 282/4/3 281/4/3
f 288/6/3 281/6/3 287/6/3
f 288/4/3 283/4/3 282/4/3
f 289/6/3 279/6/3 283/6/3
f 289/4/3 283/4/3 288/4/3
f 290/6/3 279/6/3 289/6/3
f 291/6/3 279/6/3 290/6/3
f 292/5/3 286/5/3 285/5/3
f 292/2/3 287/2/3 286/2/3
f 293/6/3 288/6/3 287/6/3
f 293/2/3 287/2/3 292/2/3
f 293/6/3 290/6/3 289/6/3
f 293/6/3 289/6/3 288/6/3
f 294/6/3 290/6/3 293/6/3
f 295/4/3 291/4/3 290/4/3
f 295/6/3 290/6/3 294/6/3
f 296/5/3 292/5/3 285/5/3
f 296/3/3 293/3/3 292/3/3
f 297/6/3 294/6/3 293/6/3
f 297/3/3 293/3/3 296/3/3
f 298/4/3 295/4/3 294/4/3
f 298/6/3 294/6/3 297/6/3
f 299/4/3 291/4/3 295/4/3
f 299/4/3 295/4/3 298/4/3
f 301/5/3 296/5/3 285/5/3
f 302/2/3 297/2/3 296/2/3
f 302/5/3 296/5/3 301/5/3
f 303/6/3 298/6/3 297/6/3
f 303/2/3 297/2/3 302/2/3
f 303/6/3 299/6/3 298/6/3
f 304/4/3 291/4/3 299/4/3
f 304/6/3 299/6/3 303/6/3
f 305/4/3 291/4/3 304/4/3
f 306/6/3 304/6/3 303/6/3
f 306/6/3 305/6/3 304/6/3
f 307/6/3 305/6/3 306/6/3
f 308/5/3 302/5/3 301/5/3
f 308/5/3 301/5/3 300/5/3
f 309/7/3 303/7/3 302/7/3
f 309/5/3 302/5/3 308/5/3
f 310/6/3 306/6/3 303/6/3
f 310/7/3 303/7/3 309/7/3
f 311/6/3 306/6/3 310/6/3
f 312/4/3 307/4/3 306/4/3
f 312/6/3 306/6/3 311/6/3
f 313/4/3 307/4/3 312/4/3
f 316/4/3 312/4/3 311/4/3
f 317/4/3 312/4/3 316/4/3
f 318/4/3 316/4/3 315/4/3
f 319/4/3 316/4/3 318/4/3
f 321/4/3 314/4/3 313/4/3
f 322/4/3 314/4/3 321/4/3
f 324/4/3 321/4/3 320/4/3
f 325/4/3 321/4/3 324/4/3
f 326/4/3 324/4/3 323/4/3
f 327/4/3 324/4/3 326/4/3
f 328/4/4 329/4/4 330/4/4
f 330/4/4 329/4/4 331/4/4
f 332/1/4 333/1/4 334/1/4
f 334/1/4 333/1/4 335/1/4
f 336/4/4 337/4/4 338/4/4
f 338/4/4 337/4/4 339/4/4
f 340/4/4 341/4/4 342/4/4
f 342/4/4 341/4/4 343/4/4
f 344/4/4 345/4/4 346/4/4
f 346/4/4 345/4/4 347/4/4
f 348/4/4 349/4/4 350/4/4
f 350/4/4 349/4/4 351/4/4
f 352/4/4 353/4/4 354/4/4
f 354/4/4 353/4/4 355/4/4
f 355/4/4 356/4/4 357/4/4
f 357/4/4 356/4/4 358/4/4
f 352/4/4 354/4/4 360/4/4
f 352/4/4 360/4/4 362/4/4
f 360/4/4 361/4/4 362/4/4
f 362/4/4 361/4/4 363/4/4
f 363/4/4 364/4/4 370/4/4
f 370/4/4 364/4/4 371/4/4
f 358/4/4 359/4/4 372/4/4
f 372/4/4 359/4/4 373/4/4
f 370/6/4 371/6/4 374/6/4
f 368/4/4 369/4/4 374/4/4
f 369/6/4 370/6/4 374/6/4
f 374/6/4 371/6/4 375/6/4
f 371/4/4 372/4/4 376/4/4
f 375/6/4 371/6/4 376/6/4
f 376/4/4 372/4/4 377/4/4
f 374/4/4 375/4/4 378/4/4
f 367/6/4 368/6/4 378/6/4
f 368/4/4 374/4/4 378/4/4
f 378/4/4 375/4/4 379/4/4
f 365/5/4 366/5/4 380/5/4
f 380/5/4 366/5/4 381/5/4
f 379/4/4 375/4/4 382/4/4
f 378/6/4 379/6/4 382/6/4
f 376/6/4 377/6/4 383/6/4
f 382/4/4 375/4/4 383/4/4
f 375/6/4 376/6/4 383/6/4
f 383/6/4 377/6/4 384/6/4
f 384/6/4 377/6/4 385/6/4
f 381/5/4 366/5/4 387/5/4
f 378/6/4 382/6/4 388/6/4
f 367/6/4 378/6/4 388/6/4
f 382/6/4 383/6/4 388/6/4
f 383/6/4 384/6/4 388/6/4
f 388/6/4 384/6/4 389/6/4
f 384/4/4 385/4/4 390/4/4
f 389/6/4 384/6/4 390/6/4
f 390/4/4 385/4/4 391/4/4
f 388/4/4 389/4/4 392/4/4
f 367/6/4 388/6/4 392/6/4
f 392/4/4 389/4/4 393/4/4
f 390/6/4 391/6/4 394/6/4
f 393/4/4 389/4/4 394/4/4
f 389/6/4 390/6/4 394/6/4
f 394/6/4 391/6/4 395/6/4
f 392/6/4 393/6/4 396/6/4
f 393/4/4 394/4/4 396/4/4
f 394/4/4 395/4/4 396/4/4
f 395/6/4 391/6/4 397/6/4
f 396/4/4 395/4/4 397/4/4
f 397/6/4 391/6/4 398/6/4
f 398/6/4 391/6/4 399/6/4
f 386/5/4 387/5/4 400/5/4
f 366/7/4 367/7/4 401/7/4
f 400/5/4 387/5/4 401/5/4
f 387/5/4 366/5/4 401/5/4
f 392/6/4 396/6/4 402/6/4
f 401/7/4 367/7/4 402/7/4
f 367/6/4 392/6/4 402/6/4
f 397/6/4 398/6/4 402/6/4
f 396/6/4 397/6/4 402/6/4
f 402/6/4 398/6/4 403/6/4
f 398/4/4 399/4/4 404/4/4
f 403/6/4 398/6/4 404/6/4
f 404/4/4 399/4/4 405/4/4
f 403/4/4 404/4/4 408/4/4
f 408/4/4 404/4/4 409/4/4
f 407/4/4 408/4/4 410/4/4
f 410/4/4 408/4/4 411/4/4
f 405/4/4 406/4/4 413/4/4
f 413/4/4 406/4/4 414/4/4
f 407/4/4 410/4/4 415/4/4
f 412/4/4 413/4/4 416/4/4
f 416/4/4 413/4/4 417/4/4
f 407/4/4 415/4/4 418/4/4
f 415/4/4 416/4/4 418/4/4
f 418/4/4 416/4/4 419/4/4
f 420/4/4 421/4/4 422/4/4
f 420/4/4 422/4/4 424/4/4
f 422/4/4 423/4/4 424/4/4
f 424/4/4 423/4/4 425/4/4
f 425/4/4 423/4/4 426/4/4
f 426/4/4 423/4/4 427/4/4
f 427/4/4 423/4/4 428/4/4
f 428/4/4 423/4/4 429/4/4
f 430/4/4 431/4/4 432/4/4
f 432/4/4 431/4/4 433/4/4
f 434/4/4 435/4/4 437/4/4
f 436/4/4 437/4/4 439/4/4
f 437/4/4 435/4/4 440/4/4
f 438/4/4 439/4/4 440/4/4
f 439/4/4 437/4/4 440/4/4
f 440/4/4 435/4/4 441/4/4
f 438/4/4 440/4/4 442/4/4
f 442/4/4 440/4/4 443/4/4
f 444/4/4 445/4/4 446/4/4
f 446/4/4 445/4/4 447/4/4
f 452/5/5 449/5/5 448/5/5
f 453/5/5 449/5/5 452/5/5
f 454/5/5 451/5/5 450/5/5
f 455/5/5 451/5/5 454/5/5
f 458/5/5 457/5/5 456/5/5
f 459/5/5 457/5/5 458/5/5
f 462/4/5 461/4/5 460/4/5
f 466/4/5 462/4/5 460/4/5
f 466/4/5 463/4/5 462/4/5
f 467/4/5 463/4/5 466/4/5
f 468/4/5 465/4/5 464/4/5
f 469/4/5 465/4/5 468/4/5
f 472/4/5 471/4/5 470/4/5
f 473/4/5 471/4/5 472/4/5
f 478/4/5 475/4/5 474/4/5
f 479/4/5 475/4/5 478/4/5
f 480/4/5 477/4/5 476/4/5
f 481/4/5 477/4/5 480/4/5
f 486/4/5 483/4/5 482/4/5
f 487/4/5 483/4/5 486/4/5
f 488/4/5 485/4/5 484/4/5
f 489/4/5 485/4/5 488/4/5
f 494/4/5 491/4/5 490/4/5
f 495/4/5 491/4/5 494/4/5
f 496/4/5 493/4/5 492/4/5
f 497/4/5 493/4/5 496/4/5
f 502/4/5 499/4/5 498/4/5
f 503/4/5 499/4/5 502/4/5
f 506/4/5 501/4/5 500/4/5
f 507/4/5 501/4/5 506/4/5
f 509/4/5 504/4/5 503/4/5
f 510/4/5 504/4/5 509/4/5
f 511/4/5 506/4/5 505/4/5
f 512/4/5 506/4/5 511/4/5
f 514/4/5 509/4/5 508/4/5
f 515/4/5 509/4/5 514/4/5
f 516/4/5 513/4/5 512/4/5
f 517/4/5 513/4/5 516/4/5
f 522/4/5 519/4/5 518/4/5
f 523/4/5 519/4/5 522/4/5
f 524/4/5 521/4/5 520/4/5
f 525/4/5 521/4/5 524/4/5
f 530/4/5 527/4/5 526/4/5
f 531/4/5 527/4/5 530/4/5
f 532/4/5 529/4/5 528/4/5
f 533/4/5 529/4/5 532/4/5
f 537/4/5 535/4/5 534/4/5
f 538/4/5 535/4/5 537/4/5
f 539/1/5 536/1/5 535/1/5
f 539/4/5 535/4/5 538/4/5
f 540/1/5 536/1/5 539/1/5
f 541/4/5 539/4/5 538/4/5
f 542/4/5 539/4/5 541/4/5
f 545/4/5 544/4/5 543/4/5
f 546/4/5 544/4/5 545/4/5
f 551/4/5 548/4/5 547/4/5
f 554/4/5 550/4/5 549/4/5
f 555/4/5 552/4/5 551/4/5
f 556/4/5 554/4/5 553/4/5
f 557/4/5 555/4/5 551/4/5
f 557/4/5 556/4/5 555/4/5
f 557/4/5 551/4/5 547/4/5
f 558/4/5 554/4/5 556/4/5
f 558/4/5 556/4/5 557/4/5
f 558/4/5 550/4/5 554/4/5
f 559/4/6 560/4/6 563/4/6
f 561/4/6 562/4/6 566/4/6
f 563/4/6 564/4/6 567/4/6
f 559/4/6 563/4/6 567/4/6
f 567/4/6 564/4/6 568/4/6
f 565/4/6 566/4/6 569/4/6
f 566/4/6 562/4/6 570/4/6
f 569/4/6 566/4/6 570/4/6
f 559/4/6 567/4/6 571/4/6
f 571/4/6 567/4/6 572/4/6
f 568/4/6 564/4/6 573/4/6
f 573/4/6 564/4/6 574/4/6
f 565/4/6 569/4/6 575/4/6
f 575/4/6 569/4/6 576/4/6
f 570/4/6 562/4/6 577/4/6
f 577/4/6 562/4/6 578/4/6
f 579/4/6 580/4/6 584/4/6
f 584/4/6 580/4/6 585/4/6
f 581/4/6 582/4/6 586/4/6
f 586/4/6 582/4/6 587/4/6
f 583/4/6 584/4/6 589/4/6
f 589/4/6 584/4/6 590/4/6
f 587/4/6 588/4/6 593/4/6
f 593/4/6 588/4/6 594/4/6
f 590/4/6 591/4/6 595/4/6
f 595/4/6 591/4/6 596/4/6
f 592/4/6 593/4/6 597/4/6
f 597/4/6 593/4/6 598/4/6
f 599/4/6 600/4/6 604/4/6
f 604/4/6 600/4/6 605/4/6
f 601/4/6 602/4/6 610/4/6
f 610/4/6 602/4/6 611/4/6
f 603/4/6 604/4/6 613/4/6
f 613/4/6 604/4/6 614/4/6
f 605/4/6 606/4/6 615/4/6
f 606/6/6 607/6/6 616/6/6
f 615/4/6 606/4/6 616/4/6
f 616/6/6 607/6/6 617/6/6
f 608/6/6 609/6/6 618/6/6
f 609/4/6 610/4/6 619/4/6
f 618/6/6 609/6/6 619/6/6
f 619/4/6 610/4/6 620/4/6
f 611/4/6 612/4/6 621/4/6
f 621/4/6 612/4/6 622/4/6
f 614/4/6 615/4/6 623/4/6
f 623/4/6 615/4/6 624/4/6
f 620/4/6 621/4/6 625/4/6
f 625/4/6 621/4/6 626/4/6
f 627/4/6 628/4/6 631/4/6
f 631/4/6 628/4/6 632/4/6
f 629/4/6 630/4/6 633/4/6
f 633/4/6 630/4/6 634/4/6
f 635/4/6 636/4/6 637/4/6
f 637/4/6 636/4/6 638/4/6
